<svg width="35" height="35" viewBox="0 0 35 35" fill="none" xmlns="http://www.w3.org/2000/svg">
<path d="M0 17.5C0 7.83502 7.83502 0 17.5 0C27.165 0 35 7.83502 35 17.5C35 27.165 27.165 35 17.5 35C7.83502 35 0 27.165 0 17.5Z" fill="#4C4C4C"/>
<path d="M21.454 16.9045C21.3405 14.6002 19.6989 13.2142 17.7166 13.2142H17.642C15.3544 13.2142 14.0859 15.0892 14.0859 17.2192C14.0859 19.6036 15.6205 21.1099 17.6333 21.1099C19.8767 21.1099 21.3523 19.3967 21.459 17.3705L21.454 16.9045H21.454ZM17.6531 11.1516C19.1815 11.1516 20.6189 11.8559 21.6739 12.9586V12.9627C21.6739 12.4336 22.0157 12.0344 22.4901 12.0344L22.6102 12.0336C23.3521 12.0336 23.5049 12.7656 23.5049 12.9972L23.5083 21.2272C23.4558 21.7662 24.0419 22.0445 24.3666 21.6984C25.6347 20.3403 27.1513 14.7165 23.5784 11.4588C20.2486 8.42088 15.7806 8.92127 13.4045 10.6285C10.8782 12.4444 9.26211 16.4639 10.8321 20.2388C12.5438 24.356 17.4413 25.584 20.3523 24.359C21.8263 23.7389 22.5068 25.8155 20.976 26.4942C18.6632 27.5209 12.225 27.4173 9.21766 21.9871C7.18568 18.3207 7.29335 11.8697 12.6829 8.52763C16.8054 5.9701 22.2411 6.67796 25.5186 10.2457C28.9446 13.9754 28.7444 20.9599 25.4032 23.6749C23.8891 24.9087 21.6401 23.7084 21.6543 21.9108L21.6389 21.3231C20.5847 22.4134 19.1815 23.0496 17.653 23.0496C14.6331 23.0496 11.9758 20.2807 11.9758 17.1324C11.9758 13.9539 14.6331 11.1516 17.653 11.1516" fill="white"/>
</svg>
