<svg width="35" height="35" viewBox="0 0 35 35" fill="none" xmlns="http://www.w3.org/2000/svg">
<path fill-rule="evenodd" clip-rule="evenodd" d="M17.5 0C7.83502 0 0 7.83502 0 17.5C0 27.165 7.83502 35 17.5 35C27.165 35 35 27.165 35 17.5C35 7.83502 27.165 0 17.5 0ZM26.2225 11.7565C26.8967 11.7565 27.0489 12.1183 26.8967 12.616C26.6591 13.7564 24.6862 16.7815 24.0752 17.7185C23.959 17.8965 23.8921 17.9992 23.8956 17.9992C23.6564 18.4063 23.5694 18.5873 23.8956 19.0396C24.0135 19.2069 24.2636 19.4621 24.5493 19.7538C24.8433 20.0537 25.175 20.3923 25.4396 20.7134C26.3965 21.8443 27.1359 22.7943 27.3316 23.4503C27.5056 24.1062 27.2012 24.4455 26.5487 24.4455H24.3088C23.7152 24.4455 23.4092 24.0909 22.7571 23.3353C22.4774 23.0113 22.1342 22.6135 21.6774 22.1384C20.3508 20.8039 19.7636 20.6229 19.4374 20.6229C18.9807 20.6229 18.8502 20.736 18.8502 21.4146V23.5181C18.8502 24.0836 18.6762 24.4229 17.2409 24.4229C14.8705 24.4229 12.239 22.93 10.3905 20.148C7.60686 16.0766 6.8457 13.0005 6.8457 12.3898C6.8457 12.0505 6.95444 11.7338 7.60686 11.7338H9.86858C10.434 11.7338 10.6515 11.9826 10.869 12.6386C11.9781 15.9635 13.8266 18.8813 14.5877 18.8813C14.8705 18.8813 15.0009 18.7456 15.0009 17.9992V14.5612C14.9472 13.5839 14.6202 13.1582 14.3776 12.8424C14.2272 12.6466 14.1093 12.4931 14.1093 12.2767C14.1093 12.0053 14.3268 11.7338 14.6747 11.7338H18.1978C18.6762 11.7338 18.8502 12.0053 18.8502 12.5933V17.2302C18.8502 17.7278 19.0459 17.9087 19.1982 17.9087C19.4809 17.9087 19.7201 17.7278 20.242 17.1849C21.8513 15.3076 23.0039 12.4124 23.0039 12.4124C23.1562 12.0731 23.4171 11.7565 23.9826 11.7565H26.2225Z" fill="#4D4D4D"/>
</svg>
