<svg width="35" height="35" viewBox="0 0 35 35" fill="none" xmlns="http://www.w3.org/2000/svg">
<path fill-rule="evenodd" clip-rule="evenodd" d="M0 17.5C0 7.83502 7.83502 0 17.5 0C27.165 0 35 7.83502 35 17.5C35 27.165 27.165 35 17.5 35C7.83502 35 0 27.165 0 17.5ZM17.4743 12.849C18.8962 12.849 19.8554 13.4641 20.4023 13.978L22.5394 11.8884C21.2268 10.6666 19.5189 9.91674 17.4743 9.91674C14.5127 9.91674 11.9549 11.6188 10.7096 14.096L10.7098 14.0961C10.1966 15.124 9.90214 16.2783 9.90214 17.5C9.90214 18.7218 10.1966 19.8761 10.7099 20.9041L13.141 19.0197L10.7182 20.9041C11.9634 23.3813 14.5128 25.0833 17.4744 25.0833C19.5189 25.0833 21.2353 24.4093 22.489 23.2465C23.9193 21.9237 24.7439 19.9773 24.7439 17.6686C24.7439 17.0451 24.6934 16.5901 24.584 16.1182H17.4744V18.9325H21.6476C21.5635 19.6318 21.1091 20.685 20.0995 21.3928L20.0995 21.3928C19.4601 21.8393 18.6019 22.1511 17.4744 22.1511C15.472 22.1511 13.7724 20.8283 13.1666 18.9999L13.1667 18.9998C13.0068 18.528 12.9143 18.0224 12.9143 17.5C12.9143 16.9776 13.0068 16.472 13.1583 16.0002L13.158 16.0003L10.7098 14.0961L10.7099 14.0959L13.1581 16.0001C13.7724 14.1717 15.4719 12.849 17.4743 12.849ZM20.0995 21.3928C20.0995 21.3928 20.0995 21.3928 20.0995 21.3928L22.489 23.2465C22.489 23.2465 22.489 23.2465 22.489 23.2465L20.0995 21.3928ZM13.1666 18.9999L13.141 19.0197L13.1666 18.9998C13.1666 18.9998 13.1666 18.9998 13.1666 18.9999Z" fill="#4C4C4C"/>
</svg>
