<svg width="35" height="35" viewBox="0 0 35 35" fill="none" xmlns="http://www.w3.org/2000/svg">
<path fill-rule="evenodd" clip-rule="evenodd" d="M17.5 0C7.83502 0 0 7.83502 0 17.5C0 27.165 7.83502 35 17.5 35C27.165 35 35 27.165 35 17.5C35 7.83502 27.165 0 17.5 0ZM13.6518 8.22302C14.6474 8.17771 14.9655 8.16663 17.5003 8.16663H17.4974C20.033 8.16663 20.3499 8.17771 21.3455 8.22302C22.3391 8.26852 23.0177 8.42583 23.6127 8.65664C24.2272 8.89483 24.7464 9.21373 25.2655 9.7329C25.7847 10.2517 26.1036 10.7724 26.3428 11.3863C26.5722 11.9797 26.7297 12.658 26.7764 13.6516C26.8211 14.6471 26.8328 14.9653 26.8328 17.5001C26.8328 20.0349 26.8211 20.3522 26.7764 21.3478C26.7297 22.341 26.5722 23.0194 26.3428 23.6131C26.1036 24.2267 25.7847 24.7475 25.2655 25.2663C24.7469 25.7854 24.227 26.1051 23.6133 26.3435C23.0195 26.5743 22.3405 26.7316 21.3468 26.7771C20.3513 26.8224 20.0341 26.8335 17.4991 26.8335C14.9645 26.8335 14.6466 26.8224 13.651 26.7771C12.6576 26.7316 11.9792 26.5743 11.3854 26.3435C10.7719 26.1051 10.2511 25.7854 9.73256 25.2663C9.21358 24.7475 8.89469 24.2267 8.6561 23.6129C8.42549 23.0194 8.26818 22.3412 8.22249 21.3476C8.17737 20.352 8.1661 20.0349 8.1661 17.5001C8.1661 14.9653 8.17776 14.6469 8.22229 13.6514C8.26701 12.6581 8.42452 11.9797 8.65591 11.3861C8.89508 10.7724 9.21397 10.2517 9.73314 9.7329C10.2519 9.21392 10.7727 8.89503 11.3865 8.65664C11.98 8.42583 12.6582 8.26852 13.6518 8.22302Z" fill="#4D4D4D"/>
<path fill-rule="evenodd" clip-rule="evenodd" d="M16.6618 9.84852C16.8244 9.84827 16.9993 9.84835 17.188 9.84843L17.4991 9.84852C19.9911 9.84852 20.2865 9.85747 21.2706 9.90219C22.1806 9.9438 22.6745 10.0959 23.0035 10.2236C23.4391 10.3928 23.7496 10.595 24.0761 10.9217C24.4028 11.2483 24.605 11.5595 24.7745 11.995C24.9023 12.3236 25.0545 12.8175 25.096 13.7275C25.1407 14.7114 25.1504 15.007 25.1504 17.4979C25.1504 19.9887 25.1407 20.2843 25.096 21.2682C25.0543 22.1782 24.9023 22.6721 24.7745 23.0007C24.6054 23.4362 24.4028 23.7464 24.0761 24.0729C23.7494 24.3995 23.4393 24.6018 23.0035 24.7709C22.6749 24.8993 22.1806 25.0509 21.2706 25.0925C20.2867 25.1373 19.9911 25.147 17.4991 25.147C15.0069 25.147 14.7115 25.1373 13.7276 25.0925C12.8176 25.0505 12.3237 24.8985 11.9945 24.7707C11.559 24.6016 11.2479 24.3993 10.9212 24.0727C10.5945 23.746 10.3923 23.4357 10.2227 22.9999C10.095 22.6713 9.94274 22.1774 9.90132 21.2674C9.8566 20.2835 9.84766 19.9879 9.84766 17.4955C9.84766 15.0031 9.8566 14.7091 9.90132 13.7252C9.94294 12.8152 10.095 12.3213 10.2227 11.9923C10.3919 11.5567 10.5945 11.2456 10.9212 10.919C11.2479 10.5923 11.559 10.3901 11.9945 10.2205C12.3235 10.0922 12.8176 9.9405 13.7276 9.89869C14.5886 9.8598 14.9223 9.84814 16.6618 9.84619V9.84852ZM22.4804 11.3982C21.862 11.3982 21.3604 11.8993 21.3604 12.5179C21.3604 13.1362 21.862 13.6379 22.4804 13.6379C23.0987 13.6379 23.6004 13.1362 23.6004 12.5179C23.6004 11.8995 23.0987 11.3979 22.4804 11.3979V11.3982ZM12.7058 17.5001C12.7058 14.8531 14.8519 12.707 17.4989 12.707H17.4987C20.1457 12.707 22.2912 14.8531 22.2912 17.5001C22.2912 20.1471 20.1459 22.2923 17.4989 22.2923C14.8519 22.2923 12.7058 20.1471 12.7058 17.5001Z" fill="#4D4D4D"/>
<path d="M17.5018 14.3889C19.2199 14.3889 20.6129 15.7817 20.6129 17.5001C20.6129 19.2182 19.2199 20.6112 17.5018 20.6112C15.7834 20.6112 14.3906 19.2182 14.3906 17.5001C14.3906 15.7817 15.7834 14.3889 17.5018 14.3889Z" fill="#4D4D4D"/>
</svg>
