<svg width="58" height="49" viewBox="0 0 58 49" fill="none" xmlns="http://www.w3.org/2000/svg">
<path d="M12.62 48.4C8.9 48.4 5.96 47.02 3.8 44.26C1.76 41.5 0.74 38.2 0.74 34.36C0.74 27.28 2.3 21.04 5.42 15.64C8.66 10.24 14 5.08 21.44 0.159996L24.68 4.47999C20.72 7.12 17.24 10.36 14.24 14.2C11.36 17.92 9.92 22.18 9.92 26.98L12.62 26.44C16.1 26.44 18.8 27.46 20.72 29.5C22.64 31.42 23.6 34.06 23.6 37.42C23.6 40.78 22.64 43.48 20.72 45.52C18.8 47.44 16.1 48.4 12.62 48.4ZM45.38 48.4C41.66 48.4 38.72 47.02 36.56 44.26C34.52 41.5 33.5 38.2 33.5 34.36C33.5 27.28 35.06 21.04 38.18 15.64C41.42 10.24 46.76 5.08 54.2 0.159996L57.44 4.47999C53.48 7.12 50 10.36 47 14.2C44.12 17.92 42.68 22.18 42.68 26.98L45.38 26.44C48.86 26.44 51.56 27.46 53.48 29.5C55.4 31.42 56.36 34.06 56.36 37.42C56.36 40.78 55.4 43.48 53.48 45.52C51.56 47.44 48.86 48.4 45.38 48.4Z" fill="#C6C6C6"/>
</svg>
