<svg width="30" height="16" viewBox="0 0 30 16" fill="none" xmlns="http://www.w3.org/2000/svg">
<g opacity="0.7">
<path d="M10.1361 3.15944C10.2852 3.00896 10.4794 2.91374 10.6808 2.89237C10.8821 2.871 11.0761 2.92502 11.2249 3.04387L19.984 11.8029C20.1274 11.9463 20.2014 12.1473 20.1899 12.3616C20.1784 12.576 20.0822 12.7861 19.9225 12.9458C19.7628 13.1055 19.5526 13.2017 19.3383 13.2132C19.124 13.2248 18.923 13.1507 18.7796 13.0073L10.0205 4.24823C9.90169 4.09942 9.84768 3.90541 9.86905 3.70408C9.89042 3.50275 9.98563 3.30856 10.1361 3.15944Z" fill="#282828"/>
<path d="M19.6744 2.97522C19.8249 3.12435 19.9201 3.31853 19.9415 3.51986C19.9628 3.72119 19.9088 3.91521 19.79 4.06403L11.0303 12.8235C10.8869 12.967 10.686 13.041 10.4716 13.0295C10.2573 13.018 10.0472 12.9218 9.88745 12.7621C9.72775 12.6024 9.63155 12.3923 9.62003 12.1779C9.6085 11.9636 9.68259 11.7626 9.826 11.6192L18.5856 2.85969C18.7344 2.74083 18.9285 2.68681 19.1298 2.70817C19.3311 2.72953 19.5253 2.82475 19.6744 2.97522Z" fill="#282828"/>
</g>
</svg>
