<svg width="11" height="12" viewBox="0 0 11 12" fill="none" xmlns="http://www.w3.org/2000/svg">
<path opacity="0.7" d="M11 6.46154C11 7.21154 10.8544 7.92788 10.5632 8.61058C10.2719 9.29327 9.88043 9.88221 9.38867 10.3774C8.89692 10.8726 8.31207 11.2668 7.63411 11.5601C6.95616 11.8534 6.24479 12 5.5 12C4.75521 12 4.04384 11.8534 3.36589 11.5601C2.68793 11.2668 2.10308 10.8726 1.61133 10.3774C1.11957 9.88221 0.728082 9.29327 0.436849 8.61058C0.145616 7.92788 0 7.21154 0 6.46154C0 5.58654 0.192166 4.76202 0.576497 3.98798C0.960829 3.21394 1.50152 2.5649 2.19857 2.04087C2.40386 1.88702 2.63184 1.82692 2.88249 1.86058C3.13314 1.89423 3.33247 2.01442 3.48047 2.22115C3.63325 2.42308 3.69173 2.65024 3.65592 2.90264C3.62012 3.15505 3.50195 3.35817 3.30143 3.51202C2.83355 3.86779 2.4719 4.30288 2.21647 4.81731C1.96105 5.33173 1.83333 5.87981 1.83333 6.46154C1.83333 6.96154 1.93001 7.4387 2.12337 7.89303C2.31673 8.34736 2.57812 8.74039 2.90755 9.07212C3.23698 9.40385 3.62728 9.66707 4.07845 9.86178C4.52962 10.0565 5.00347 10.1538 5.5 10.1538C5.99653 10.1538 6.47038 10.0565 6.92155 9.86178C7.37272 9.66707 7.76302 9.40385 8.09245 9.07212C8.42188 8.74039 8.68327 8.34736 8.87663 7.89303C9.06999 7.4387 9.16667 6.96154 9.16667 6.46154C9.16667 5.87981 9.03895 5.33173 8.78353 4.81731C8.5281 4.30288 8.16645 3.86779 7.69857 3.51202C7.49805 3.35817 7.37988 3.15505 7.34408 2.90264C7.30827 2.65024 7.36675 2.42308 7.51953 2.22115C7.66753 2.01442 7.86806 1.89423 8.12109 1.86058C8.37413 1.82692 8.60091 1.88702 8.80143 2.04087C9.49848 2.5649 10.0392 3.21394 10.4235 3.98798C10.8078 4.76202 11 5.58654 11 6.46154ZM6.41667 0.923077V5.53846C6.41667 5.78846 6.32595 6.00481 6.14453 6.1875C5.96311 6.37019 5.74826 6.46154 5.5 6.46154C5.25174 6.46154 5.03689 6.37019 4.85547 6.1875C4.67405 6.00481 4.58333 5.78846 4.58333 5.53846V0.923077C4.58333 0.673077 4.67405 0.456731 4.85547 0.274038C5.03689 0.0913462 5.25174 0 5.5 0C5.74826 0 5.96311 0.0913462 6.14453 0.274038C6.32595 0.456731 6.41667 0.673077 6.41667 0.923077Z" fill="#282828"/>
</svg>
