<svg width="13" height="13" viewBox="0 0 13 13" fill="none" xmlns="http://www.w3.org/2000/svg">
<path d="M11.784 1.16461H9.2625C9.2625 0.855858 9.05667 0.650024 8.74792 0.650024C8.43917 0.650024 8.23333 0.855858 8.23333 1.16461H4.11667C4.11667 0.855858 3.91083 0.650024 3.60208 0.650024C3.29333 0.650024 3.0875 0.855858 3.0875 1.16461H0.566042C0.257292 1.16461 0 1.4219 0 1.73065V12.434C0 12.7427 0.257292 13 0.566042 13H11.784C12.0927 13 12.35 12.7427 12.35 12.434V1.73065C12.35 1.4219 12.0927 1.16461 11.784 1.16461ZM11.3208 11.9709H1.02917V4.76669H11.3208V11.9709ZM11.3208 4.25211H1.02917V2.19377H3.0875V2.70836C3.0875 3.01711 3.29333 3.22294 3.60208 3.22294C3.91083 3.22294 4.11667 3.01711 4.11667 2.70836V2.19377H8.23333V2.70836C8.23333 3.01711 8.43917 3.22294 8.74792 3.22294C9.05667 3.22294 9.2625 3.01711 9.2625 2.70836V2.19377H11.3208V4.25211Z" fill="#888888"/>
<rect x="2.92578" width="1.3" height="3.25" rx="0.65" fill="#888888"/>
<rect x="8.125" width="1.3" height="3.25" rx="0.65" fill="#888888"/>
</svg>
