<svg width="18" height="16" viewBox="0 0 18 16" fill="none" xmlns="http://www.w3.org/2000/svg">
<path fill-rule="evenodd" clip-rule="evenodd" d="M15.2 1.6H14.4V0.8C14.4 0.587827 14.3157 0.384344 14.1657 0.234315C14.0157 0.0842854 13.8122 0 13.6 0C13.3878 0 13.1843 0.0842854 13.0343 0.234315C12.8843 0.384344 12.8 0.587827 12.8 0.8V1.6H4.8V0.8C4.8 0.587827 4.71571 0.384344 4.56569 0.234315C4.41566 0.0842854 4.21217 0 4 0C3.78783 0 3.58434 0.0842854 3.43432 0.234315C3.28429 0.384344 3.2 0.587827 3.2 0.8V1.6H2.4C1.76348 1.6 1.15303 1.85286 0.702944 2.30294C0.252856 2.75303 0 3.36348 0 4V13.6C0 14.2365 0.252856 14.847 0.702944 15.2971C1.15303 15.7471 1.76348 16 2.4 16H15.2C15.8365 16 16.447 15.7471 16.8971 15.2971C17.3471 14.847 17.6 14.2365 17.6 13.6V4C17.6 3.36348 17.3471 2.75303 16.8971 2.30294C16.447 1.85286 15.8365 1.6 15.2 1.6ZM1.6 4C1.6 3.78783 1.68429 3.58434 1.83431 3.43431C1.98434 3.28429 2.18783 3.2 2.4 3.2H15.2C15.4122 3.2 15.6157 3.28429 15.7657 3.43431C15.9157 3.58434 16 3.78783 16 4V4.8H1.6V4ZM16 13.6C16 13.8122 15.9157 14.0157 15.7657 14.1657C15.6157 14.3157 15.4122 14.4 15.2 14.4H2.4C2.18783 14.4 1.98434 14.3157 1.83431 14.1657C1.68429 14.0157 1.6 13.8122 1.6 13.6V6.4H16V13.6Z" fill="#AAAAAA"/>
<path d="M4.96508 8H3.84508C3.49162 8 3.20508 8.28654 3.20508 8.64V9.76C3.20508 10.1135 3.49162 10.4 3.84508 10.4H4.96508C5.31854 10.4 5.60508 10.1135 5.60508 9.76V8.64C5.60508 8.28654 5.31854 8 4.96508 8Z" fill="#AAAAAA"/>
<path d="M8.96508 8H7.84508C7.49162 8 7.20508 8.28654 7.20508 8.64V9.76C7.20508 10.1135 7.49162 10.4 7.84508 10.4H8.96508C9.31854 10.4 9.60508 10.1135 9.60508 9.76V8.64C9.60508 8.28654 9.31854 8 8.96508 8Z" fill="#AAAAAA"/>
</svg>
