<svg width="22" height="22" viewBox="0 0 22 22" fill="none" xmlns="http://www.w3.org/2000/svg">
<path d="M8 1V0.1H7.1V1H8ZM14 1H14.9V0.1H14V1ZM8 8V8.9H8.9V8H8ZM1 8L1 7.1H0.1V8H1ZM1 14H0.1V14.9H1V14ZM8 14H8.9V13.1H8V14ZM8 21H7.1V21.9H8V21ZM14 21V21.9H14.9V21H14ZM14 14V13.1H13.1V14H14ZM21 14V14.9H21.9V14H21ZM21 8H21.9V7.1H21V8ZM14 8H13.1V8.9H14V8ZM8 1.9H14V0.1H8V1.9ZM8.9 8V1H7.1V8H8.9ZM1 8.9L8 8.9V7.1L1 7.1L1 8.9ZM1.9 14V8H0.1V14H1.9ZM8 13.1H1V14.9H8V13.1ZM8.9 21V14H7.1V21H8.9ZM14 20.1H8V21.9H14V20.1ZM13.1 14V21H14.9V14H13.1ZM21 13.1H14V14.9H21V13.1ZM20.1 8V14H21.9V8H20.1ZM14 8.9L21 8.9V7.1L14 7.1V8.9ZM13.1 1V8H14.9V1H13.1Z" fill="#444444"/>
</svg>
