<svg width="18" height="18" viewBox="0 0 18 18" fill="none" xmlns="http://www.w3.org/2000/svg">
<path d="M7.2 0H0V18H8.019L8.919 9.09C8.92529 9.06986 8.93785 9.05225 8.95485 9.03975C8.97185 9.02725 8.9924 9.02051 9.0135 9.02051C9.0346 9.02051 9.05515 9.02725 9.07215 9.03975C9.08915 9.05225 9.10171 9.06986 9.108 9.09L10.008 18H18V0H7.2ZM1.8 1.8H5.31C5.13363 2.6648 4.70684 3.45865 4.08274 4.08274C3.45865 4.70684 2.6648 5.13363 1.8 5.31V1.8ZM11.619 16.2L10.89 8.91C10.857 8.43244 10.644 7.98521 10.294 7.6586C9.94406 7.33199 9.4832 7.15034 9.0045 7.15034C8.5258 7.15034 8.06494 7.33199 7.71498 7.6586C7.36501 7.98521 7.15201 8.43244 7.119 8.91L6.381 16.2H1.8V7.128C3.14365 6.93264 4.38823 6.30842 5.34832 5.34832C6.30842 4.38823 6.93264 3.14365 7.128 1.8H10.872C11.0674 3.14365 11.6916 4.38823 12.6517 5.34832C13.6118 6.30842 14.8563 6.93264 16.2 7.128V16.2H11.619ZM16.2 1.8V5.31C15.3352 5.13363 14.5414 4.70684 13.9173 4.08274C13.2932 3.45865 12.8664 2.6648 12.69 1.8H16.2Z" fill="#444444"/>
</svg>
