<svg width="22" height="22" viewBox="0 0 22 22" fill="none" xmlns="http://www.w3.org/2000/svg">
<path d="M21.4762 5.2381H18.5079C18.2111 5.2381 17.9841 5.46508 17.9841 5.7619C17.9841 6.05873 18.2111 6.28571 18.5079 6.28571H20.9524V20.9524H3.16032C1.99048 20.9524 1.04762 20.0095 1.04762 18.8397C1.04762 17.6873 1.99048 16.7444 3.1254 16.727L14.9286 16.7619C15.3651 16.7619 15.7143 17.1111 15.7143 17.5476C15.7143 17.9841 15.3651 18.3333 14.9286 18.3333H3.14286C2.84603 18.3333 2.61905 18.5603 2.61905 18.8571C2.61905 19.154 2.84603 19.381 3.14286 19.381H14.9286C15.9413 19.381 16.7619 18.5603 16.7619 17.5476C16.7619 17.5302 16.7619 17.5127 16.7619 17.4952C16.7619 17.4778 16.7619 17.4778 16.7619 17.4603V1.83333C16.7619 0.820635 15.9413 0 14.9286 0H3.14286C1.41429 0 0 1.41429 0 3.14286V18.8571V18.8746C0.0174603 20.6032 1.43175 22 3.16032 22H21.4762C21.773 22 22 21.773 22 21.4762V5.7619C22 5.46508 21.773 5.2381 21.4762 5.2381ZM1.04762 3.14286C1.04762 1.99048 1.99048 1.04762 3.14286 1.04762H14.9286C15.3651 1.04762 15.7143 1.39683 15.7143 1.83333V15.8889C15.4698 15.7667 15.2079 15.7143 14.9286 15.7143L3.10794 15.6794C2.32222 15.6968 1.58889 15.9937 1.04762 16.5V3.14286Z" fill="black"/>
</svg>
