<svg width="20" height="20" viewBox="0 0 20 20" fill="none" xmlns="http://www.w3.org/2000/svg">
<path d="M15 0H12.62L12.33 0.46C12.0821 0.85245 11.7389 1.17576 11.3324 1.39982C10.9258 1.62387 10.4692 1.74137 10.005 1.74137C9.54081 1.74137 9.08418 1.62387 8.67764 1.39982C8.2711 1.17576 7.9279 0.85245 7.68 0.46L7.38 0H5C3.67392 0 2.40215 0.526784 1.46447 1.46447C0.526784 2.40215 0 3.67392 0 5V10H4V20H16V10H20V5C20 3.67392 19.4732 2.40215 18.5355 1.46447C17.5979 0.526784 16.3261 0 15 0ZM18 8H16V5H14V18H6V5H4V8H2V5C2 4.20435 2.31607 3.44129 2.87868 2.87868C3.44129 2.31607 4.20435 2 5 2H6.32C6.76547 2.54583 7.32678 2.98573 7.96326 3.28783C8.59975 3.58993 9.29546 3.74665 10 3.74665C10.7045 3.74665 11.4003 3.58993 12.0367 3.28783C12.6732 2.98573 13.2345 2.54583 13.68 2H15C15.7956 2 16.5587 2.31607 17.1213 2.87868C17.6839 3.44129 18 4.20435 18 5V8Z" fill="#444444"/>
<path d="M9.115 9.345C9.265 9.315 9.40833 9.29333 9.545 9.28C9.685 9.26667 9.82 9.26 9.95 9.26C10.33 9.26 10.665 9.31833 10.955 9.435C11.2483 9.54833 11.4933 9.705 11.69 9.905C11.89 10.105 12.04 10.34 12.14 10.61C12.24 10.88 12.29 11.17 12.29 11.48C12.29 11.8667 12.2217 12.22 12.085 12.54C11.9483 12.8567 11.7583 13.13 11.515 13.36C11.275 13.5867 10.9867 13.7633 10.65 13.89C10.3167 14.0167 9.95167 14.08 9.555 14.08C9.325 14.08 9.105 14.055 8.895 14.005C8.685 13.9583 8.48833 13.895 8.305 13.815C8.125 13.7317 7.95667 13.6367 7.8 13.53C7.64333 13.4233 7.50333 13.3117 7.38 13.195L7.805 12.615C7.895 12.4917 8.01167 12.43 8.155 12.43C8.245 12.43 8.33333 12.4567 8.42 12.51C8.50667 12.5633 8.605 12.6233 8.715 12.69C8.825 12.7533 8.95333 12.8117 9.1 12.865C9.24667 12.9183 9.425 12.945 9.635 12.945C9.85167 12.945 10.04 12.91 10.2 12.84C10.36 12.7667 10.4917 12.6683 10.595 12.545C10.7017 12.4183 10.78 12.27 10.83 12.1C10.8833 11.9267 10.91 11.7417 10.91 11.545C10.91 11.1683 10.8017 10.8783 10.585 10.675C10.3717 10.4683 10.06 10.365 9.65 10.365C9.31333 10.365 8.975 10.4283 8.635 10.555L7.78 10.315L8.39 6.745H12.03V7.325C12.03 7.42167 12.015 7.51 11.985 7.59C11.9583 7.66667 11.9117 7.735 11.845 7.795C11.7817 7.85167 11.6983 7.89667 11.595 7.93C11.495 7.96 11.3717 7.975 11.225 7.975H9.35L9.115 9.345Z" fill="#444444"/>
</svg>
