<svg width="14" height="14" viewBox="0 0 14 14" fill="none" xmlns="http://www.w3.org/2000/svg">
<path d="M3.86255 13.024H2.03135C1.70757 13.024 1.39706 12.8974 1.16811 12.6721C0.939166 12.4468 0.810547 12.1412 0.810547 11.8226V7.61758C0.810547 7.29894 0.939166 6.99336 1.16811 6.76805C1.39706 6.54274 1.70757 6.41616 2.03135 6.41616H3.86255M8.13534 5.21474V2.8119C8.13534 2.33394 7.94242 1.87556 7.599 1.5376C7.25558 1.19963 6.78981 1.00977 6.30415 1.00977L3.86255 6.41616V13.024H10.7479C11.0423 13.0272 11.328 12.9257 11.5523 12.738C11.7766 12.5504 11.9245 12.2892 11.9687 12.0028L12.811 6.59637C12.8376 6.42418 12.8258 6.24837 12.7764 6.08111C12.7271 5.91386 12.6414 5.75916 12.5253 5.62774C12.4091 5.49631 12.2654 5.39131 12.1039 5.31999C11.9424 5.24868 11.7672 5.21277 11.5902 5.21474H8.13534Z" stroke="#4C4A41" stroke-width="1.4" stroke-linecap="round" stroke-linejoin="round"/>
</svg>
