<svg width="15" height="21" viewBox="0 0 15 21" fill="none" xmlns="http://www.w3.org/2000/svg">
<path d="M5.24954 20.24C5.93821 20.2418 6.62046 20.1076 7.25713 19.845C7.89379 19.5824 8.47233 19.1967 8.95954 18.71L14.2495 13.41V0H4.24954V8.59L1.53954 11.29C0.804785 12.0229 0.304188 12.9574 0.101211 13.9751C-0.101767 14.9928 0.002018 16.0479 0.399407 17.0066C0.796796 17.9652 1.46989 18.7843 2.33336 19.3599C3.19683 19.9356 4.21178 20.2419 5.24954 20.24ZM12.2495 2V4H6.24954V2H12.2495ZM2.95954 12.71L6.24954 9.41V6H12.2495V12.59L7.53954 17.3C6.93087 17.9087 6.10533 18.2506 5.24454 18.2506C4.38375 18.2506 3.55821 17.9087 2.94954 17.3C2.34087 16.6913 1.99892 15.8658 1.99892 15.005C1.99892 14.1442 2.34087 13.3187 2.94954 12.71H2.95954Z" fill="#444444"/>
</svg>
