<svg width="19" height="22" viewBox="0 0 19 22" fill="none" xmlns="http://www.w3.org/2000/svg">
<path d="M16.1606 7.91254H16.1608L16.1605 7.90828C15.821 3.94132 12.5538 0.95 8.56586 0.95C4.36534 0.95 0.95 4.36552 0.95 8.58693C0.95 11.0246 2.07287 13.4615 3.97982 15.0727C4.0228 15.1157 4.09015 15.1862 4.09015 15.2887V19.2929C4.09015 19.9286 4.5723 20.4787 5.21101 20.523C5.21118 20.523 5.21135 20.523 5.21152 20.523L11.238 21.0498L11.238 21.05H11.2424H11.2426H11.2429H11.2431H11.2433H11.2436H11.2438H11.2441H11.2443H11.2446H11.2448H11.245H11.2453H11.2455H11.2458H11.246H11.2463H11.2465H11.2467H11.247H11.2472H11.2474H11.2477H11.2479H11.2482H11.2484H11.2486H11.2489H11.2491H11.2493H11.2496H11.2498H11.25H11.2503H11.2505H11.2507H11.251H11.2512H11.2514H11.2516H11.2519H11.2521H11.2523H11.2526H11.2528H11.253H11.2532H11.2535H11.2537H11.2539H11.2541H11.2544H11.2546H11.2548H11.255H11.2553H11.2555H11.2557H11.2559H11.2562H11.2564H11.2566H11.2568H11.257H11.2573H11.2575H11.2577H11.2579H11.2581H11.2584H11.2586H11.2588H11.259H11.2592H11.2594H11.2597H11.2599H11.2601H11.2603H11.2605H11.2607H11.2609H11.2612H11.2614H11.2616H11.2618H11.262H11.2622H11.2624H11.2627H11.2629H11.2631H11.2633H11.2635H11.2637H11.2639H11.2641H11.2643H11.2645H11.2648H11.265H11.2652H11.2654H11.2656H11.2658H11.266H11.2662H11.2664H11.2666H11.2668H11.267H11.2672H11.2674H11.2676H11.2678H11.268H11.2683H11.2685H11.2687H11.2689H11.2691H11.2693H11.2695H11.2697H11.2699H11.2701H11.2703H11.2705H11.2707H11.2709H11.2711H11.2713H11.2715H11.2717H11.2719H11.2721H11.2723H11.2725H11.2727H11.2729H11.2731H11.2733H11.2735H11.2737H11.2739H11.2741H11.2743H11.2745H11.2746H11.2748H11.275H11.2752H11.2754H11.2756H11.2758H11.276H11.2762H11.2764H11.2766H11.2768H11.277H11.2772H11.2774H11.2776H11.2778H11.278H11.2781H11.2783H11.2785H11.2787H11.2789H11.2791H11.2793H11.2795H11.2797H11.2799H11.2801H11.2803H11.2804H11.2806H11.2808H11.281H11.2812H11.2814H11.2816H11.2818H11.282H11.2822H11.2824H11.2825H11.2827H11.2829H11.2831H11.2833H11.2835H11.2837H11.2839H11.2841H11.2842H11.2844H11.2846H11.2848H11.285H11.2852H11.2854H11.2856H11.2857H11.2859H11.2861H11.2863H11.2865H11.2867H11.2869H11.2871H11.2872H11.2874H11.2876H11.2878H11.288H11.2882H11.2884H11.2886H11.2887H11.2889H11.2891H11.2893H11.2895H11.2897H11.2899H11.29H11.2902H11.2904H11.2906H11.2908H11.291H11.2912H11.2913H11.2915H11.2917H11.2919H11.2921H11.2923H11.2925H11.2926H11.2928H11.293H11.2932H11.2934H11.2936H11.2937H11.2939H11.2941H11.2943H11.2945H11.2947H11.2949H11.295H11.2952H11.2954H11.2956H11.2958H11.296H11.2962H11.2963H11.2965H11.2967H11.2969H11.2971H11.2973H11.2975H11.2976H11.2978H11.298H11.2982H11.2984H11.2986H11.2988H11.2989H11.2991H11.2993H11.2995H11.2997H11.2999H11.3001H11.3002H11.3004H11.3006H11.3008H11.301H11.3012H11.3014H11.3015H11.3017H11.3019H11.3021H11.3023H11.3025H11.3027H11.3028H11.303H11.3032H11.3034H11.3036H11.3038H11.304H11.3042H11.3043H11.3045H11.3047H11.3049H11.3051H11.3053H11.3055H11.3057H11.3059H11.306H11.3062H11.3064H11.3066H11.3068H11.307H11.3072H11.3074H11.3076H11.3077H11.3079H11.3081H11.3083H11.3085H11.3087H11.3089H11.3091H11.3093H11.3095H11.3096H11.3098H11.31H11.3102H11.3104H11.3106H11.3108H11.311H11.3112H11.3114H11.3116H11.3118H11.3119H11.3121H11.3123H11.3125H11.3127H11.3129H11.3131H11.3133H11.3135H11.3137H11.3139H11.3141H11.3143H11.3145H11.3147H11.3149H11.3151H11.3153H11.3154H11.3156H11.3158H11.316H11.3162H11.3164H11.3166H11.3168H11.317H11.3172H11.3174H11.3176H11.3178H11.318H11.3182H11.3184H11.3186H11.3188H11.319H11.3192H11.3194H11.3196H11.3198H11.32H11.3202H11.3204H11.3206H11.3208H11.321H11.3212H11.3214H11.3216H11.3218H11.322H11.3222H11.3225H11.3227H11.3229H11.3231H11.3233H11.3235H11.3237H11.3239H11.3241H11.3243H11.3245H11.3247H11.3249H11.3251H11.3253H11.3256H11.3258H11.326H11.3262H11.3264H11.3266H11.3268H11.327H11.3272H11.3274H11.3277H11.3279H11.3281H11.3283H11.3285H11.3287H11.3289H11.3291H11.3294H11.3296H11.3298H11.33H11.3302H11.3304H11.3307H11.3309H11.3311H11.3313H11.3315H11.3317H11.332H11.3322H11.3324H11.3326H11.3328H11.3331H11.3333H11.3335H11.3337H11.3339H11.3342H11.3344H11.3346H11.3348H11.3351H11.3353H11.3355H11.3357H11.3359H11.3362H11.3364H11.3366H11.3369H11.3371H11.3373H11.3375H11.3378H11.338H11.3382H11.3384H11.3387H11.3389H11.3391H11.3394H11.3396H11.3398H11.3401H11.3403H11.3405H11.3408H11.341H11.3412H11.3415H11.3417H11.3419H11.3422H11.3424H11.3427H11.3429H11.3431H11.3434H11.3436H11.3438H11.3441H11.3443H11.3446H11.3448H11.345H11.3453H11.3455H11.3458H11.346H11.3463H11.3465H11.3467H11.347H11.3472H11.3475H11.3477C11.6538 21.05 11.9618 20.9409 12.1832 20.72C12.4448 20.4798 12.599 20.1511 12.599 19.8198V17.2776H14.4247H14.4457H15.4995C16.4293 17.2776 17.2294 16.6288 17.424 15.7207L18.2249 11.9905L18.2249 11.9905L18.2252 11.9887C18.2904 11.6195 18.2256 11.2057 18.007 10.8776C18.0069 10.8775 18.0069 10.8775 18.0068 10.8774L16.2384 8.18263C16.1976 8.1006 16.1606 8.0049 16.1606 7.91254ZM15.2048 8.84626L16.3283 10.5515L12.2582 10.202L12.2575 10.202C11.9635 10.181 11.6675 10.241 11.4292 10.3845L2.70785 6.11791C3.65939 3.81995 5.92684 2.20911 8.58693 2.20911C11.9119 2.20911 14.651 4.71819 14.9438 8.02206C14.9656 8.30443 15.0526 8.56399 15.2026 8.84246L15.2024 8.84255L15.2048 8.84626ZM11.9456 11.6253L11.9457 11.6253V11.6217C11.9457 11.5605 11.9929 11.5109 12.0153 11.4885C12.0214 11.4824 12.0379 11.4695 12.0603 11.4583C12.0826 11.4472 12.1064 11.4399 12.1275 11.4399H12.1464L16.9562 11.8563L16.1884 15.4669C16.1884 15.4671 16.1883 15.4673 16.1883 15.4675C16.109 15.8035 15.8127 16.0396 15.4784 16.0396H11.6485L11.6307 16.0128L11.9456 11.6253ZM2.20911 8.58693C2.20911 8.14838 2.24708 7.73008 2.34057 7.33153L10.725 11.4403C10.7238 11.4461 10.7224 11.4526 10.7207 11.46L10.7194 11.466C10.714 11.4901 10.7078 11.5202 10.7076 11.5567L10.5007 14.6408L4.33301 13.6824C2.99975 12.3012 2.20911 10.4014 2.20911 8.58693ZM5.34926 19.2474V15.2887C5.34926 15.2438 5.34374 15.1941 5.3386 15.1479L5.33842 15.1462C5.3356 15.1209 5.33292 15.0966 5.33101 15.0735L10.3915 15.8584V15.9405C10.3701 16.29 10.4797 16.6189 10.7205 16.8818C10.8873 17.0692 11.1128 17.1974 11.36 17.2479L11.299 19.8072L5.34926 19.2474Z" fill="#444444" stroke="#444444" stroke-width="0.1"/>
<path d="M12.4843 8.7763C12.9848 8.7763 13.3906 8.37057 13.3906 7.87008C13.3906 7.36959 12.9848 6.96387 12.4843 6.96387C11.9839 6.96387 11.5781 7.36959 11.5781 7.87008C11.5781 8.37057 11.9839 8.7763 12.4843 8.7763Z" fill="#444444"/>
</svg>
