<svg width="18" height="17" viewBox="0 0 18 17" fill="none" xmlns="http://www.w3.org/2000/svg">
<path fill-rule="evenodd" clip-rule="evenodd" d="M-1.26555e-07 13.7981L-5.69496e-07 3.6648C-6.52579e-07 1.76408 2.91261 0.76957 5.79047 0.76957L13.7375 0.76957L13.7375 2.21719L10.8846 2.21719C11.3204 2.6189 11.5809 3.10096 11.5809 3.6648L11.5809 12.3505L13.7375 12.3505L13.7375 13.7981L11.5809 13.7981C11.5809 15.6988 8.66833 16.6934 5.79047 16.6934C2.91261 16.6934 -4.34715e-08 15.6988 -1.26555e-07 13.7981ZM5.79047 4.75052C6.83637 4.75052 7.96189 4.41033 7.96189 3.6648C7.96189 2.91928 6.83637 2.57909 5.79047 2.57909C4.74456 2.57909 3.61904 2.91928 3.61904 3.6648C3.61904 4.41033 4.74456 4.75052 5.79047 4.75052ZM1.44762 13.7981C1.44762 14.3084 3.09645 15.2457 5.79047 15.2457C8.48448 15.2457 10.1333 14.3084 10.1333 13.7981L10.1333 5.64225C9.01793 6.2488 7.3995 6.56004 5.79047 6.56004C4.18144 6.56004 2.56301 6.2488 1.44762 5.64225L1.44762 13.7981Z" fill="#008CC9"/>
<rect x="13.7373" y="13.7959" width="1.4438" height="2.81884" transform="rotate(-90 13.7373 13.7959)" fill="#008CC9"/>
<rect x="13.7373" y="2.22266" width="1.4438" height="2.81884" transform="rotate(-90 13.7373 2.22266)" fill="#008CC9"/>
<rect x="16.5566" y="0.779297" width="1.4438" height="13.0171" fill="#008CC9"/>
</svg>
