<svg width="18" height="18" viewBox="0 0 18 18" fill="none" xmlns="http://www.w3.org/2000/svg">
<path d="M0.993042 17.8926H8.0159L8.80318 10.0109C8.81271 9.967 8.83699 9.92766 8.87198 9.89944C8.90698 9.87123 8.95058 9.85584 8.99553 9.85584C9.04048 9.85584 9.08408 9.87123 9.11907 9.89944C9.15406 9.92766 9.17834 9.967 9.18787 10.0109L9.97515 17.8926H16.998L18 0H0L0.993042 17.8926ZM11.5944 16.1034L10.9682 9.84095C10.9215 9.35134 10.6939 8.89672 10.33 8.56586C9.96603 8.23501 9.49185 8.05169 9 8.05169C8.50816 8.05169 8.03397 8.23501 7.67003 8.56586C7.3061 8.89672 7.07855 9.35134 7.03181 9.84095L6.40557 16.1034H2.69284L2.09344 5.36779H15.9066L15.3072 16.1034H11.5944ZM16.0676 1.78926L15.9692 3.57853H1.99503L1.89662 1.78926H16.0676Z" fill="#444444"/>
</svg>
