<svg width="20" height="17" viewBox="0 0 20 17" fill="none" xmlns="http://www.w3.org/2000/svg">
<path d="M10 16.0077C13.71 16.0077 20 15.2677 20 12.5077C20 11.2677 18.73 10.4377 17 9.89773V2.81773C16.9928 2.18022 16.772 1.56354 16.373 1.06629C15.974 0.569042 15.4197 0.219947 14.7989 0.074821C14.1781 -0.0703046 13.5266 -0.00307861 12.9485 0.26575C12.3704 0.534578 11.8991 0.989484 11.61 1.55773C11.5417 1.6928 11.4374 1.80634 11.3085 1.88576C11.1797 1.96519 11.0314 2.0074 10.88 2.00773H9.12C8.96864 2.0074 8.82033 1.96519 8.69149 1.88576C8.56264 1.80634 8.45829 1.6928 8.39 1.55773C8.10092 0.989484 7.62964 0.534578 7.05154 0.26575C6.47344 -0.00307861 5.82189 -0.0703046 5.20107 0.074821C4.58026 0.219947 4.02603 0.569042 3.62701 1.06629C3.22799 1.56354 3.00722 2.18022 3 2.81773V9.89773C1.27 10.4377 0 11.2677 0 12.5077C0 15.2677 6.29 16.0077 10 16.0077ZM5 2.81773C5.00249 2.70609 5.02748 2.59609 5.07347 2.49434C5.11947 2.39258 5.18552 2.30115 5.26769 2.22552C5.34985 2.1499 5.44643 2.09163 5.55164 2.0542C5.65685 2.01678 5.76854 2.00097 5.88 2.00773C6.03136 2.00806 6.17967 2.05027 6.30851 2.1297C6.43736 2.20912 6.5417 2.32265 6.61 2.45773C6.84359 2.92336 7.20201 3.31489 7.64524 3.5886C8.08847 3.86231 8.59907 4.00742 9.12 4.00773C9.64093 4.00804 10.88 4.00773 10.88 4.00773C11.4009 4.00742 11.9115 3.86231 12.3548 3.5886C12.798 3.31489 13.1564 2.92336 13.39 2.45773C13.4663 2.31402 13.5822 2.19523 13.724 2.11546C13.8658 2.03569 14.0276 1.9983 14.19 2.00773C14.2964 2.00773 14.4017 2.02868 14.5 2.06939C14.5982 2.11009 14.6875 2.16976 14.7628 2.24497C14.838 2.32019 14.8976 2.40948 14.9383 2.50775C14.979 2.60603 15 2.71136 15 2.81773V9.42773C11.6899 8.87164 8.31014 8.87164 5 9.42773V2.81773ZM10 11.0077C14.75 11.0077 17.4 12.0077 17.94 12.5077C17.4 13.0077 14.75 14.0077 10 14.0077C5.25 14.0077 2.6 13.0077 2.06 12.5077C2.6 12.0077 5.25 11.0077 10 11.0077Z" fill="#444444"/>
</svg>
