<svg width="44" height="44" viewBox="0 0 44 44" fill="none" xmlns="http://www.w3.org/2000/svg">
<path d="M31.1667 17.9981V14.666C31.1667 11.6273 28.7054 9.16602 25.6667 9.16602H5.5C2.46125 9.16602 0 11.6273 0 14.666V29.3327C0 32.3714 2.46125 34.8327 5.5 34.8327H25.6667C28.7054 34.8327 31.1667 32.3714 31.1667 29.3327V26.0831L44 33.2285V10.9993L31.1667 17.9981ZM27.5 29.3327C27.5 30.3456 26.6796 31.166 25.6667 31.166H5.5C4.48708 31.166 3.66667 30.3456 3.66667 29.3327V14.666C3.66667 13.6531 4.48708 12.8327 5.5 12.8327H25.6667C26.6796 12.8327 27.5 13.6531 27.5 14.666V29.3327ZM40.3333 26.9911L31.4279 22.0319L40.3333 17.1781V26.9911Z" fill="#008CC9"/>
</svg>
