<svg width="17" height="11" viewBox="0 0 17 11" fill="none" xmlns="http://www.w3.org/2000/svg">
<path opacity="0.7" d="M16.2983 6.53382L15.2901 6.88082L14.4146 1.96862L16.6644 1.04691C16.7292 1.02056 16.7883 0.981433 16.8383 0.931754C16.8883 0.882075 16.9283 0.822819 16.9558 0.757368C16.9834 0.691917 16.9981 0.621554 16.9991 0.550296C17.0001 0.479039 16.9873 0.408281 16.9616 0.342065C16.9358 0.275848 16.8975 0.215468 16.8489 0.164374C16.8002 0.113279 16.7423 0.0724692 16.6782 0.0442751C16.6141 0.016081 16.5453 0.00105465 16.4755 5.35504e-05C16.4058 -0.000947545 16.3366 0.0120964 16.2718 0.0384407L13.6187 1.12281C13.503 1.16761 13.4064 1.25226 13.3453 1.36215C13.2843 1.47203 13.2627 1.60024 13.2844 1.72464V1.82223L12.0162 2.46743C11.9281 2.5131 11.8293 2.53273 11.7308 2.52411C11.6324 2.51549 11.5383 2.47896 11.4591 2.41864L10.1696 1.41017C9.89411 1.19901 9.55897 1.08486 9.21454 1.08486H7.77656C7.58114 1.08496 7.38954 1.14019 7.22288 1.24447C7.05622 1.34875 6.92098 1.49803 6.83206 1.67584L5.88226 1.62704C5.79025 1.62306 5.69882 1.64362 5.61695 1.68668L4.73082 2.1367L3.20264 1.74633V1.67584C3.21392 1.56584 3.19201 1.45494 3.13985 1.35803C3.08768 1.26112 3.00776 1.18282 2.9108 1.13366L0.788326 0.0492844C0.664643 -0.00334272 0.526054 -0.00621358 0.400385 0.0412484C0.274715 0.0887104 0.171269 0.182991 0.110815 0.305162C0.0503614 0.427333 0.0373754 0.568349 0.0744644 0.699899C0.111553 0.831448 0.195972 0.943792 0.31077 1.01437L2.10956 1.93609L1.67446 6.84829L0.719346 6.52298C0.65071 6.5002 0.578353 6.49145 0.506408 6.49724C0.434463 6.50303 0.364338 6.52324 0.300038 6.55672C0.235737 6.5902 0.17852 6.63629 0.131653 6.69237C0.0847866 6.74844 0.0491878 6.8134 0.0268897 6.88353C0.00459153 6.95367 -0.00396932 7.0276 0.00169593 7.10111C0.00736117 7.17463 0.0271416 7.24628 0.0599077 7.31198C0.0926739 7.37769 0.137784 7.43615 0.192663 7.48404C0.247542 7.53193 0.311114 7.5683 0.379751 7.59109L1.9716 8.13327C2.02795 8.14108 2.08506 8.14108 2.1414 8.13327C2.24447 8.1312 2.34517 8.10127 2.43324 8.04652C2.50059 8.00166 2.55708 7.94174 2.59845 7.87129C2.63981 7.80085 2.66497 7.72172 2.67202 7.63988L2.71447 7.13565L3.39897 7.48265C3.46246 7.88507 3.66826 8.24969 3.97734 8.50738L7.039 10.752C7.14784 10.8438 7.27349 10.9125 7.4086 10.954C7.54372 10.9955 7.68558 11.0091 7.8259 10.994C7.96622 10.9789 8.10218 10.9353 8.22582 10.8658C8.34945 10.7963 8.45829 10.7023 8.54596 10.5894C8.7479 10.6678 8.9637 10.702 9.17941 10.6899C9.39511 10.6778 9.60593 10.6195 9.79822 10.5189L12.6689 9.05499C12.8421 8.96556 12.9921 8.83537 13.1065 8.67513C13.2209 8.51488 13.2964 8.32917 13.3268 8.13327C13.3321 8.07557 13.3321 8.01748 13.3268 7.95977L14.335 7.6182V7.68326C14.3484 7.75933 14.3777 7.83158 14.4207 7.89516C14.4637 7.95875 14.5195 8.01221 14.5844 8.05194C14.6719 8.10741 14.7733 8.13567 14.8762 8.13327C14.9338 8.13218 14.9909 8.12306 15.046 8.10616L16.6379 7.56398C16.7041 7.54119 16.7652 7.50531 16.8179 7.45837C16.8705 7.41144 16.9136 7.35437 16.9446 7.29043C16.9756 7.22649 16.994 7.15693 16.9988 7.08572C17.0035 7.01451 16.9945 6.94304 16.9722 6.8754C16.9499 6.80776 16.9148 6.74527 16.8688 6.6915C16.8229 6.63772 16.767 6.59372 16.7045 6.562C16.6419 6.53029 16.5738 6.51147 16.5041 6.50664C16.4344 6.5018 16.3645 6.51104 16.2983 6.53382ZM4.62469 7.65073C4.54078 7.57934 4.48047 7.48324 4.45198 7.37553C4.42349 7.26783 4.42822 7.15376 4.46551 7.0489C4.47083 7.03008 4.48104 7.01309 4.49505 6.99972C4.50907 6.98636 4.52636 6.97712 4.5451 6.973C4.57694 6.973 4.61939 6.973 4.68306 7.01637L7.8933 9.38572L7.7182 9.92791L4.62469 7.65073ZM12.1913 8.08448L9.32066 9.54838C9.19572 9.61321 9.05075 9.6249 8.91739 9.58091C8.95159 9.38831 8.93413 9.18985 8.86687 9.00657C8.79961 8.8233 8.68505 8.66204 8.53535 8.53991L5.35164 6.17056C5.20069 6.04784 5.02256 5.96487 4.8329 5.92895C4.64323 5.89302 4.44784 5.90524 4.26387 5.96453C4.01065 6.03938 3.78986 6.19998 3.63774 6.41997L2.9161 6.05128C2.88582 6.03729 2.8536 6.02814 2.82059 6.02417L3.10182 2.86323L4.69367 3.26445L4.79449 3.2536C4.87755 3.25309 4.95934 3.23266 5.03327 3.19396L5.96716 2.71142H6.31206L5.91409 3.53012C5.85116 3.65816 5.84039 3.80646 5.88413 3.9426C5.92788 4.07874 6.02259 4.19165 6.14757 4.25665L6.259 4.31629C6.60443 4.49339 7.00112 4.53604 7.37506 4.43628C7.74901 4.33652 8.07466 4.10115 8.29126 3.7741H8.82188L12.2072 7.72663C12.2212 7.7549 12.2371 7.78209 12.255 7.80796C12.2732 7.82468 12.2867 7.84604 12.2942 7.86986C12.3016 7.89368 12.3028 7.9191 12.2974 7.94351C12.2998 7.97184 12.294 8.00025 12.2808 8.02529C12.2676 8.05032 12.2476 8.07089 12.2231 8.08448H12.1913ZM12.9129 6.96215L9.43209 2.89576C9.38296 2.83861 9.32261 2.79265 9.25496 2.7609C9.18731 2.72914 9.11388 2.71228 9.03943 2.71142H7.9782C7.88021 2.71172 7.78422 2.73974 7.70086 2.79238C7.61751 2.84501 7.55004 2.9202 7.50595 3.00962L7.44758 3.12348C7.39133 3.23774 7.29735 3.328 7.18227 3.3783L7.77656 2.16923H9.21454C9.32935 2.16923 9.44106 2.20728 9.53291 2.27767L10.8488 3.28613C11.0854 3.46692 11.3666 3.57687 11.6608 3.60368C11.9551 3.63049 12.2508 3.57311 12.515 3.43794L13.5072 2.93371L14.1493 6.54467L12.9129 6.96215Z" fill="black"/>
</svg>
