<svg width="17" height="18" viewBox="0 0 17 18" fill="none" xmlns="http://www.w3.org/2000/svg">
<path d="M16.2 5.4H15.3C15.0613 5.4 14.8324 5.30518 14.6636 5.1364C14.4948 4.96761 14.4 4.73869 14.4 4.5V0H9.9V3.6C9.9 4.07739 9.71036 4.53523 9.37279 4.87279C9.03523 5.21036 8.57739 5.4 8.1 5.4C7.62261 5.4 7.16477 5.21036 6.82721 4.87279C6.48964 4.53523 6.3 4.07739 6.3 3.6V0H1.8V4.5C1.8 4.73869 1.70518 4.96761 1.5364 5.1364C1.36761 5.30518 1.13869 5.4 0.9 5.4H0V18H16.2V5.4ZM14.4 16.2H1.8V7.047C2.32664 6.8608 2.78257 6.51585 3.10495 6.05968C3.42733 5.60351 3.60029 5.05859 3.6 4.5V1.8H4.5V3.6C4.5 4.55478 4.87928 5.47045 5.55442 6.14558C6.22955 6.82072 7.14522 7.2 8.1 7.2C9.05478 7.2 9.97045 6.82072 10.6456 6.14558C11.3207 5.47045 11.7 4.55478 11.7 3.6V1.8H12.6V4.5C12.5997 5.05859 12.7727 5.60351 13.0951 6.05968C13.4174 6.51585 13.8734 6.8608 14.4 7.047V16.2Z" fill="#444444"/>
</svg>
