<svg width="15" height="21" viewBox="0 0 15 21" fill="none" xmlns="http://www.w3.org/2000/svg">
<path fill-rule="evenodd" clip-rule="evenodd" d="M14.0719 6.91407C13.9278 7.84358 13.5639 8.73105 13.0069 9.5115L14.4674 15H12.6012L11.0594 9.1885L11.5033 8.5595C12.182 7.60804 12.4596 6.4538 12.2822 5.321C9.15345 6.11782 5.85488 6.11782 2.72609 5.321C2.5487 6.4538 2.82634 7.60804 3.50507 8.5595L3.94891 9.1885L2.39851 15H0.53125L1.99239 9.503C1.43678 8.72359 1.07363 7.83759 0.92946 6.90967C0.785289 5.98176 0.863729 5.03534 1.15906 4.1395V0H2.97065V3.6125C5.93 4.41118 9.06928 4.41118 12.0286 3.6125V0H13.8402V4.1395C14.137 5.03657 14.2161 5.98457 14.0719 6.91407Z" fill="#444444"/>
<rect x="1" y="19" width="13" height="2" fill="#444444"/>
<path fill-rule="evenodd" clip-rule="evenodd" d="M11.7428 21C12.5282 20.0491 13 18.8296 13 17.5C13 14.4624 10.5376 12 7.5 12C4.46243 12 2 14.4624 2 17.5C2 18.8296 2.47182 20.0491 3.25716 21H0.865047C0.312732 19.9551 0 18.7641 0 17.5C0 13.3579 3.35786 10 7.5 10C11.6421 10 15 13.3579 15 17.5C15 18.7641 14.6873 19.9551 14.135 21H11.7428Z" fill="#444444"/>
</svg>
