<svg width="15" height="17" viewBox="0 0 15 17" fill="none" xmlns="http://www.w3.org/2000/svg">
<path d="M13.0072 9.5115C13.5642 8.73105 13.9281 7.84358 14.0723 6.91407C14.2165 5.98457 14.1373 5.03657 13.8406 4.1395V0H12.029V3.6125C9.06964 4.41118 5.93036 4.41118 2.97101 3.6125V0H1.15942V4.1395C0.864093 5.03534 0.785652 5.98176 0.929824 6.90967C1.07399 7.83759 1.43714 8.72359 1.99275 9.503L0 17H15L13.0072 9.5115ZM2.31884 15.3L3.94927 9.1885L3.50543 8.5595C2.82671 7.60804 2.54907 6.4538 2.72645 5.321C5.85525 6.11782 9.15381 6.11782 12.2826 5.321C12.46 6.4538 12.1824 7.60804 11.5036 8.5595L11.0598 9.1885L12.6812 15.3H2.31884Z" fill="#444444"/>
</svg>
