<svg width="17" height="20" viewBox="0 0 17 20" fill="none" xmlns="http://www.w3.org/2000/svg">
<path fill-rule="evenodd" clip-rule="evenodd" d="M1.66667 0V4.07928C1.15791 4.44704 0.742227 4.92871 0.452836 5.48579C0.163444 6.04286 0.00836851 6.65991 0 7.28761C0.0582953 8.44684 0.573128 9.53585 1.43197 10.3166C2.29081 11.0974 3.42381 11.5064 4.58333 11.4543C5.30225 11.4632 6.01372 11.308 6.66357 11.0004C7.31342 10.6928 7.88451 10.241 8.33333 9.67928C8.78216 10.241 9.35324 10.6928 10.0031 11.0004C10.6529 11.308 11.3644 11.4632 12.0833 11.4543C13.2429 11.5064 14.3759 11.0974 15.2347 10.3166C16.0935 9.53585 16.6084 8.44684 16.6667 7.28761C16.6583 6.65991 16.5032 6.04286 16.2138 5.48579C15.9244 4.92871 15.5088 4.44704 15 4.07928V0H13.3333V3.27928C12.925 3.174 12.505 3.1208 12.0833 3.12095C11.3644 3.11201 10.6529 3.26724 10.0031 3.57484C9.35324 3.88244 8.78216 4.33427 8.33333 4.89595C7.88451 4.33427 7.31342 3.88244 6.66357 3.57484C6.01372 3.26724 5.30225 3.11201 4.58333 3.12095C4.16166 3.1208 3.74166 3.174 3.33333 3.27928V0H1.66667ZM2.61177 9.13638C3.15771 9.60434 3.86607 9.83832 4.58333 9.78761C5.3006 9.83832 6.00895 9.60434 6.5549 9.13638C7.10085 8.66843 7.44041 8.00419 7.5 7.28761C7.44041 6.57103 7.10085 5.9068 6.5549 5.43884C6.00895 4.97089 5.3006 4.73691 4.58333 4.78761C3.86607 4.73691 3.15771 4.97089 2.61177 5.43884C2.06582 5.9068 1.72626 6.57103 1.66667 7.28761C1.72626 8.00419 2.06582 8.66843 2.61177 9.13638ZM10.1118 9.13638C10.6577 9.60434 11.3661 9.83832 12.0833 9.78761C12.8006 9.83832 13.509 9.60434 14.0549 9.13638C14.6008 8.66843 14.9404 8.00419 15 7.28761C14.9404 6.57103 14.6008 5.9068 14.0549 5.43884C13.509 4.97089 12.8006 4.73691 12.0833 4.78761C11.3661 4.73691 10.6577 4.97089 10.1118 5.43884C9.56582 5.9068 9.22626 6.57103 9.16667 7.28761C9.22626 8.00419 9.56582 8.66843 10.1118 9.13638Z" fill="#444444"/>
<path d="M14.884 14C12.7956 14.4151 10.2818 14.6792 8.03867 14.6792C5.79558 14.6792 3.28177 14.4528 1.19337 14L1 15.0943C4.75138 16.0377 6.45304 17.6981 7.1105 19.8868C7.14917 20 7.18784 20 7.30387 20H8.69613C8.81216 20 8.85083 19.9623 8.8895 19.8868C9.54696 17.6981 11.2486 16.0377 15 15.0943L14.884 14Z" fill="#444444"/>
</svg>
