<svg width="17" height="20" viewBox="0 0 17 20" fill="none" xmlns="http://www.w3.org/2000/svg">
<path d="M7.09 19.3238L8 17.8938L8.91 19.3138L9.26 19.8538L16.01 18.8538V2.49378L15.56 2.19378C13.3802 0.591212 10.6974 -0.175303 8 0.0337808C5.30471 -0.169994 2.62576 0.599983 0.45 2.20378L0 2.49378V18.8938L6.75 19.8938L7.09 19.3238ZM14 12.0338H11V14.0338H14V17.1638L10.25 17.7038L9 15.7038V6.31378L11.37 2.31378C12.3035 2.60301 13.1896 3.02752 14 3.57378V12.0338ZM9.22 2.03378L8 4.09378L6.78 2.03378H8H9.22ZM2 14.0338H5V12.0338H2V3.57378C2.81275 3.04152 3.69872 2.63053 4.63 2.35378L7 6.35378V15.7838L5.75 17.7838L2 17.1638V14.0338Z" fill="#444444"/>
</svg>
