<svg width="18" height="18" viewBox="0 0 18 18" fill="none" xmlns="http://www.w3.org/2000/svg">
<path d="M10.512 1.94023C10.4088 2.25481 10.2063 2.52916 9.93377 2.7238C9.66125 2.91843 9.33272 3.0233 8.9955 3.0233C8.65828 3.0233 8.32975 2.91843 8.05723 2.7238C7.78471 2.52916 7.58225 2.25481 7.479 1.94023L6.822 0L0 3.34248V9.18079H2.7V18H15.3V9.18079H18V3.34248L11.178 0L10.512 1.94023ZM12.222 2.49584L16.2 4.43606V7.41695H13.5V16.2362H4.5V7.41695H1.8V4.43606L5.778 2.48702C6.00175 3.15125 6.43359 3.72941 7.01206 4.13923C7.59054 4.54905 8.28618 4.76966 9 4.76966C9.71382 4.76966 10.4095 4.54905 10.9879 4.13923C11.5664 3.72941 11.9982 3.15125 12.222 2.48702V2.49584Z" fill="#444444"/>
</svg>
