<svg width="14" height="24" viewBox="0 0 14 24" fill="none" xmlns="http://www.w3.org/2000/svg">
<path d="M0.2336 19L6.99299 24L13.733 19L13.343 15C12.8889 12.8074 13.0234 10.5337 13.733 8.41C13.9882 7.73744 14.0573 7.00852 13.933 6.3C13.8288 5.7282 13.6013 5.18597 13.2663 4.71104C12.9312 4.23612 12.4967 3.83991 11.993 3.55V0H9.99299V3C9.05494 2.99583 8.14528 3.32147 7.42299 3.92C7.2695 4.04921 7.12577 4.18959 6.99299 4.34C6.8602 4.18959 6.71647 4.04921 6.56298 3.92C5.8407 3.32147 4.93103 2.99583 3.99299 3V0H1.99299V3.55C1.17567 4.02409 0.552571 4.77219 0.234085 5.66175C-0.0844002 6.55131 -0.0777044 7.5249 0.252986 8.41C0.963027 10.5336 1.0976 12.8075 0.642985 15L0.2336 19ZM5.27298 5.47C5.49746 5.65696 5.67824 5.89084 5.80263 6.15517C5.92702 6.4195 5.992 6.70787 5.99299 7H7.99299C7.98785 6.70311 8.04889 6.4088 8.17167 6.13843C8.29445 5.86807 8.47589 5.62844 8.70283 5.43694C8.92976 5.24543 9.19648 5.10686 9.48364 5.03129C9.7708 4.95571 10.0712 4.94502 10.363 5C10.7711 5.07093 11.147 5.2668 11.439 5.56057C11.731 5.85434 11.9246 6.23151 11.993 6.64C12.056 6.99588 12.0215 7.36219 11.893 7.7C11.0524 10.1539 10.8798 12.7873 11.393 15.33L11.813 18L6.99299 21.5L2.17299 18L2.61299 15.33C3.12662 12.7874 2.95404 10.1538 2.11299 7.7C1.97775 7.36405 1.93628 6.99768 1.99299 6.64C2.06142 6.23151 2.25499 5.85434 2.54696 5.56057C2.83894 5.2668 3.21492 5.07093 3.62299 5C3.91566 4.95103 4.21555 4.9678 4.50094 5.04909C4.78633 5.13038 5.05005 5.27416 5.27298 5.47Z" fill="#444444"/>
</svg>
