<svg width="32" height="32" viewBox="0 0 32 32" fill="none" xmlns="http://www.w3.org/2000/svg">
<path d="M19.125 13.5057V11.4286C19.125 9.53429 17.6147 8 15.75 8H3.375C1.51031 8 0 9.53429 0 11.4286V20.5714C0 22.4657 1.51031 24 3.375 24H15.75C17.6147 24 19.125 22.4657 19.125 20.5714V18.5457L27 23V9.14286L19.125 13.5057ZM16.875 20.5714C16.875 21.2029 16.3716 21.7143 15.75 21.7143H3.375C2.75344 21.7143 2.25 21.2029 2.25 20.5714V11.4286C2.25 10.7971 2.75344 10.2857 3.375 10.2857H15.75C16.3716 10.2857 16.875 10.7971 16.875 11.4286V20.5714ZM24.75 19.1117L19.2853 16.0203L24.75 12.9946V19.1117Z" fill="#008CC9"/>
</svg>
