<svg width="16" height="17" viewBox="0 0 16 17" fill="none" xmlns="http://www.w3.org/2000/svg">
<path d="M1 16V1H4V5.5H12V1H15V16H1Z" stroke="#444444" stroke-width="1.6"/>
<path fill-rule="evenodd" clip-rule="evenodd" d="M7.99995 10.1131C7.79484 9.6087 7.264 9.27898 6.61599 9.25355C5.96783 9.22784 5.40083 9.51413 5.13761 10C4.87393 10.4857 4.99472 11.0226 5.45246 11.3993C6.7262 12.4485 7.363 12.9732 7.99995 13.5377C8.63674 12.9732 9.27401 12.4485 10.5478 11.3993C11.0052 11.0226 11.126 10.4857 10.8626 10C10.5989 9.51413 10.0324 9.22784 9.38422 9.25355C8.73574 9.27898 8.20521 9.6087 7.99995 10.1131Z" fill="#444444"/>
</svg>
