<svg width="18" height="18" viewBox="0 0 18 18" fill="none" xmlns="http://www.w3.org/2000/svg">
<rect y="5.00879" width="1.79036" height="7.9836" fill="#444444"/>
<rect x="16.209" y="5.00879" width="1.79036" height="7.9836" fill="#444444"/>
<rect x="3.99219" y="12.0117" width="1.79036" height="3.9918" transform="rotate(90 3.99219 12.0117)" fill="#444444"/>
<rect x="18" y="12.0117" width="1.79036" height="3.9918" transform="rotate(90 18 12.0117)" fill="#444444"/>
<rect x="7.98633" y="3.01172" width="2.02978" height="13.9736" fill="#444444"/>
<path fill-rule="evenodd" clip-rule="evenodd" d="M13.5 0H11.493L9 2.358L6.507 0H4.5C3.30653 0 2.16193 0.474106 1.31802 1.31802C0.474106 2.16193 0 3.30653 0 4.5V9H1.79046V6.62565H1.8V4.5C1.8 3.78392 2.08446 3.09716 2.59081 2.59081C3.09716 2.08446 3.78392 1.8 4.5 1.8H5.787L9 4.842L12.213 1.8H13.5C14.2161 1.8 14.9028 2.08446 15.4092 2.59081C15.9155 3.09716 16.2 3.78392 16.2 4.5V6.62565H16.2098V9H18V4.5C18 3.30653 17.5259 2.16193 16.682 1.31802C15.8381 0.474106 14.6935 0 13.5 0ZM14.4 9.73055H14.3998V6.62565H14.4V4.5H12.6V16.2H5.4V4.5H3.6V6.62565H3.6004V9.73055H3.6V18H14.4V9.73055Z" fill="#444444"/>
</svg>
