<svg width="17" height="21" viewBox="0 0 17 21" fill="none" xmlns="http://www.w3.org/2000/svg">
<path d="M16.283 8.64151C16.283 14.5849 8.64151 19.6792 8.64151 19.6792C8.64151 19.6792 1 14.5849 1 8.64151C1 6.61486 1.80509 4.67121 3.23815 3.23815C4.67121 1.80509 6.61486 1 8.64151 1C10.6682 1 12.6118 1.80509 14.0449 3.23815C15.4779 4.67121 16.283 6.61486 16.283 8.64151Z" stroke="#008CC9" stroke-width="1.4" stroke-linecap="round" stroke-linejoin="round"/>
<path d="M8.6419 11.1891C10.0487 11.1891 11.1891 10.0487 11.1891 8.6419C11.1891 7.23513 10.0487 6.09473 8.6419 6.09473C7.23513 6.09473 6.09473 7.23513 6.09473 8.6419C6.09473 10.0487 7.23513 11.1891 8.6419 11.1891Z" stroke="#008CC9" stroke-width="1.4" stroke-linecap="round" stroke-linejoin="round"/>
</svg>
