<svg width="22" height="16" viewBox="0 0 22 16" fill="none" xmlns="http://www.w3.org/2000/svg">
<path d="M12.848 1.72464C12.7218 2.00427 12.4744 2.24815 12.1413 2.42115C11.8082 2.59416 11.4067 2.68737 10.9945 2.68737C10.5823 2.68737 10.1808 2.59416 9.84773 2.42115C9.51464 2.24815 9.26719 2.00427 9.141 1.72464L8.338 0L0 2.97109V8.16071H3.3V16H18.7V8.16071H22V2.97109L13.662 0L12.848 1.72464ZM14.938 2.21852L19.8 3.94317V6.59285H16.5V14.4321H5.5V6.59285H2.2V3.94317L7.062 2.21068C7.33548 2.80111 7.86328 3.31503 8.5703 3.67932C9.27732 4.0436 10.1276 4.2397 11 4.2397C11.8724 4.2397 12.7227 4.0436 13.4297 3.67932C14.1367 3.31503 14.6645 2.80111 14.938 2.21068V2.21852Z" fill="#444444"/>
</svg>
