<svg width="10" height="10" viewBox="0 0 10 10" fill="none" xmlns="http://www.w3.org/2000/svg">
<path d="M7.91667 4.375C8.41667 3.91667 8.75 3.25 8.75 2.5C8.75 1.125 7.625 0 6.25 0C5 0 4 0.833333 3.79167 2.08333H3.75C2.375 2.08333 1.25 3.20833 1.25 4.58333C1.25 5.33333 1.58333 6 2.08333 6.45833C1.33333 6.625 0.625 7.08333 0 7.91667V9.58333C0 9.83333 0.166667 10 0.416667 10H7.08333C7.33333 10 7.5 9.83333 7.5 9.58333V7.91667H9.58333C9.83333 7.91667 10 7.75 10 7.5V5.83333C9.41667 5 8.66667 4.54167 7.91667 4.375ZM6.25 0.833333C7.16667 0.833333 7.91667 1.58333 7.91667 2.5C7.91667 3.41667 7.20833 4.16667 6.25 4.16667C6.25 3.29167 5.45833 2.54167 4.625 2.25C4.75 1.45833 5.41667 0.833333 6.25 0.833333ZM2.08333 4.58333C2.08333 3.66667 2.83333 2.91667 3.75 2.91667C4.66667 2.91667 5.41667 3.66667 5.41667 4.58333C5.41667 5.5 4.66667 6.25 3.75 6.25C2.83333 6.25 2.08333 5.5 2.08333 4.58333ZM6.66667 9.16667H0.833333V8.33333C0.833333 8.33333 1.66667 7.08333 3.75 7.08333C5.83333 7.08333 6.66667 8.33333 6.66667 8.33333V9.16667ZM9.16667 7.08333H6.70833C6.29167 6.75 5.875 6.54167 5.41667 6.45833C5.83333 6.08333 6.125 5.58333 6.20833 5H6.25C8.33333 5 9.16667 6.25 9.16667 6.25V7.08333Z" fill="#E80606"/>
</svg>
