<svg width="18" height="18" viewBox="0 0 18 18" fill="none" xmlns="http://www.w3.org/2000/svg">
<path d="M16.3162 1.61289H12.825C12.825 1.18539 12.54 0.900391 12.1125 0.900391C11.685 0.900391 11.4 1.18539 11.4 1.61289H5.7C5.7 1.18539 5.415 0.900391 4.9875 0.900391C4.56 0.900391 4.275 1.18539 4.275 1.61289H0.78375C0.35625 1.61289 0 1.96914 0 2.39664V17.2166C0 17.6441 0.35625 18.0004 0.78375 18.0004H16.3162C16.7438 18.0004 17.1 17.6441 17.1 17.2166V2.39664C17.1 1.96914 16.7438 1.61289 16.3162 1.61289ZM15.675 16.5754H1.425V6.60039H15.675V16.5754ZM15.675 5.88789H1.425V3.03789H4.275V3.75039C4.275 4.17789 4.56 4.46289 4.9875 4.46289C5.415 4.46289 5.7 4.17789 5.7 3.75039V3.03789H11.4V3.75039C11.4 4.17789 11.685 4.46289 12.1125 4.46289C12.54 4.46289 12.825 4.17789 12.825 3.75039V3.03789H15.675V5.88789Z" fill="#008CC9"/>
<rect x="4.0498" width="1.8" height="4.5" rx="0.9" fill="#008CC9"/>
<rect x="11.25" width="1.8" height="4.5" rx="0.9" fill="#008CC9"/>
</svg>
