<svg width="18" height="18" viewBox="0 0 18 18" fill="none" xmlns="http://www.w3.org/2000/svg">
<path d="M18 10.8C18 9.84522 17.6207 8.92955 16.9456 8.25442C16.2705 7.57928 15.3548 7.2 14.4 7.2V5.4C14.4 3.96783 13.8311 2.59432 12.8184 1.58162C11.8057 0.568927 10.4322 0 9 0C7.56783 0 6.19432 0.568927 5.18162 1.58162C4.16893 2.59432 3.6 3.96783 3.6 5.4V7.2C2.64522 7.2 1.72955 7.57928 1.05442 8.25442C0.379285 8.92955 0 9.84522 0 10.8V18H18V10.8ZM5.4 5.4C5.4 4.44522 5.77928 3.52955 6.45442 2.85442C7.12955 2.17928 8.04522 1.8 9 1.8C9.95478 1.8 10.8705 2.17928 11.5456 2.85442C12.2207 3.52955 12.6 4.44522 12.6 5.4V7.2H5.4V5.4ZM16.2 16.2H1.8V10.8C1.8 10.3226 1.98964 9.86477 2.32721 9.52721C2.66477 9.18964 3.12261 9 3.6 9H14.4C14.8774 9 15.3352 9.18964 15.6728 9.52721C16.0104 9.86477 16.2 10.3226 16.2 10.8V16.2Z" fill="#444444"/>
<path d="M12.6004 11.7002H5.40039V13.5002H12.6004V11.7002Z" fill="#444444"/>
</svg>
