<svg width="18" height="18" viewBox="0 0 18 18" fill="none" xmlns="http://www.w3.org/2000/svg">
<path d="M13.5 0H11.241L9 5.661L6.759 0H4.5C3.30653 0 2.16193 0.474106 1.31802 1.31802C0.474106 2.16193 0 3.30653 0 4.5V8.1H3.6V9H2.7V10.8H3.6V18H14.4V8.1H18V4.5C18 3.30653 17.5259 2.16193 16.682 1.31802C15.8381 0.474106 14.6935 0 13.5 0ZM5.4 7.2V4.5H3.6V6.3H1.8V4.5C1.8 3.78392 2.08446 3.09716 2.59081 2.59081C3.09716 2.08446 3.78392 1.8 4.5 1.8H5.535L8.1 8.271V9H5.4V7.2ZM5.4 10.8H8.1V16.2H5.4V10.8ZM9.9 16.2V10.8H12.6V16.2H9.9ZM16.2 6.3H14.4V4.5H12.6V9H9.9V8.271L12.465 1.8H13.5C14.2161 1.8 14.9028 2.08446 15.4092 2.59081C15.9155 3.09716 16.2 3.78392 16.2 4.5V6.3Z" fill="#444444"/>
</svg>
