<svg width="45" height="45" viewBox="0 0 45 45" fill="none" xmlns="http://www.w3.org/2000/svg">
<path fill-rule="evenodd" clip-rule="evenodd" d="M22.5 0C10.0736 0 0 10.0736 0 22.5C0 34.9264 10.0736 45 22.5 45C34.9264 45 45 34.9264 45 22.5C45 10.0736 34.9264 0 22.5 0ZM31.8726 14.7655C32.9053 15.0489 33.7186 15.8838 33.9945 16.9442C34.4961 18.8659 34.4961 22.8755 34.4961 22.8755C34.4961 22.8755 34.4961 26.885 33.9945 28.8069C33.7186 29.8672 32.9053 30.7021 31.8726 30.9857C30.0011 31.5005 22.4961 31.5005 22.4961 31.5005C22.4961 31.5005 14.991 31.5005 13.1195 30.9857C12.0868 30.7021 11.2735 29.8672 10.9975 28.8069C10.4961 26.885 10.4961 22.8755 10.4961 22.8755C10.4961 22.8755 10.4961 18.8659 10.9975 16.9442C11.2735 15.8838 12.0868 15.0489 13.1195 14.7655C14.991 14.2505 22.4961 14.2505 22.4961 14.2505C22.4961 14.2505 30.0011 14.2505 31.8726 14.7655Z" fill="#2984DF"/>
<path d="M20.25 27V19.5L26.25 23.2501L20.25 27Z" fill="#2984DF"/>
</svg>
