<svg width="66" height="66" viewBox="0 0 66 66" fill="none" xmlns="http://www.w3.org/2000/svg">
<path opacity="0.4" d="M32.7865 1.00008C50.4204 1.00008 64.7155 15.2952 64.7155 32.9291C64.7155 50.563 50.4204 64.8582 32.7865 64.8582C15.1525 64.8582 0.857422 50.563 0.857422 32.9291C0.857422 15.2952 15.1525 1.00008 32.7865 1.00008Z" stroke="black"/>
<path d="M41.2911 28.8829C41.1358 27.6213 40.748 26.6306 40.0594 25.7532C39.1652 24.6233 38.0224 23.9468 36.3306 23.5454C35.2281 23.2779 34.7826 23.3086 34.3839 23.6729C34.0124 24.0141 33.9399 24.6983 34.2237 25.1413C34.4234 25.4628 34.6536 25.578 35.2941 25.7037C36.1471 25.8607 36.7365 26.0643 37.2727 26.3709C38.4107 27.028 38.9407 28.0563 38.9975 29.7211C39.024 30.5027 39.0915 30.7431 39.3645 31.0203C39.8705 31.5271 40.7711 31.4285 41.1531 30.8221C41.2932 30.5935 41.3146 30.494 41.3294 29.9632C41.3392 29.6346 41.3251 29.1455 41.2911 28.8829Z" fill="black"/>
<path d="M45.747 30.3048C45.5222 26.4396 44.0104 23.3298 41.3047 21.1418C39.7803 19.9124 37.9376 19.067 35.9177 18.6559C35.1778 18.5089 33.8156 18.3897 33.5819 18.4579C33.3613 18.521 33.0494 18.7598 32.9104 18.9757C32.7634 19.2099 32.7302 19.7327 32.8556 20.0352C33.0581 20.5408 33.4347 20.7194 34.4893 20.8116C36.1151 20.9539 37.7921 21.5251 39.0592 22.3707C40.5057 23.3336 41.6556 24.6505 42.3995 26.198C43.0423 27.5277 43.4376 29.4438 43.4266 31.1597C43.423 31.7803 43.5188 32.1308 43.7684 32.387C44.1451 32.781 44.6942 32.8672 45.1788 32.6055C45.7159 32.323 45.8416 31.8272 45.747 30.3048Z" fill="black"/>
<path d="M50.6806 45.1908C50.605 44.9699 50.4286 44.6291 50.3026 44.4334C49.5085 43.2344 45.2424 39.8957 43.1124 38.8039C41.8963 38.1791 40.9951 37.9709 40.3272 38.1664C39.6088 38.3685 39.2307 38.7029 38.0271 40.1987C37.5419 40.7982 37.0441 41.36 36.9117 41.4482C36.584 41.6755 35.9413 41.8586 35.4876 41.8586C34.4352 41.8522 32.5258 41.1706 31.0575 40.2744C29.917 39.5802 28.4551 38.337 27.3333 37.1063C26.0099 35.661 25.1089 34.3862 24.3968 32.9472C23.4768 31.0981 23.2436 29.9684 23.628 29.1416C23.7225 28.9333 23.8486 28.7125 23.9052 28.643C23.962 28.58 24.5543 28.0939 25.2096 27.5638C26.4952 26.5414 26.7031 26.3079 26.9426 25.6074C27.2451 24.7175 27.1632 23.8087 26.6969 22.8936C26.3376 22.1993 25.3987 20.6847 24.7182 19.7065C23.817 18.4191 21.5737 15.6674 21.1262 15.295C20.3196 14.6387 19.2862 14.525 18.1455 14.9669C16.9421 15.4339 14.686 17.2515 13.7219 18.52C12.8522 19.6686 12.5184 20.4827 12.4679 21.5556C12.4238 22.4391 12.4994 22.8052 12.9657 23.9349C16.6143 32.7957 22.0588 39.8705 29.5389 45.4874C33.4458 48.4221 37.4977 50.6562 41.7009 52.1836C44.1522 53.0734 45.2172 53.1175 46.4712 52.3855C47.0005 52.0699 48.3112 50.7257 49.0422 49.7475C50.2521 48.1191 50.6996 47.3681 50.8255 46.7686C50.9138 46.3584 50.8445 45.6453 50.6806 45.1908Z" fill="black"/>
<path d="M50.2851 31.1931C50.2043 29.0067 49.8362 27.2133 49.0686 25.2138C48.3108 23.247 47.5438 21.9636 46.0954 20.2277C44.7259 18.6001 43.6622 17.6707 41.9753 16.6363C39.6217 15.1949 36.7574 14.2411 33.5475 13.84C32.4528 13.6998 32.2051 13.7098 31.8693 13.9339C31.2185 14.3584 31.2272 15.4172 31.88 15.8354C32.0961 15.9684 32.2879 16.0168 33.1635 16.1314C34.5077 16.3124 35.3721 16.483 36.3977 16.7628C40.4194 17.8622 43.5122 20.1094 45.5798 23.4453C47.3101 26.2257 48.0284 29.0064 47.9264 32.5578C47.8909 33.7584 47.9167 33.9697 48.1002 34.2582C48.4517 34.7959 49.3786 34.9022 49.8541 34.456C50.1499 34.1842 50.2057 33.98 50.264 32.9524C50.2919 32.4164 50.2979 31.625 50.2851 31.1931Z" fill="black"/>
</svg>
