<svg width="52" height="52" viewBox="0 0 52 52" fill="none" xmlns="http://www.w3.org/2000/svg">
<path d="M51.5 26C51.5 40.0833 40.0833 51.5 26 51.5C11.9167 51.5 0.5 40.0833 0.5 26C0.5 11.9167 11.9167 0.5 26 0.5C40.0833 0.5 51.5 11.9167 51.5 26Z" stroke="#D6D6D6"/>
<path fill-rule="evenodd" clip-rule="evenodd" d="M11.7188 32.9208C11.7188 34.2575 12.8065 35.3401 14.1496 35.3401H17.796V39.0723C17.796 39.7438 18.3432 40.2818 19.0115 40.2818C19.3521 40.2818 19.6613 40.1423 19.8804 39.9191L24.4811 35.3402H37.8513C39.1944 35.3402 40.2821 34.2576 40.2821 32.9209V17.7997C40.2821 16.463 39.1944 15.3804 37.8513 15.3804H14.1496C12.8065 15.3804 11.7188 16.463 11.7188 17.7997V32.9208H11.7188ZM19.0116 25.9652C19.0116 25.1306 19.6923 24.4531 20.5309 24.4531C21.3694 24.4531 22.0502 25.1306 22.0502 25.9652C22.0502 26.7998 21.3694 27.4772 20.5309 27.4772C19.6923 27.4772 19.0116 26.7997 19.0116 25.9652ZM24.4812 25.9652C24.4812 25.1306 25.1619 24.4531 26.0005 24.4531C26.8391 24.4531 27.5199 25.1306 27.5199 25.9652C27.5199 26.7998 26.8391 27.4772 26.0005 27.4772C25.1619 27.4772 24.4812 26.7997 24.4812 25.9652ZM29.9508 25.9652C29.9508 25.1306 30.6315 24.4531 31.4702 24.4531C32.3088 24.4531 32.9894 25.1306 32.9894 25.9652C32.9894 26.7998 32.3088 27.4772 31.4702 27.4772C30.6314 27.4772 29.9508 26.7997 29.9508 25.9652Z" fill="#999999"/>
</svg>
