<svg width="45" height="45" viewBox="0 0 45 45" fill="none" xmlns="http://www.w3.org/2000/svg">
<path fill-rule="evenodd" clip-rule="evenodd" d="M0 22.5C0 34.9264 10.0736 45 22.5 45C34.9264 45 45 34.9264 45 22.5C45 10.0736 34.9264 0 22.5 0C10.0736 0 0 10.0736 0 22.5ZM36.6208 21.6387C36.6178 29.0138 30.6183 35.0148 23.2416 35.0178H23.2361C20.9969 35.017 18.7967 34.4552 16.8425 33.3893L9.75 35.2498L11.6481 28.3169C10.4773 26.2878 9.86117 23.9862 9.86217 21.6282C9.86511 14.2514 15.867 8.24982 23.2415 8.24982C26.8206 8.25136 30.1798 9.64469 32.7058 12.1736C35.2318 14.7025 36.6222 18.0639 36.6208 21.6387Z" fill="#2984DF"/>
<path fill-rule="evenodd" clip-rule="evenodd" d="M12.9623 32.0714L17.1711 30.9674L17.5772 31.2084C19.2845 32.2216 21.2417 32.7577 23.2371 32.7584H23.2416C29.3708 32.7584 34.3593 27.7698 34.3617 21.6381C34.3629 18.6667 33.2073 15.8729 31.1078 13.7709C29.0083 11.6689 26.2162 10.5108 23.246 10.5098C17.1121 10.5098 12.1235 15.4979 12.1211 21.6291C12.1202 23.7303 12.7082 25.7767 13.8213 27.5471L14.0857 27.9679L12.9623 32.0714ZM29.5222 24.5192C29.7554 24.6319 29.9129 24.708 29.9801 24.8202C30.0636 24.9596 30.0636 25.6289 29.7852 26.4099C29.5065 27.1908 28.171 27.9035 27.5286 27.9994C26.9527 28.0856 26.2239 28.1215 25.4231 27.867C24.9375 27.7129 24.3149 27.5072 23.5173 27.1628C20.3833 25.8095 18.2653 22.772 17.865 22.1979C17.837 22.1577 17.8174 22.1296 17.8064 22.115L17.8037 22.1114C17.6268 21.8753 16.4414 20.2937 16.4414 18.6567C16.4414 17.1169 17.1978 16.3097 17.546 15.9382C17.5698 15.9128 17.5918 15.8893 17.6114 15.8679C17.9179 15.5332 18.2801 15.4495 18.5029 15.4495C18.7257 15.4495 18.9488 15.4516 19.1436 15.4614C19.1677 15.4626 19.1927 15.4624 19.2185 15.4623C19.4133 15.4611 19.6562 15.4597 19.8958 16.0352C19.988 16.2567 20.1228 16.5851 20.2651 16.9314C20.5527 17.6317 20.8706 18.4055 20.9265 18.5174C21.0101 18.6848 21.0658 18.8799 20.9544 19.1032C20.9376 19.1366 20.9222 19.1682 20.9074 19.1984C20.8237 19.3692 20.7621 19.4949 20.6201 19.6608C20.5642 19.726 20.5065 19.7963 20.4488 19.8666C20.3337 20.0067 20.2187 20.1467 20.1186 20.2465C19.9512 20.4132 19.777 20.5941 19.972 20.9287C20.167 21.2634 20.838 22.3581 21.8318 23.2446C22.9001 24.1975 23.8286 24.6002 24.2992 24.8044C24.3911 24.8442 24.4656 24.8765 24.5202 24.9038C24.8544 25.0712 25.0494 25.0432 25.2444 24.8202C25.4394 24.5971 26.0801 23.844 26.3029 23.5094C26.5257 23.1748 26.7487 23.2305 27.0551 23.3421C27.3615 23.4537 29.0051 24.2624 29.3394 24.4297C29.4047 24.4624 29.4657 24.4919 29.5222 24.5192Z" fill="#2984DF"/>
</svg>
