<svg width="64" height="64" viewBox="0 0 64 64" fill="none" xmlns="http://www.w3.org/2000/svg">
<path opacity="0.4" d="M63.3581 31.929C63.3581 49.2868 49.2868 63.3581 31.929 63.3581C14.5713 63.3581 0.5 49.2868 0.5 31.929C0.5 14.5713 14.5713 0.5 31.929 0.5C49.2868 0.5 63.3581 14.5713 63.3581 31.929Z" stroke="black"/>
<path d="M11.8968 33.4916C15.6293 31.4357 19.7957 29.7198 23.6887 27.9951C30.3861 25.1701 37.1101 22.3942 43.9019 19.8098C45.2233 19.3695 47.5977 18.9389 47.8305 20.8971C47.703 23.6691 47.1785 26.4248 46.8188 29.1806C45.9059 35.2407 44.8506 41.2801 43.8215 47.3203C43.4669 49.3323 40.9466 50.3737 39.3339 49.0862C35.4582 46.4684 31.5528 43.8759 27.7266 41.1973C26.4733 39.9238 27.6355 38.0949 28.7549 37.1854C31.947 34.0396 35.3322 31.3669 38.3575 28.0585C39.1736 26.0879 36.7624 27.7487 35.967 28.2576C31.597 31.269 27.334 34.4643 22.7266 37.111C20.3732 38.4065 17.6302 37.2994 15.2778 36.5765C13.1687 35.7032 10.0779 34.8234 11.8965 33.4919L11.8968 33.4916Z" fill="black"/>
</svg>
