<svg width="45" height="45" viewBox="0 0 45 45" fill="none" xmlns="http://www.w3.org/2000/svg">
<path fill-rule="evenodd" clip-rule="evenodd" d="M22.5 0C10.0736 0 0 10.0736 0 22.5C0 34.9264 10.0736 45 22.5 45C34.9264 45 45 34.9264 45 22.5C45 10.0736 34.9264 0 22.5 0ZM17.5531 10.5727C18.8331 10.5144 19.2421 10.5002 22.5011 10.5002H22.4974C25.7574 10.5002 26.1649 10.5144 27.4449 10.5727C28.7224 10.6312 29.5949 10.8334 30.36 11.1302C31.15 11.4364 31.8175 11.8464 32.485 12.514C33.1525 13.181 33.5625 13.8505 33.87 14.6397C34.165 15.4027 34.3675 16.2747 34.4275 17.5523C34.485 18.8323 34.5 19.2413 34.5 22.5003C34.5 25.7593 34.485 26.1673 34.4275 27.4474C34.3675 28.7244 34.165 29.5966 33.87 30.3599C33.5625 31.1489 33.1525 31.8184 32.485 32.4854C31.8182 33.1529 31.1497 33.5639 30.3607 33.8704C29.5972 34.1672 28.7242 34.3694 27.4467 34.4279C26.1667 34.4862 25.7589 34.5004 22.4996 34.5004C19.2408 34.5004 18.8321 34.4862 17.5521 34.4279C16.2748 34.3694 15.4026 34.1672 14.639 33.8704C13.8503 33.5639 13.1808 33.1529 12.514 32.4854C11.8468 31.8184 11.4368 31.1489 11.13 30.3596C10.8335 29.5966 10.6313 28.7246 10.5725 27.4471C10.5145 26.1671 10.5 25.7593 10.5 22.5003C10.5 19.2413 10.515 18.832 10.5723 17.552C10.6298 16.275 10.8323 15.4027 11.1298 14.6395C11.4373 13.8505 11.8473 13.181 12.5148 12.514C13.1818 11.8467 13.8513 11.4367 14.6405 11.1302C15.4036 10.8334 16.2756 10.6312 17.5531 10.5727Z" fill="#2984DF"/>
<path fill-rule="evenodd" clip-rule="evenodd" d="M21.4252 12.6632C21.6342 12.6628 21.859 12.6629 22.1017 12.663L22.5017 12.6632C25.7057 12.6632 26.0855 12.6747 27.3507 12.7322C28.5207 12.7857 29.1557 12.9812 29.5787 13.1454C30.1387 13.3629 30.538 13.6229 30.9578 14.0429C31.3778 14.4629 31.6378 14.8629 31.8558 15.4229C32.02 15.8454 32.2158 16.4804 32.269 17.6505C32.3265 18.9155 32.339 19.2955 32.339 22.498C32.339 25.7005 32.3265 26.0805 32.269 27.3456C32.2155 28.5156 32.02 29.1506 31.8558 29.5731C31.6383 30.1331 31.3778 30.5318 30.9578 30.9516C30.5377 31.3716 30.139 31.6316 29.5787 31.8491C29.1562 32.0141 28.5207 32.2091 27.3507 32.2626C26.0857 32.3201 25.7057 32.3326 22.5017 32.3326C19.2974 32.3326 18.9176 32.3201 17.6526 32.2626C16.4826 32.2086 15.8476 32.0131 15.4243 31.8489C14.8643 31.6314 14.4643 31.3714 14.0443 30.9513C13.6243 30.5313 13.3643 30.1323 13.1463 29.5721C12.9821 29.1496 12.7863 28.5146 12.7331 27.3446C12.6756 26.0795 12.6641 25.6995 12.6641 22.495C12.6641 19.2905 12.6756 18.9125 12.7331 17.6475C12.7866 16.4774 12.9821 15.8424 13.1463 15.4194C13.3638 14.8594 13.6243 14.4594 14.0443 14.0394C14.4643 13.6194 14.8643 13.3594 15.4243 13.1414C15.8473 12.9764 16.4826 12.7814 17.6526 12.7277C18.7596 12.6777 19.1886 12.6627 21.4252 12.6602V12.6632ZM28.9049 14.6553C28.1099 14.6553 27.4648 15.2996 27.4648 16.0949C27.4648 16.8899 28.1099 17.5349 28.9049 17.5349C29.6999 17.5349 30.3449 16.8899 30.3449 16.0949C30.3449 15.2999 29.6999 14.6548 28.9049 14.6548V14.6553ZM16.3398 22.5001C16.3398 19.0969 19.099 16.3377 22.5022 16.3376C25.9054 16.3376 28.664 19.0969 28.664 22.5001C28.664 25.9034 25.9057 28.6615 22.5024 28.6615C19.0991 28.6615 16.3398 25.9034 16.3398 22.5001Z" fill="#2984DF"/>
<path d="M22.5 18.5C24.7091 18.5 26.5001 20.2908 26.5001 22.5C26.5001 24.7091 24.7091 26.5001 22.5 26.5001C20.2908 26.5001 18.5 24.7091 18.5 22.5C18.5 20.2908 20.2908 18.5 22.5 18.5Z" fill="#2984DF"/>
</svg>
