<svg width="45" height="45" viewBox="0 0 45 45" fill="none" xmlns="http://www.w3.org/2000/svg">
<path fill-rule="evenodd" clip-rule="evenodd" d="M22.5 0C10.0736 0 0 10.0736 0 22.5C0 34.9264 10.0736 45 22.5 45C34.9264 45 45 34.9264 45 22.5C45 10.0736 34.9264 0 22.5 0ZM33.7139 15.116C34.5806 15.116 34.7764 15.5813 34.5806 16.221C34.2752 17.6873 31.7386 21.5768 30.9529 22.7815C30.8037 23.0104 30.7176 23.1423 30.7221 23.1423C30.4145 23.6658 30.3026 23.8984 30.7221 24.4801C30.8737 24.6951 31.1952 25.0232 31.5626 25.3982C31.9405 25.7839 32.367 26.2192 32.7073 26.6321C33.9375 28.0861 34.8882 29.3075 35.1399 30.1509C35.3635 30.9942 34.9721 31.4304 34.1333 31.4304H31.2533C30.4901 31.4304 30.0967 30.9746 29.2582 30.003C28.8987 29.5865 28.4574 29.0751 27.87 28.4642C26.1644 26.7484 25.4095 26.5157 24.9901 26.5157C24.4029 26.5157 24.2351 26.6611 24.2351 27.5336V30.2381C24.2351 30.9651 24.0115 31.4014 22.166 31.4014C19.1183 31.4014 15.7351 29.482 13.3584 25.905C9.77941 20.6704 8.80078 16.7154 8.80078 15.9302C8.80078 15.494 8.94059 15.0869 9.77941 15.0869H12.6873C13.4143 15.0869 13.6939 15.4068 13.9735 16.2501C15.3995 20.525 17.7762 24.2765 18.7548 24.2765C19.1183 24.2765 19.2861 24.102 19.2861 23.1423V18.722C19.2171 17.4656 18.7965 16.9182 18.4847 16.5122C18.2913 16.2605 18.1397 16.0631 18.1397 15.7848C18.1397 15.4359 18.4193 15.0869 18.8667 15.0869H23.3963C24.0115 15.0869 24.2351 15.4359 24.2351 16.192V22.1536C24.2351 22.7934 24.4868 23.026 24.6825 23.026C25.046 23.026 25.3536 22.7934 26.0246 22.0954C28.0937 19.6817 29.5757 15.9593 29.5757 15.9593C29.7714 15.5231 30.1069 15.116 30.8339 15.116H33.7139Z" fill="#2984DF"/>
</svg>
