<svg width="66" height="66" viewBox="0 0 66 66" fill="none" xmlns="http://www.w3.org/2000/svg">
<path opacity="0.4" d="M32.6439 64.8581C15.01 64.8581 0.714844 50.563 0.714844 32.929C0.714844 15.2951 15.01 1 32.6439 1C50.2778 1 64.5729 15.2951 64.5729 32.929C64.5729 50.563 50.2778 64.8581 32.6439 64.8581Z" stroke="black"/>
<path d="M33.6983 50.6931C44.1662 50.6888 52.68 42.1731 52.6842 31.7073C52.6862 26.6343 50.7132 21.8643 47.1286 18.2757C43.5441 14.6869 38.7771 12.7097 33.6981 12.7075C23.2332 12.7075 14.7161 21.2242 14.7119 31.6923C14.7105 35.0385 15.5848 38.3047 17.2462 41.184L14.5527 51.0224L24.6175 48.3822C27.3906 49.8948 30.5129 50.692 33.6904 50.6931H33.6983Z" fill="black"/>
<path d="M43.2729 36.2224C43.1543 36.0245 42.8381 35.9058 42.3637 35.6683C41.8893 35.4308 39.557 34.2833 39.122 34.1248C38.6873 33.9666 38.3709 33.8875 38.0547 34.3623C37.7385 34.8371 36.8293 35.9058 36.5526 36.2224C36.2758 36.5389 35.9991 36.5787 35.5249 36.3411C35.0505 36.1037 33.5219 35.6028 31.7099 33.9865C30.2996 32.7286 29.3475 31.1751 29.0708 30.7002C28.794 30.2252 29.0413 29.9686 29.2787 29.732C29.4922 29.5194 29.7532 29.1778 29.9904 28.9009C30.2275 28.624 30.3066 28.4259 30.4647 28.1096C30.6229 27.7928 30.5438 27.5159 30.4252 27.2784C30.3066 27.0409 29.3579 24.7058 28.9625 23.756C28.5774 22.8309 28.1864 22.9562 27.8952 22.9416C27.6188 22.9277 27.3022 22.9248 26.9859 22.9248C26.6697 22.9248 26.1557 23.0435 25.7209 23.5185C25.2861 23.9934 24.0605 25.1412 24.0605 27.476C24.0605 29.8111 25.7604 32.0669 25.9976 32.3835C26.2348 32.7003 29.3428 37.4918 34.1017 39.5467C35.2335 40.0355 36.1171 40.3274 36.8061 40.546C37.9425 40.9072 38.9768 40.8562 39.7941 40.734C40.7056 40.5978 42.6008 39.5865 42.9963 38.4784C43.3914 37.3701 43.3914 36.4202 43.2729 36.2224Z" fill="white"/>
</svg>
