<svg width="20" height="24" viewBox="0 0 20 24" fill="none" xmlns="http://www.w3.org/2000/svg">
<path d="M19.2188 10C19.2188 17 10.2188 23 10.2188 23C10.2188 23 1.21875 17 1.21875 10C1.21875 7.61305 2.16696 5.32387 3.85479 3.63604C5.54262 1.94821 7.8318 1 10.2188 1C12.6057 1 14.8949 1.94821 16.5827 3.63604C18.2705 5.32387 19.2187 7.61305 19.2188 10Z" stroke="#888888" stroke-width="1.4" stroke-linecap="round" stroke-linejoin="round"/>
<path d="M10.2188 12C11.8756 12 13.2188 10.6569 13.2188 9C13.2188 7.34315 11.8756 6 10.2188 6C8.5619 6 7.21875 7.34315 7.21875 9C7.21875 10.6569 8.5619 12 10.2188 12Z" fill="#888888" stroke="#888888" stroke-width="1.4" stroke-linecap="round" stroke-linejoin="round"/>
</svg>
