<svg width="24" height="18" viewBox="0 0 24 18" fill="none" xmlns="http://www.w3.org/2000/svg">
<path d="M22.6562 0H0.78125C0.57405 0 0.375336 0.0823102 0.228823 0.228823C0.08231 0.375336 0 0.57405 0 0.78125V3.125C0 3.3322 0.08231 3.53091 0.228823 3.67743C0.375336 3.82394 0.57405 3.90625 0.78125 3.90625H3.90625V5.46875C3.90625 5.67595 3.98856 5.87466 4.13507 6.02118C4.28159 6.16769 4.4803 6.25 4.6875 6.25H10.9375V12.6406L7.65625 13.2812C7.47713 13.3178 7.31649 13.416 7.20229 13.5587C7.08809 13.7015 7.02756 13.8797 7.03125 14.0625V16.4062C7.03125 16.6135 7.11356 16.8122 7.26007 16.9587C7.40659 17.1052 7.6053 17.1875 7.8125 17.1875H15.625C15.8322 17.1875 16.0309 17.1052 16.1774 16.9587C16.3239 16.8122 16.4062 16.6135 16.4062 16.4062V14.0625C16.4099 13.8797 16.3494 13.7015 16.2352 13.5587C16.121 13.416 15.9604 13.3178 15.7813 13.2812L12.5 12.6406V6.25H18.75C18.9572 6.25 19.1559 6.16769 19.3024 6.02118C19.4489 5.87466 19.5312 5.67595 19.5312 5.46875V3.90625H22.6562C22.8635 3.90625 23.0622 3.82394 23.2087 3.67743C23.3552 3.53091 23.4375 3.3322 23.4375 3.125V0.78125C23.4375 0.57405 23.3552 0.375336 23.2087 0.228823C23.0622 0.0823102 22.8635 0 22.6562 0ZM14.8438 15.625H8.59375V14.7031L11.7188 14.0781L14.8438 14.7031V15.625ZM17.9688 4.6875H5.46875V3.90625H17.9688V4.6875ZM21.875 2.34375H1.5625V1.5625H21.875V2.34375Z" fill="#888888"/>
</svg>
