<svg width="29" height="39" viewBox="0 0 29 39" fill="none" xmlns="http://www.w3.org/2000/svg">
<path d="M3.58094 31.5781V36.6598H0.460938V38.2198H28.5409V36.6598H25.4209V31.5781C25.4209 30.1187 24.8523 28.7482 23.8212 27.7171L15.6039 19.4998L23.8212 11.2825C24.8523 10.2513 25.4209 8.88009 25.4209 7.42149V2.33979H28.5409V0.779785H0.460938V2.33979H3.58094V7.42149C3.58094 8.88087 4.14956 10.2513 5.18072 11.2825L13.398 19.4998L5.18072 27.7171C4.14956 28.7482 3.58094 30.1195 3.58094 31.5781ZM6.28364 10.1788C5.54732 9.44247 5.14094 8.46357 5.14094 7.42149V2.33979H23.8609V7.42149C23.8609 8.46357 23.4546 9.44324 22.7182 10.1796L14.5009 18.3969L6.28364 10.1788ZM14.5009 20.6027L22.7182 28.8208C23.4546 29.5571 23.8609 30.536 23.8609 31.5781V36.6598H5.14094V31.5781C5.14094 30.536 5.54732 29.5563 6.28364 28.82L14.5009 20.6027Z" fill="#25282B"/>
</svg>
