<svg width="12" height="13" viewBox="0 0 12 13" fill="none" xmlns="http://www.w3.org/2000/svg">
<path opacity="0.7" fill-rule="evenodd" clip-rule="evenodd" d="M0.310145 10.3513C-0.103382 10.7708 -0.103382 11.4535 0.310145 11.8732C0.723378 12.2932 1.3955 12.2932 1.80591 11.8732L2.1046 11.5728L3.35011 12.8375C3.56309 13.0542 3.90445 13.0542 4.11773 12.8375L5.97387 10.9523C6.18718 10.736 6.18718 10.3892 5.97387 10.1725L4.72863 8.90781L6.94699 6.65179C7.42168 6.90091 7.96276 7.04155 8.53357 7.04155C10.4481 7.04155 12 5.46556 12 3.5208C12 1.57628 10.4481 0 8.53357 0C6.6189 0 5.06717 1.57628 5.06717 3.5208C5.06717 4.10056 5.20572 4.65016 5.45096 5.13229L0.310145 10.3513ZM7.2003 3.5208C7.2003 2.77334 7.79767 2.1666 8.53354 2.1666C9.26949 2.1666 9.86674 2.77334 9.86674 3.5208C9.86674 4.26827 9.26949 4.87492 8.53354 4.87492C7.7977 4.87492 7.2003 4.26824 7.2003 3.5208Z" fill="#010101"/>
</svg>
