<svg width="30" height="16" viewBox="0 0 30 16" fill="none" xmlns="http://www.w3.org/2000/svg">
<path fill-rule="evenodd" clip-rule="evenodd" d="M3.92198 0C1.75593 0 0 1.65202 0 3.69081V12.3092C0 14.3476 1.7426 16 3.92198 16H26.078C28.2441 16 30 14.348 30 12.3092V3.69081C30 1.65243 28.2574 0 26.078 0H3.92198ZM20.8696 7.38462V4.92308H26.087V3.69231H19.5652V12.3077H20.8696V8.61539H24.7826V7.38462H20.8696ZM3.91304 6.15385V12.3077H5.21739V8.61539H7.81972C9.26398 8.61539 10.4348 7.52279 10.4348 6.15385C10.4348 4.79438 9.26883 3.69231 7.81972 3.69231H3.91304V6.15385ZM5.21739 4.92308V7.38462H7.82745C8.54707 7.38462 9.13043 6.83832 9.13043 6.15385C9.13043 5.47411 8.55305 4.92308 7.82745 4.92308H5.21739ZM11.7391 3.69231V12.3077H15.6458C17.0901 12.3077 18.2609 11.2165 18.2609 9.83887V6.16113C18.2609 4.79764 17.0949 3.69231 15.6458 3.69231H11.7391ZM13.0435 4.92308V11.0769H15.6535C16.3732 11.0769 16.9565 10.5308 16.9565 9.84639V6.15361C16.9565 5.47401 16.3791 4.92308 15.6535 4.92308H13.0435Z" fill="#FB153E"/>
</svg>
