<svg width="30" height="18" viewBox="0 0 30 18" fill="none" xmlns="http://www.w3.org/2000/svg">
<rect y="1" width="30" height="17" rx="4" fill="#0A5CE0"/>
<path d="M6.04297 15.1914C5.69206 15.1914 5.39844 15.1466 5.16211 15.0571V13.9775C5.46289 14.0527 5.72428 14.0903 5.94629 14.0903C6.64811 14.0903 6.99902 13.6463 6.99902 12.7583V5.14746H8.28809V12.7153C8.28809 13.5174 8.09652 14.1297 7.71338 14.5522C7.33382 14.9784 6.77702 15.1914 6.04297 15.1914ZM16.0729 7.52148C16.0729 8.34147 15.8044 8.96989 15.2673 9.40674C14.7302 9.84359 13.9657 10.062 12.9738 10.062H12.1574V13H10.8737V5.14746H13.135C14.1161 5.14746 14.8501 5.34798 15.3371 5.74902C15.8277 6.15007 16.0729 6.74089 16.0729 7.52148ZM12.1574 8.98242H12.8396C13.4984 8.98242 13.9818 8.86784 14.2897 8.63867C14.5977 8.40951 14.7517 8.05143 14.7517 7.56445C14.7517 7.11328 14.6138 6.77669 14.3381 6.55469C14.0624 6.33268 13.6327 6.22168 13.049 6.22168H12.1574V8.98242ZM21.4032 8.74072H24.2929V12.6831C23.8202 12.8371 23.3655 12.9463 22.9286 13.0107C22.4953 13.0752 22.0263 13.1074 21.5214 13.1074C20.3326 13.1074 19.4159 12.7565 18.7714 12.0547C18.1269 11.3493 17.8046 10.3556 17.8046 9.07373C17.8046 7.80973 18.168 6.82145 18.8949 6.10889C19.6218 5.39274 20.6226 5.03467 21.8974 5.03467C22.7174 5.03467 23.4944 5.19222 24.2284 5.50732L23.7772 6.57617C23.1399 6.28255 22.5025 6.13574 21.8651 6.13574C21.0272 6.13574 20.3648 6.39893 19.8778 6.92529C19.3909 7.45166 19.1474 8.17139 19.1474 9.08447C19.1474 10.0441 19.3658 10.7746 19.8026 11.2759C20.2431 11.7736 20.8751 12.0225 21.6986 12.0225C22.114 12.0225 22.558 11.9705 23.0307 11.8667V9.8418H21.4032V8.74072Z" fill="white"/>
</svg>
