<svg width="19" height="20" viewBox="0 0 19 20" fill="none" xmlns="http://www.w3.org/2000/svg">
<path d="M18.1292 1.79167H14.25C14.25 1.31667 13.9333 1 13.4583 1C12.9833 1 12.6667 1.31667 12.6667 1.79167H6.33333C6.33333 1.31667 6.01667 1 5.54167 1C5.06667 1 4.75 1.31667 4.75 1.79167H0.870833C0.395833 1.79167 0 2.1875 0 2.6625V19.1292C0 19.6042 0.395833 20 0.870833 20H18.1292C18.6042 20 19 19.6042 19 19.1292V2.6625C19 2.1875 18.6042 1.79167 18.1292 1.79167ZM17.4167 18.4167H1.58333V7.33333H17.4167V18.4167ZM17.4167 6.54167H1.58333V3.375H4.75V4.16667C4.75 4.64167 5.06667 4.95833 5.54167 4.95833C6.01667 4.95833 6.33333 4.64167 6.33333 4.16667V3.375H12.6667V4.16667C12.6667 4.64167 12.9833 4.95833 13.4583 4.95833C13.9333 4.95833 14.25 4.64167 14.25 4.16667V3.375H17.4167V6.54167Z" fill="#888888"/>
<rect x="4.5" width="2" height="5" rx="1" fill="#888888"/>
<rect x="12.5" width="2" height="5" rx="1" fill="#888888"/>
</svg>
