<svg width="491" height="533" viewBox="0 0 491 533" fill="none" xmlns="http://www.w3.org/2000/svg">
<g opacity="0.7">
<path d="M72.3434 414.084L30.5759 341.741L72.3434 269.398L155.878 269.398L197.646 341.741L155.878 414.084L72.3434 414.084Z" fill="#FCE480"/>
<path d="M202.963 490.47L161.196 418.127L202.963 345.784L286.498 345.784L328.266 418.127L286.498 490.47L202.963 490.47Z" fill="#FEF4CA"/>
<path opacity="0.8" d="M203.727 338.462L161.96 266.119L203.727 193.775L287.262 193.775L329.03 266.119L287.262 338.462L203.727 338.462Z" fill="#FCE480"/>
<path opacity="0.7" d="M203.727 186.454L161.96 114.111L203.727 41.7674L287.262 41.7674L329.03 114.111L287.262 186.454L203.727 186.454Z" fill="#FCE480"/>
<path d="M334.347 414.848L292.58 342.505L334.347 270.161L417.882 270.161L459.65 342.505L417.882 414.848L334.347 414.848Z" fill="#FEF4CA"/>
<path opacity="0.6" d="M334.347 262.84L292.58 190.497L334.347 118.153L417.882 118.153L459.65 190.497L417.882 262.84L334.347 262.84Z" fill="#FCE480"/>
<path d="M72.3434 262.076L30.5759 189.733L72.3434 117.39L155.878 117.39L197.646 189.733L155.878 262.076L72.3434 262.076Z" fill="#FCE480"/>
</g>
</svg>
