<svg width="29" height="38" viewBox="0 0 29 38" fill="none" xmlns="http://www.w3.org/2000/svg">
<path d="M3.12 30.7983V35.88H0V37.44H28.08V35.88H24.96V30.7983C24.96 29.3389 24.3914 27.9685 23.3602 26.9373L15.1429 18.72L23.3602 10.5027C24.3914 9.47154 24.96 8.1003 24.96 6.6417V1.56H28.08V0H0V1.56H3.12V6.6417C3.12 8.10108 3.68862 9.47154 4.71978 10.5027L12.9371 18.72L4.71978 26.9373C3.68862 27.9685 3.12 29.3397 3.12 30.7983ZM5.8227 9.399C5.08638 8.66268 4.68 7.68378 4.68 6.6417V1.56H23.4V6.6417C23.4 7.68378 22.9936 8.66346 22.2573 9.39978L14.04 17.6171L5.8227 9.399ZM14.04 19.8229L22.2573 28.041C22.9936 28.7773 23.4 29.7562 23.4 30.7983V35.88H4.68V30.7983C4.68 29.7562 5.08638 28.7765 5.8227 28.0402L14.04 19.8229Z" fill="#25282B"/>
</svg>
