<svg width="47" height="30" viewBox="0 0 47 30" fill="none" xmlns="http://www.w3.org/2000/svg">
<path opacity="0.7" d="M45.06 17.8195L42.2727 18.7659L39.8521 5.36897L46.0722 2.8552C46.2514 2.78335 46.4147 2.67664 46.553 2.54115C46.6912 2.40566 46.8016 2.24405 46.8779 2.06555C46.9542 1.88705 46.9949 1.69515 46.9976 1.50081C47.0003 1.30647 46.965 1.11349 46.8937 0.932904C46.8224 0.752312 46.7166 0.587641 46.5822 0.448291C46.4477 0.308942 46.2874 0.197643 46.1103 0.12075C45.9332 0.0438572 45.7428 0.00287631 45.55 0.000146047C45.3572 -0.00258421 45.1658 0.0329902 44.9866 0.104838L37.6516 3.06221C37.332 3.18439 37.0647 3.41526 36.8959 3.71494C36.7272 4.01462 36.6676 4.36429 36.7274 4.70356V4.96972L33.2213 6.72936C32.9777 6.85392 32.7044 6.90745 32.4323 6.88394C32.1601 6.86043 31.8999 6.7608 31.6809 6.59628L28.1161 3.84592C27.3543 3.27002 26.4277 2.95871 25.4755 2.95871H21.4999C20.9596 2.95897 20.4299 3.10961 19.9691 3.39401C19.5084 3.67841 19.1345 4.08552 18.8886 4.57048L16.2627 4.43739C16.0084 4.42654 15.7556 4.48259 15.5292 4.60005L13.0793 5.82736L8.85435 4.76271V4.57048C8.88555 4.27047 8.82497 3.96803 8.68075 3.70372C8.53653 3.43941 8.31557 3.22589 8.0475 3.09179L2.17949 0.134412C1.83754 -0.00911652 1.45438 -0.0169461 1.10695 0.112496C0.759507 0.241937 0.473509 0.499067 0.306372 0.832261C0.139235 1.16545 0.103332 1.55004 0.205872 1.90882C0.308412 2.26759 0.541804 2.57398 0.859188 2.76648L5.83233 5.28025L4.62938 18.6772L1.98878 17.7899C1.79902 17.7278 1.59898 17.704 1.40007 17.7197C1.20116 17.7355 1.00729 17.7907 0.829517 17.882C0.651745 17.9733 0.493556 18.099 0.363983 18.2519C0.23441 18.4048 0.13599 18.582 0.0743421 18.7733C0.0126942 18.9645 -0.010974 19.1662 0.00468874 19.3667C0.0203515 19.5672 0.0750384 19.7626 0.165627 19.9418C0.256216 20.121 0.380933 20.2804 0.532656 20.411C0.68438 20.5416 0.860139 20.6408 1.0499 20.703L5.45091 22.1817C5.60667 22.203 5.76458 22.203 5.92035 22.1817C6.20531 22.176 6.48369 22.0944 6.7272 21.9451C6.9134 21.8227 7.06958 21.6593 7.18394 21.4672C7.2983 21.275 7.36786 21.0592 7.38735 20.836L7.50471 19.4609L9.39714 20.4072C9.57269 21.5047 10.1417 22.4991 10.9962 23.2019L19.4608 29.3237C19.7617 29.574 20.1091 29.7612 20.4826 29.8745C20.8562 29.9879 21.2484 30.0249 21.6363 29.9836C22.0243 29.9423 22.4001 29.8235 22.742 29.634C23.0838 29.4445 23.3847 29.1882 23.6271 28.8801C24.1854 29.094 24.782 29.1874 25.3784 29.1543C25.9747 29.1211 26.5576 28.9623 27.0892 28.6879L35.0257 24.6954C35.5047 24.4515 35.9194 24.0965 36.2357 23.6594C36.5519 23.2224 36.7607 22.7159 36.8448 22.1817C36.8594 22.0243 36.8594 21.8659 36.8448 21.7085L39.6321 20.7769V20.9543C39.6692 21.1618 39.75 21.3588 39.8689 21.5323C39.9878 21.7057 40.1422 21.8515 40.3216 21.9598C40.5635 22.1111 40.8438 22.1882 41.1284 22.1817C41.2875 22.1787 41.4454 22.1538 41.5978 22.1077L45.9988 20.629C46.1819 20.5669 46.3509 20.469 46.4964 20.341C46.6419 20.213 46.761 20.0574 46.8468 19.883C46.9326 19.7086 46.9835 19.5189 46.9966 19.3247C47.0097 19.1305 46.9847 18.9356 46.9231 18.7511C46.8614 18.5666 46.7643 18.3962 46.6373 18.2495C46.5103 18.1029 46.3559 17.9829 46.1829 17.8964C46.0099 17.8099 45.8217 17.7586 45.629 17.7454C45.4364 17.7322 45.243 17.7574 45.06 17.8195ZM12.7859 20.8656C12.5539 20.6709 12.3872 20.4088 12.3084 20.1151C12.2297 19.8213 12.2427 19.5103 12.3458 19.2243C12.3605 19.173 12.3888 19.1266 12.4275 19.0902C12.4662 19.0537 12.5141 19.0285 12.5659 19.0173C12.6539 19.0173 12.7712 19.0173 12.9473 19.1356L21.8227 25.5974L21.3385 27.0761L12.7859 20.8656ZM33.7054 22.0486L25.7689 26.041C25.4235 26.2178 25.0226 26.2497 24.654 26.1298C24.7485 25.6045 24.7003 25.0632 24.5143 24.5634C24.3283 24.0635 24.0116 23.6237 23.5977 23.2907L14.7957 16.8288C14.3784 16.4941 13.8859 16.2678 13.3615 16.1699C12.8372 16.0719 12.297 16.1052 11.7884 16.2669C11.0883 16.471 10.4778 16.909 10.0573 17.509L8.06217 16.5035C7.97844 16.4653 7.88937 16.4404 7.79811 16.4296L8.57562 7.8088L12.9766 8.90303L13.2554 8.87346C13.485 8.87207 13.7111 8.81636 13.9155 8.7108L16.4974 7.39477H17.451L16.3507 9.62759C16.1767 9.97681 16.1469 10.3813 16.2679 10.7525C16.3889 11.1238 16.6507 11.4318 16.9962 11.609L17.3043 11.7717C18.2593 12.2547 19.356 12.371 20.3899 12.0989C21.4237 11.8269 22.3241 11.185 22.9229 10.293H24.3899L33.7494 21.0726C33.7879 21.1497 33.8321 21.2239 33.8814 21.2944C33.9317 21.34 33.9691 21.3983 33.9898 21.4633C34.0104 21.5282 34.0135 21.5975 33.9988 21.6641C34.0053 21.7414 33.9893 21.8189 33.9528 21.8871C33.9164 21.9554 33.861 22.0115 33.7934 22.0486H33.7054ZM35.7005 18.9877L26.077 7.89752C25.9411 7.74165 25.7743 7.61633 25.5872 7.52971C25.4002 7.4431 25.1972 7.39712 24.9914 7.39477H22.0574C21.7865 7.3956 21.5211 7.47202 21.2906 7.61557C21.0602 7.75912 20.8736 7.96419 20.7517 8.20805L20.5904 8.51857C20.4348 8.83019 20.175 9.07635 19.8569 9.21356L21.4999 5.91608H25.4755C25.7929 5.91608 26.1018 6.01985 26.3557 6.21182L29.9939 8.96218C30.6479 9.45524 31.4252 9.7551 32.2387 9.82822C33.0523 9.90135 33.8699 9.74484 34.6002 9.37621L37.3435 8.00103L39.1186 17.8491L35.7005 18.9877Z" fill="#008CC9"/>
</svg>
