<svg width="24" height="30" viewBox="0 0 24 30" fill="none" xmlns="http://www.w3.org/2000/svg">
<path d="M13.0858 0.5C13.2184 0.5 13.3456 0.552678 13.4393 0.646446L23.3536 10.5607C23.4473 10.6544 23.5 10.7816 23.5 10.9142V27C23.5 27.663 23.2366 28.2989 22.7678 28.7678C22.2989 29.2366 21.663 29.5 21 29.5H3C2.33696 29.5 1.70107 29.2366 1.23223 28.7678C0.763392 28.2989 0.5 27.663 0.5 27V3C0.5 2.33696 0.763392 1.70107 1.23223 1.23223C1.70107 0.763392 2.33696 0.5 3 0.5H13.0858Z" stroke="#558ADB" stroke-linecap="round" stroke-linejoin="round"/>
<path d="M13.5 1.5V9.5C13.5 10.0523 13.9477 10.5 14.5 10.5H22.5" stroke="#558ADB" stroke-linecap="round" stroke-linejoin="round"/>
<path d="M6.15135 19.624C6.34868 19.624 6.52068 19.6 6.66735 19.552C6.81401 19.5013 6.93535 19.4307 7.03135 19.34C7.13001 19.2467 7.20335 19.1347 7.25135 19.004C7.29935 18.8707 7.32335 18.7227 7.32335 18.56C7.32335 18.4053 7.29935 18.2653 7.25135 18.14C7.20335 18.0147 7.13135 17.908 7.03535 17.82C6.93935 17.732 6.81801 17.6653 6.67135 17.62C6.52468 17.572 6.35135 17.548 6.15135 17.548H5.34735V19.624H6.15135ZM6.15135 16.716C6.53801 16.716 6.87268 16.7613 7.15535 16.852C7.43801 16.9427 7.67135 17.0693 7.85535 17.232C8.03935 17.3947 8.17535 17.5893 8.26335 17.816C8.35401 18.0427 8.39935 18.2907 8.39935 18.56C8.39935 18.84 8.35268 19.0973 8.25935 19.332C8.16601 19.564 8.02601 19.764 7.83935 19.932C7.65268 20.1 7.41801 20.2307 7.13535 20.324C6.85535 20.4173 6.52735 20.464 6.15135 20.464H5.34735V22.5H4.27135V16.716H6.15135ZM14.7605 19.608C14.7605 20.032 14.6898 20.4213 14.5485 20.776C14.4071 21.1307 14.2085 21.436 13.9525 21.692C13.6965 21.948 13.3885 22.1467 13.0285 22.288C12.6685 22.4293 12.2685 22.5 11.8285 22.5H9.62447V16.716H11.8285C12.2685 16.716 12.6685 16.788 13.0285 16.932C13.3885 17.0733 13.6965 17.272 13.9525 17.528C14.2085 17.7813 14.4071 18.0853 14.5485 18.44C14.6898 18.7947 14.7605 19.184 14.7605 19.608ZM13.6565 19.608C13.6565 19.2907 13.6138 19.0067 13.5285 18.756C13.4458 18.5027 13.3245 18.2893 13.1645 18.116C13.0071 17.94 12.8151 17.8053 12.5885 17.712C12.3645 17.6187 12.1111 17.572 11.8285 17.572H10.7045V21.644H11.8285C12.1111 21.644 12.3645 21.5973 12.5885 21.504C12.8151 21.4107 13.0071 21.2773 13.1645 21.104C13.3245 20.928 13.4458 20.7147 13.5285 20.464C13.6138 20.2107 13.6565 19.9253 13.6565 19.608ZM17.1904 17.572V19.284H19.3584V20.144H17.1904V22.5H16.1104V16.716H19.7584V17.572H17.1904Z" fill="black"/>
</svg>
