<svg width="24" height="30" viewBox="0 0 24 30" fill="none" xmlns="http://www.w3.org/2000/svg">
<path d="M13.0858 0.5C13.2184 0.5 13.3456 0.552678 13.4393 0.646446L23.3536 10.5607C23.4473 10.6544 23.5 10.7816 23.5 10.9142V27C23.5 27.663 23.2366 28.2989 22.7678 28.7678C22.2989 29.2366 21.663 29.5 21 29.5H3C2.33696 29.5 1.70107 29.2366 1.23223 28.7678C0.763392 28.2989 0.5 27.663 0.5 27V3C0.5 2.33696 0.763392 1.70107 1.23223 1.23223C1.70107 0.763392 2.33696 0.5 3 0.5H13.0858Z" stroke="#558ADB" stroke-linecap="round" stroke-linejoin="round"/>
<path d="M13.5 1.5V9.5C13.5 10.0523 13.9477 10.5 14.5 10.5H22.5" stroke="#558ADB" stroke-linecap="round" stroke-linejoin="round"/>
<path d="M7.16284 20.444C7.16284 20.7693 7.12284 21.0627 7.04284 21.324C6.96284 21.5853 6.84284 21.808 6.68284 21.992C6.52551 22.176 6.32818 22.3173 6.09084 22.416C5.85351 22.5147 5.57751 22.564 5.26284 22.564C5.11884 22.564 4.97751 22.5547 4.83884 22.536C4.70018 22.52 4.55484 22.4933 4.40284 22.456C4.41084 22.3493 4.42018 22.2427 4.43084 22.136C4.44151 22.0293 4.45084 21.9227 4.45884 21.816C4.46684 21.7573 4.48951 21.7107 4.52684 21.676C4.56684 21.6387 4.62284 21.62 4.69484 21.62C4.74018 21.62 4.79884 21.6293 4.87084 21.648C4.94551 21.6667 5.03884 21.676 5.15084 21.676C5.30284 21.676 5.43751 21.6547 5.55484 21.612C5.67218 21.5667 5.76951 21.496 5.84684 21.4C5.92684 21.304 5.98684 21.18 6.02684 21.028C6.06684 20.8733 6.08684 20.6867 6.08684 20.468V16.716H7.16284V20.444ZM10.6763 19.624C10.8737 19.624 11.0457 19.6 11.1923 19.552C11.339 19.5013 11.4603 19.4307 11.5563 19.34C11.655 19.2467 11.7283 19.1347 11.7763 19.004C11.8243 18.8707 11.8483 18.7227 11.8483 18.56C11.8483 18.4053 11.8243 18.2653 11.7763 18.14C11.7283 18.0147 11.6563 17.908 11.5603 17.82C11.4643 17.732 11.343 17.6653 11.1963 17.62C11.0497 17.572 10.8763 17.548 10.6763 17.548H9.87234V19.624H10.6763ZM10.6763 16.716C11.063 16.716 11.3977 16.7613 11.6803 16.852C11.963 16.9427 12.1963 17.0693 12.3803 17.232C12.5643 17.3947 12.7003 17.5893 12.7883 17.816C12.879 18.0427 12.9243 18.2907 12.9243 18.56C12.9243 18.84 12.8777 19.0973 12.7843 19.332C12.691 19.564 12.551 19.764 12.3643 19.932C12.1777 20.1 11.943 20.2307 11.6603 20.324C11.3803 20.4173 11.0523 20.464 10.6763 20.464H9.87234V22.5H8.79634V16.716H10.6763ZM18.9175 19.6V21.94C18.6241 22.156 18.3108 22.3147 17.9775 22.416C17.6468 22.5147 17.2921 22.564 16.9135 22.564C16.4415 22.564 16.0135 22.4907 15.6295 22.344C15.2481 22.1973 14.9215 21.9933 14.6495 21.732C14.3801 21.4707 14.1721 21.1587 14.0255 20.796C13.8788 20.4333 13.8055 20.0373 13.8055 19.608C13.8055 19.1733 13.8761 18.7747 14.0175 18.412C14.1588 18.0493 14.3588 17.7373 14.6175 17.476C14.8788 17.2147 15.1948 17.012 15.5655 16.868C15.9361 16.724 16.3521 16.652 16.8135 16.652C17.0481 16.652 17.2668 16.6707 17.4695 16.708C17.6748 16.7453 17.8641 16.7973 18.0375 16.864C18.2135 16.928 18.3735 17.0067 18.5175 17.1C18.6615 17.1933 18.7935 17.296 18.9135 17.408L18.6055 17.896C18.5575 17.9733 18.4948 18.0213 18.4175 18.04C18.3401 18.056 18.2561 18.036 18.1655 17.98C18.0775 17.9293 17.9895 17.8787 17.9015 17.828C17.8135 17.7773 17.7148 17.7333 17.6055 17.696C17.4988 17.6587 17.3775 17.628 17.2415 17.604C17.1081 17.58 16.9535 17.568 16.7775 17.568C16.4921 17.568 16.2335 17.616 16.0015 17.712C15.7721 17.808 15.5761 17.9453 15.4135 18.124C15.2508 18.3027 15.1255 18.5173 15.0375 18.768C14.9495 19.0187 14.9055 19.2987 14.9055 19.608C14.9055 19.9387 14.9521 20.2347 15.0455 20.496C15.1415 20.7547 15.2748 20.9747 15.4455 21.156C15.6188 21.3347 15.8268 21.472 16.0695 21.568C16.3121 21.6613 16.5828 21.708 16.8815 21.708C17.0948 21.708 17.2855 21.6853 17.4535 21.64C17.6215 21.5947 17.7855 21.5333 17.9455 21.456V20.408H17.2175C17.1481 20.408 17.0935 20.3893 17.0535 20.352C17.0161 20.312 16.9975 20.264 16.9975 20.208V19.6H18.9175Z" fill="black"/>
</svg>
