<svg width="24" height="30" viewBox="0 0 24 30" fill="none" xmlns="http://www.w3.org/2000/svg">
<path d="M13.0858 0.5C13.2184 0.5 13.3456 0.552678 13.4393 0.646446L23.3536 10.5607C23.4473 10.6544 23.5 10.7816 23.5 10.9142V27C23.5 27.663 23.2366 28.2989 22.7678 28.7678C22.2989 29.2366 21.663 29.5 21 29.5H3C2.33696 29.5 1.70107 29.2366 1.23223 28.7678C0.763392 28.2989 0.5 27.663 0.5 27V3C0.5 2.33696 0.763392 1.70107 1.23223 1.23223C1.70107 0.763392 2.33696 0.5 3 0.5H13.0858Z" stroke="#558ADB" stroke-linecap="round" stroke-linejoin="round"/>
<path d="M13.5 1.5V9.5C13.5 10.0523 13.9477 10.5 14.5 10.5H22.5" stroke="#558ADB" stroke-linecap="round" stroke-linejoin="round"/>
<path d="M5.61697 17.572V19.176H7.64097V20.004H5.61697V21.64H8.18497V22.5H4.53697V16.716H8.18497V17.572H5.61697ZM14.2385 22.5H13.1665C13.0919 22.5 13.0319 22.4813 12.9865 22.444C12.9439 22.4067 12.9092 22.364 12.8825 22.316L11.5425 20.096C11.5212 20.1627 11.4959 20.22 11.4665 20.268L10.1825 22.316C10.1505 22.3613 10.1132 22.404 10.0705 22.444C10.0305 22.4813 9.9772 22.5 9.91053 22.5H8.90653L10.8265 19.524L8.98253 16.716H10.0545C10.1292 16.716 10.1825 16.7267 10.2145 16.748C10.2492 16.7667 10.2812 16.7987 10.3105 16.844L11.6265 18.964C11.6532 18.8973 11.6852 18.8307 11.7225 18.764L12.9305 16.864C12.9599 16.8133 12.9919 16.776 13.0265 16.752C13.0612 16.728 13.1052 16.716 13.1585 16.716H14.1865L12.3265 19.48L14.2385 22.5ZM19.059 21.136C19.1176 21.136 19.1696 21.1587 19.215 21.204L19.639 21.664C19.4043 21.9547 19.115 22.1773 18.771 22.332C18.4296 22.4867 18.019 22.564 17.539 22.564C17.1096 22.564 16.723 22.4907 16.379 22.344C16.0376 22.1973 15.7456 21.9933 15.503 21.732C15.2603 21.4707 15.0736 21.1587 14.943 20.796C14.815 20.4333 14.751 20.0373 14.751 19.608C14.751 19.1733 14.8203 18.776 14.959 18.416C15.0976 18.0533 15.2923 17.7413 15.543 17.48C15.7963 17.2187 16.0976 17.016 16.447 16.872C16.7963 16.7253 17.183 16.652 17.607 16.652C18.0283 16.652 18.4016 16.7213 18.727 16.86C19.055 16.9987 19.3336 17.18 19.563 17.404L19.203 17.904C19.1816 17.936 19.1536 17.964 19.119 17.988C19.087 18.012 19.0416 18.024 18.983 18.024C18.943 18.024 18.9016 18.0133 18.859 17.992C18.8163 17.968 18.7696 17.94 18.719 17.908C18.6683 17.8733 18.6096 17.836 18.543 17.796C18.4763 17.756 18.399 17.72 18.311 17.688C18.223 17.6533 18.1203 17.6253 18.003 17.604C17.8883 17.58 17.755 17.568 17.603 17.568C17.3443 17.568 17.107 17.6147 16.891 17.708C16.6776 17.7987 16.4936 17.932 16.339 18.108C16.1843 18.2813 16.0643 18.4947 15.979 18.748C15.8936 18.9987 15.851 19.2853 15.851 19.608C15.851 19.9333 15.8963 20.2227 15.987 20.476C16.0803 20.7293 16.2056 20.9427 16.363 21.116C16.5203 21.2893 16.7056 21.4227 16.919 21.516C17.1323 21.6067 17.3616 21.652 17.607 21.652C17.7536 21.652 17.8856 21.644 18.003 21.628C18.123 21.612 18.2323 21.5867 18.331 21.552C18.4323 21.5173 18.527 21.4733 18.615 21.42C18.7056 21.364 18.795 21.296 18.883 21.216C18.9096 21.192 18.9376 21.1733 18.967 21.16C18.9963 21.144 19.027 21.136 19.059 21.136Z" fill="black"/>
</svg>
