<svg width="24" height="30" viewBox="0 0 24 30" fill="none" xmlns="http://www.w3.org/2000/svg">
<path d="M13.0858 0.5C13.2184 0.5 13.3456 0.552678 13.4393 0.646446L23.3536 10.5607C23.4473 10.6544 23.5 10.7816 23.5 10.9142V27C23.5 27.663 23.2366 28.2989 22.7678 28.7678C22.2989 29.2366 21.663 29.5 21 29.5H3C2.33696 29.5 1.70107 29.2366 1.23223 28.7678C0.763392 28.2989 0.5 27.663 0.5 27V3C0.5 2.33696 0.763392 1.70107 1.23223 1.23223C1.70107 0.763392 2.33696 0.5 3 0.5H13.0858Z" stroke="#558ADB" stroke-linecap="round" stroke-linejoin="round"/>
<path d="M13.5 1.5V9.5C13.5 10.0523 13.9477 10.5 14.5 10.5H22.5" stroke="#558ADB" stroke-linecap="round" stroke-linejoin="round"/>
<path d="M9.75038 16.716V22.5H8.80238V18.764C8.80238 18.6147 8.81038 18.4533 8.82638 18.28L7.07838 21.564C6.99571 21.7213 6.86904 21.8 6.69838 21.8H6.54638C6.37571 21.8 6.24904 21.7213 6.16638 21.564L4.39838 18.268C4.40638 18.356 4.41304 18.4427 4.41838 18.528C4.42371 18.6133 4.42638 18.692 4.42638 18.764V22.5H3.47838V16.716H4.29038C4.33838 16.716 4.37971 16.7173 4.41438 16.72C4.44904 16.7227 4.47971 16.7293 4.50638 16.74C4.53571 16.7507 4.56104 16.768 4.58238 16.792C4.60638 16.816 4.62904 16.848 4.65038 16.888L6.38238 20.1C6.42771 20.1853 6.46904 20.2733 6.50638 20.364C6.54638 20.4547 6.58504 20.548 6.62238 20.644C6.65971 20.5453 6.69838 20.4507 6.73838 20.36C6.77838 20.2667 6.82104 20.1773 6.86638 20.092L8.57438 16.888C8.59571 16.848 8.61838 16.816 8.64238 16.792C8.66638 16.768 8.69171 16.7507 8.71838 16.74C8.74771 16.7293 8.77971 16.7227 8.81438 16.72C8.84904 16.7173 8.89038 16.716 8.93838 16.716H9.75038ZM13.3209 19.624C13.5182 19.624 13.6902 19.6 13.8369 19.552C13.9835 19.5013 14.1049 19.4307 14.2009 19.34C14.2995 19.2467 14.3729 19.1347 14.4209 19.004C14.4689 18.8707 14.4929 18.7227 14.4929 18.56C14.4929 18.4053 14.4689 18.2653 14.4209 18.14C14.3729 18.0147 14.3009 17.908 14.2049 17.82C14.1089 17.732 13.9875 17.6653 13.8409 17.62C13.6942 17.572 13.5209 17.548 13.3209 17.548H12.5169V19.624H13.3209ZM13.3209 16.716C13.7075 16.716 14.0422 16.7613 14.3249 16.852C14.6075 16.9427 14.8409 17.0693 15.0249 17.232C15.2089 17.3947 15.3449 17.5893 15.4329 17.816C15.5235 18.0427 15.5689 18.2907 15.5689 18.56C15.5689 18.84 15.5222 19.0973 15.4289 19.332C15.3355 19.564 15.1955 19.764 15.0089 19.932C14.8222 20.1 14.5875 20.2307 14.3049 20.324C14.0249 20.4173 13.6969 20.464 13.3209 20.464H12.5169V22.5H11.4409V16.716H13.3209ZM18.998 20.32V18.428C18.998 18.2493 19.01 18.052 19.034 17.836L17.238 20.32H18.998ZM20.586 20.32V20.892C20.586 20.9453 20.5687 20.992 20.534 21.032C20.4993 21.0693 20.45 21.088 20.386 21.088H19.858V22.5H18.998V21.088H16.558C16.4913 21.088 16.4327 21.068 16.382 21.028C16.3313 20.9853 16.2993 20.9333 16.286 20.872L16.182 20.372L18.922 16.712H19.858V20.32H20.586Z" fill="black"/>
</svg>
