<svg width="24" height="30" viewBox="0 0 24 30" fill="none" xmlns="http://www.w3.org/2000/svg">
<path d="M13.0858 0.5C13.2184 0.5 13.3456 0.552678 13.4393 0.646446L23.3536 10.5607C23.4473 10.6544 23.5 10.7816 23.5 10.9142V27C23.5 27.663 23.2366 28.2989 22.7678 28.7678C22.2989 29.2366 21.663 29.5 21 29.5H3C2.33696 29.5 1.70107 29.2366 1.23223 28.7678C0.763392 28.2989 0.5 27.663 0.5 27V3C0.5 2.33696 0.763392 1.70107 1.23223 1.23223C1.70107 0.763392 2.33696 0.5 3 0.5H13.0858Z" stroke="#558ADB" stroke-linecap="round" stroke-linejoin="round"/>
<path d="M13.5 1.5V9.5C13.5 10.0523 13.9477 10.5 14.5 10.5H22.5" stroke="#558ADB" stroke-linecap="round" stroke-linejoin="round"/>
<path d="M8.27453 19.608C8.27453 20.032 8.20387 20.4213 8.06253 20.776C7.9212 21.1307 7.72253 21.436 7.46653 21.692C7.21053 21.948 6.90253 22.1467 6.54253 22.288C6.18253 22.4293 5.78253 22.5 5.34253 22.5H3.13853V16.716H5.34253C5.78253 16.716 6.18253 16.788 6.54253 16.932C6.90253 17.0733 7.21053 17.272 7.46653 17.528C7.72253 17.7813 7.9212 18.0853 8.06253 18.44C8.20387 18.7947 8.27453 19.184 8.27453 19.608ZM7.17053 19.608C7.17053 19.2907 7.12787 19.0067 7.04253 18.756C6.95987 18.5027 6.83853 18.2893 6.67853 18.116C6.5212 17.94 6.3292 17.8053 6.10253 17.712C5.87853 17.6187 5.6252 17.572 5.34253 17.572H4.21853V21.644H5.34253C5.6252 21.644 5.87853 21.5973 6.10253 21.504C6.3292 21.4107 6.5212 21.2773 6.67853 21.104C6.83853 20.928 6.95987 20.7147 7.04253 20.464C7.12787 20.2107 7.17053 19.9253 7.17053 19.608ZM15.1405 19.608C15.1405 20.032 15.0698 20.4253 14.9285 20.788C14.7898 21.148 14.5925 21.46 14.3365 21.724C14.0805 21.988 13.7725 22.1947 13.4125 22.344C13.0525 22.4907 12.6525 22.564 12.2125 22.564C11.7751 22.564 11.3765 22.4907 11.0165 22.344C10.6565 22.1947 10.3471 21.988 10.0885 21.724C9.83247 21.46 9.6338 21.148 9.49247 20.788C9.35114 20.4253 9.28047 20.032 9.28047 19.608C9.28047 19.184 9.35114 18.792 9.49247 18.432C9.6338 18.0693 9.83247 17.756 10.0885 17.492C10.3471 17.228 10.6565 17.0227 11.0165 16.876C11.3765 16.7267 11.7751 16.652 12.2125 16.652C12.5058 16.652 12.7818 16.6867 13.0405 16.756C13.2991 16.8227 13.5365 16.9187 13.7525 17.044C13.9685 17.1667 14.1618 17.3173 14.3325 17.496C14.5058 17.672 14.6525 17.8693 14.7725 18.088C14.8925 18.3067 14.9831 18.544 15.0445 18.8C15.1085 19.056 15.1405 19.3253 15.1405 19.608ZM14.0405 19.608C14.0405 19.2907 13.9978 19.0067 13.9125 18.756C13.8271 18.5027 13.7058 18.288 13.5485 18.112C13.3911 17.936 13.1991 17.8013 12.9725 17.708C12.7485 17.6147 12.4951 17.568 12.2125 17.568C11.9298 17.568 11.6751 17.6147 11.4485 17.708C11.2245 17.8013 11.0325 17.936 10.8725 18.112C10.7151 18.288 10.5938 18.5027 10.5085 18.756C10.4231 19.0067 10.3805 19.2907 10.3805 19.608C10.3805 19.9253 10.4231 20.2107 10.5085 20.464C10.5938 20.7147 10.7151 20.928 10.8725 21.104C11.0325 21.2773 11.2245 21.4107 11.4485 21.504C11.6751 21.5973 11.9298 21.644 12.2125 21.644C12.4951 21.644 12.7485 21.5973 12.9725 21.504C13.1991 21.4107 13.3911 21.2773 13.5485 21.104C13.7058 20.928 13.8271 20.7147 13.9125 20.464C13.9978 20.2107 14.0405 19.9253 14.0405 19.608ZM20.4574 21.136C20.5161 21.136 20.5681 21.1587 20.6134 21.204L21.0374 21.664C20.8027 21.9547 20.5134 22.1773 20.1694 22.332C19.8281 22.4867 19.4174 22.564 18.9374 22.564C18.5081 22.564 18.1214 22.4907 17.7774 22.344C17.4361 22.1973 17.1441 21.9933 16.9014 21.732C16.6587 21.4707 16.4721 21.1587 16.3414 20.796C16.2134 20.4333 16.1494 20.0373 16.1494 19.608C16.1494 19.1733 16.2187 18.776 16.3574 18.416C16.4961 18.0533 16.6907 17.7413 16.9414 17.48C17.1947 17.2187 17.4961 17.016 17.8454 16.872C18.1947 16.7253 18.5814 16.652 19.0054 16.652C19.4267 16.652 19.8001 16.7213 20.1254 16.86C20.4534 16.9987 20.7321 17.18 20.9614 17.404L20.6014 17.904C20.5801 17.936 20.5521 17.964 20.5174 17.988C20.4854 18.012 20.4401 18.024 20.3814 18.024C20.3414 18.024 20.3001 18.0133 20.2574 17.992C20.2147 17.968 20.1681 17.94 20.1174 17.908C20.0667 17.8733 20.0081 17.836 19.9414 17.796C19.8747 17.756 19.7974 17.72 19.7094 17.688C19.6214 17.6533 19.5187 17.6253 19.4014 17.604C19.2867 17.58 19.1534 17.568 19.0014 17.568C18.7427 17.568 18.5054 17.6147 18.2894 17.708C18.0761 17.7987 17.8921 17.932 17.7374 18.108C17.5827 18.2813 17.4627 18.4947 17.3774 18.748C17.2921 18.9987 17.2494 19.2853 17.2494 19.608C17.2494 19.9333 17.2947 20.2227 17.3854 20.476C17.4787 20.7293 17.6041 20.9427 17.7614 21.116C17.9187 21.2893 18.1041 21.4227 18.3174 21.516C18.5307 21.6067 18.7601 21.652 19.0054 21.652C19.1521 21.652 19.2841 21.644 19.4014 21.628C19.5214 21.612 19.6307 21.5867 19.7294 21.552C19.8307 21.5173 19.9254 21.4733 20.0134 21.42C20.1041 21.364 20.1934 21.296 20.2814 21.216C20.3081 21.192 20.3361 21.1733 20.3654 21.16C20.3947 21.144 20.4254 21.136 20.4574 21.136Z" fill="black"/>
</svg>
