<svg width="16" height="16" viewBox="0 0 16 16" fill="none" xmlns="http://www.w3.org/2000/svg">
<path d="M14.5888 7.95842L8.98178 13.226C8.18287 13.9765 7.09887 14.3985 5.96824 14.3993C4.83762 14.4 3.75298 13.9794 2.95294 13.23C2.1529 12.4806 1.703 11.4638 1.7022 10.4032C1.7014 9.34264 2.14977 8.32521 2.94868 7.57474L8.56423 2.29914C9.04448 1.8497 9.69539 1.59764 10.3738 1.59839C11.0521 1.59914 11.7024 1.85264 12.1815 2.30313C12.6607 2.75363 12.9294 3.3642 12.9286 4.00055C12.9278 4.63689 12.6575 5.24687 12.1773 5.6963L6.57024 10.9639C6.40978 11.1144 6.19215 11.199 5.96523 11.199C5.73831 11.199 5.52068 11.1144 5.36022 10.9639C5.19976 10.8134 5.10961 10.6093 5.10961 10.3964C5.10961 10.1835 5.19976 9.97938 5.36022 9.82886L10.9758 4.56924C11.0552 4.49472 11.1182 4.40624 11.1612 4.30886C11.2042 4.21148 11.2264 4.10712 11.2264 4.00172C11.2264 3.89632 11.2042 3.79195 11.1612 3.69457C11.1182 3.5972 11.0552 3.50872 10.9758 3.43419C10.8963 3.35966 10.802 3.30054 10.6982 3.26021C10.5944 3.21987 10.4831 3.19911 10.3708 3.19911C10.2584 3.19911 10.1471 3.21987 10.0433 3.26021C9.93951 3.30054 9.84519 3.35966 9.76574 3.43419L4.15871 8.7018C3.70715 9.15638 3.46131 9.75763 3.473 10.3789C3.48468 11.0001 3.75298 11.5929 4.22135 12.0322C4.68973 12.4716 5.32162 12.7232 5.9839 12.7342C6.64618 12.7452 7.28714 12.5146 7.77175 12.091L13.3873 6.83136C14.1873 6.08089 14.6368 5.06304 14.6368 4.00172C14.6368 2.9404 14.1873 1.92254 13.3873 1.17208C12.5873 0.421608 11.5022 7.90746e-09 10.3708 0C9.23933 -7.90746e-09 8.15424 0.421608 7.35421 1.17208L1.74718 6.44768C0.628478 7.49706 0 8.92033 0 10.4044C0 11.8884 0.628478 13.3117 1.74718 14.3611C2.86587 15.4105 4.38315 16 5.96523 16C7.54731 16 9.06459 15.4105 10.1833 14.3611L15.7988 9.08548C15.9374 8.93165 16.0089 8.73444 15.9991 8.53328C15.9893 8.33212 15.899 8.14183 15.7461 8.00046C15.5933 7.85908 15.3891 7.77704 15.1746 7.77073C14.96 7.76441 14.7508 7.8343 14.5888 7.96641V7.95842Z" fill="#9B9B9B"/>
</svg>
