<svg width="24" height="30" viewBox="0 0 24 30" fill="none" xmlns="http://www.w3.org/2000/svg">
<path d="M13.0858 0.5C13.2184 0.5 13.3456 0.552678 13.4393 0.646446L23.3536 10.5607C23.4473 10.6544 23.5 10.7816 23.5 10.9142V27C23.5 27.663 23.2366 28.2989 22.7678 28.7678C22.2989 29.2366 21.663 29.5 21 29.5H3C2.33696 29.5 1.70107 29.2366 1.23223 28.7678C0.763392 28.2989 0.5 27.663 0.5 27V3C0.5 2.33696 0.763392 1.70107 1.23223 1.23223C1.70107 0.763392 2.33696 0.5 3 0.5H13.0858Z" stroke="#558ADB" stroke-linecap="round" stroke-linejoin="round"/>
<path d="M13.5 1.5V9.5C13.5 10.0523 13.9477 10.5 14.5 10.5H22.5" stroke="#558ADB" stroke-linecap="round" stroke-linejoin="round"/>
<path d="M5.88653 19.468C6.0892 19.468 6.2652 19.4427 6.41453 19.392C6.56653 19.3413 6.69053 19.272 6.78653 19.184C6.8852 19.0933 6.95853 18.9867 7.00653 18.864C7.05453 18.7413 7.07853 18.6067 7.07853 18.46C7.07853 18.1667 6.9812 17.9413 6.78653 17.784C6.59453 17.6267 6.29987 17.548 5.90253 17.548H5.21453V19.468H5.88653ZM8.65453 22.5H7.68253C7.49853 22.5 7.3652 22.428 7.28253 22.284L6.06653 20.432C6.0212 20.3627 5.97053 20.3133 5.91453 20.284C5.8612 20.2547 5.7812 20.24 5.67453 20.24H5.21453V22.5H4.13853V16.716H5.90253C6.29453 16.716 6.63053 16.7573 6.91053 16.84C7.1932 16.92 7.42387 17.0333 7.60253 17.18C7.78387 17.3267 7.9172 17.5027 8.00253 17.708C8.08787 17.9107 8.13053 18.1347 8.13053 18.38C8.13053 18.5747 8.1012 18.7587 8.04253 18.932C7.98653 19.1053 7.90387 19.2627 7.79453 19.404C7.68787 19.5453 7.55453 19.6693 7.39453 19.776C7.2372 19.8827 7.0572 19.9667 6.85453 20.028C6.92387 20.068 6.98787 20.116 7.04653 20.172C7.1052 20.2253 7.15853 20.2893 7.20653 20.364L8.65453 22.5ZM12.7352 20.316L12.0312 18.392C11.9965 18.3067 11.9605 18.2053 11.9232 18.088C11.8858 17.9707 11.8485 17.844 11.8112 17.708C11.7765 17.844 11.7405 17.972 11.7032 18.092C11.6658 18.2093 11.6298 18.312 11.5952 18.4L10.8952 20.316H12.7352ZM14.6352 22.5H13.8032C13.7098 22.5 13.6338 22.4773 13.5752 22.432C13.5165 22.384 13.4725 22.3253 13.4432 22.256L13.0112 21.076H10.6152L10.1832 22.256C10.1618 22.3173 10.1205 22.3733 10.0592 22.424C9.99782 22.4747 9.92182 22.5 9.83116 22.5H8.99116L11.2672 16.716H12.3632L14.6352 22.5ZM17.3818 19.468C17.5845 19.468 17.7605 19.4427 17.9098 19.392C18.0618 19.3413 18.1858 19.272 18.2818 19.184C18.3805 19.0933 18.4538 18.9867 18.5018 18.864C18.5498 18.7413 18.5738 18.6067 18.5738 18.46C18.5738 18.1667 18.4765 17.9413 18.2818 17.784C18.0898 17.6267 17.7952 17.548 17.3978 17.548H16.7098V19.468H17.3818ZM20.1498 22.5H19.1778C18.9938 22.5 18.8605 22.428 18.7778 22.284L17.5618 20.432C17.5165 20.3627 17.4658 20.3133 17.4098 20.284C17.3565 20.2547 17.2765 20.24 17.1698 20.24H16.7098V22.5H15.6338V16.716H17.3978C17.7898 16.716 18.1258 16.7573 18.4058 16.84C18.6885 16.92 18.9192 17.0333 19.0978 17.18C19.2792 17.3267 19.4125 17.5027 19.4978 17.708C19.5832 17.9107 19.6258 18.1347 19.6258 18.38C19.6258 18.5747 19.5965 18.7587 19.5378 18.932C19.4818 19.1053 19.3992 19.2627 19.2898 19.404C19.1832 19.5453 19.0498 19.6693 18.8898 19.776C18.7325 19.8827 18.5525 19.9667 18.3498 20.028C18.4192 20.068 18.4832 20.116 18.5418 20.172C18.6005 20.2253 18.6538 20.2893 18.7018 20.364L20.1498 22.5Z" fill="black"/>
</svg>
