<svg width="15" height="16" viewBox="0 0 15 16" fill="none" xmlns="http://www.w3.org/2000/svg">
<path d="M12.8403 7.46724L7.90527 12.4097C7.20211 13.1139 6.24803 13.5099 5.25292 13.5106C4.2578 13.5113 3.30317 13.1166 2.59902 12.4135C1.89487 11.7103 1.49889 10.7563 1.49818 9.76114C1.49748 8.76602 1.89211 7.81139 2.59527 7.10724L7.53777 2.15724C7.96046 1.73554 8.53335 1.49903 9.13042 1.49974C9.72749 1.50044 10.2998 1.7383 10.7215 2.16099C11.1432 2.58368 11.3797 3.15657 11.379 3.75364C11.3783 4.35071 11.1405 4.92304 10.7178 5.34474L5.78277 10.2872C5.64154 10.4285 5.44999 10.5078 5.25027 10.5078C5.05054 10.5078 4.859 10.4285 4.71777 10.2872C4.57654 10.146 4.4972 9.95446 4.4972 9.75474C4.4972 9.55501 4.57654 9.36347 4.71777 9.22224L9.66027 4.28724C9.7302 4.21731 9.78567 4.13429 9.82351 4.04292C9.86136 3.95156 9.88084 3.85363 9.88084 3.75474C9.88084 3.65584 9.86136 3.55792 9.82351 3.46655C9.78567 3.37518 9.7302 3.29217 9.66027 3.22224C9.59034 3.15231 9.50732 3.09684 9.41595 3.05899C9.32459 3.02115 9.22666 3.00167 9.12777 3.00167C9.02887 3.00167 8.93095 3.02115 8.83958 3.05899C8.74821 3.09684 8.6652 3.15231 8.59527 3.22224L3.66027 8.16474C3.26283 8.59126 3.04646 9.1554 3.05674 9.73831C3.06703 10.3212 3.30316 10.8774 3.7154 11.2896C4.12764 11.7018 4.6838 11.938 5.2667 11.9483C5.8496 11.9585 6.41374 11.7422 6.84027 11.3447L11.7828 6.40974C12.4869 5.70559 12.8825 4.75056 12.8825 3.75474C12.8825 2.75892 12.4869 1.80389 11.7828 1.09974C11.0786 0.395587 10.1236 7.41942e-09 9.12777 0C8.13195 -7.41942e-09 7.17692 0.395587 6.47277 1.09974L1.53777 6.04974C0.553152 7.03435 0 8.36978 0 9.76224C0 11.1547 0.553152 12.4901 1.53777 13.4747C2.52238 14.4594 3.85781 15.0125 5.25027 15.0125C6.64273 15.0125 7.97815 14.4594 8.96277 13.4747L13.9053 8.52474C14.0272 8.3804 14.0901 8.19536 14.0815 8.00662C14.0729 7.81788 13.9934 7.63933 13.8589 7.50668C13.7243 7.37403 13.5447 7.29705 13.3558 7.29113C13.167 7.28521 12.9829 7.35078 12.8403 7.47474V7.46724Z" fill="#797979"/>
</svg>
