<svg width="18" height="19" viewBox="0 0 18 19" fill="none" xmlns="http://www.w3.org/2000/svg">
<path fill-rule="evenodd" clip-rule="evenodd" d="M12.3275 9.00088C13.1483 8.35792 13.7481 7.47492 14.0432 6.47493C14.3384 5.47494 14.3143 4.40777 13.9742 3.42215C13.6341 2.43653 12.995 1.58155 12.146 0.976354C11.297 0.371159 10.2803 0.0458984 9.23764 0.0458984C8.195 0.0458984 7.17833 0.371159 6.3293 0.976354C5.48027 1.58155 4.84119 2.43653 4.50111 3.42215C4.16103 4.40777 4.13689 5.47494 4.43206 6.47493C4.72723 7.47492 5.32701 8.35792 6.1478 9.00088C4.59663 9.61866 3.26625 10.6872 2.32844 12.0686C1.39063 13.4501 0.888442 15.0809 0.886719 16.7505V17.5856C0.886719 17.8071 0.974701 18.0195 1.13131 18.1761C1.28792 18.3327 1.50033 18.4207 1.72181 18.4207C1.94329 18.4207 2.1557 18.3327 2.31231 18.1761C2.46892 18.0195 2.5569 17.8071 2.5569 17.5856V16.7505C2.5569 14.9787 3.26077 13.2794 4.51365 12.0265C5.76653 10.7737 7.4658 10.0698 9.23764 10.0698C11.0095 10.0698 12.7088 10.7737 13.9616 12.0265C15.2145 13.2794 15.9184 14.9787 15.9184 16.7505V17.5856C15.9184 17.8071 16.0064 18.0195 16.163 18.1761C16.3196 18.3327 16.532 18.4207 16.7535 18.4207C16.975 18.4207 17.1874 18.3327 17.344 18.1761C17.5006 18.0195 17.5886 17.8071 17.5886 17.5856V16.7505C17.5868 15.0809 17.0847 13.4501 16.1468 12.0686C15.209 10.6872 13.8787 9.61866 12.3275 9.00088ZM5.89727 5.05925C5.89727 4.39858 6.09318 3.75276 6.46023 3.20344C6.82727 2.65412 7.34897 2.22597 7.95934 1.97315C8.56971 1.72032 9.24135 1.65417 9.88932 1.78306C10.5373 1.91195 11.1325 2.23009 11.5996 2.69725C12.0668 3.16441 12.3849 3.7596 12.5138 4.40757C12.6427 5.05554 12.5766 5.72718 12.3237 6.33755C12.0709 6.94792 11.6428 7.46962 11.0935 7.83666C10.5441 8.20371 9.8983 8.39962 9.23764 8.39962C8.35172 8.39962 7.50209 8.04768 6.87564 7.42124C6.2492 6.7948 5.89727 5.94517 5.89727 5.05925Z" fill="#282828"/>
</svg>
