<svg width="20" height="20" viewBox="0 0 20 20" fill="none" xmlns="http://www.w3.org/2000/svg">
<path d="M19.1284 10.005L19.1284 17.2039C19.1361 17.6619 19.0285 18.1146 18.8154 18.5202C18.6022 18.9257 18.2905 19.2712 17.9088 19.5246C17.4658 19.8338 16.9383 19.999 16.3981 19.9978L10.9375 19.9978C10.7564 20.0107 10.5759 19.9656 10.4221 19.8691C10.2683 19.7726 10.1492 19.6296 10.082 19.4609C10.001 19.3023 9.97141 19.1223 9.99752 18.9461C10.0236 18.7699 10.1041 18.6063 10.2277 18.478C10.3158 18.3802 10.4241 18.3028 10.5451 18.2509C10.6661 18.1991 10.7968 18.1741 10.9284 18.1777L16.3344 18.1777C16.478 18.1816 16.6204 18.1515 16.7501 18.0898C16.8798 18.0281 16.9931 17.9366 17.0807 17.8227C17.1993 17.6724 17.2635 17.4863 17.2627 17.2949L17.2627 2.78799C17.2723 2.65685 17.2534 2.52518 17.2073 2.40203C17.1612 2.27889 17.089 2.1672 16.9956 2.07465C16.9022 1.9821 16.7898 1.9109 16.6662 1.86593C16.5427 1.82097 16.4108 1.80332 16.2798 1.81419L10.9375 1.81419C10.7952 1.81911 10.6537 1.79057 10.5245 1.73086C10.3952 1.67116 10.2817 1.58195 10.1932 1.47041C10.1047 1.35888 10.0436 1.22812 10.0148 1.08867C9.98599 0.949215 9.99032 0.804951 10.0274 0.667477C10.0776 0.486784 10.1823 0.325983 10.3272 0.207066C10.4722 0.0881462 10.6504 0.0169143 10.8374 0.00310894C10.8767 -0.00103573 10.9164 -0.00103573 10.9557 0.00310894L16.3162 0.00310871C17.0403 0.00310868 17.7347 0.290762 18.2468 0.802789C18.7588 1.31482 19.0465 2.00927 19.0465 2.73339L19.1284 10.005Z" fill="#9F9F9F"/>
<path d="M12.6569 10.7069L1.00766 10.7069C0.818287 10.7177 0.629542 10.6768 0.461608 10.5886C0.28555 10.4889 0.147738 10.3334 0.0699492 10.1466C-0.00783943 9.9598 -0.0211685 9.75242 0.0320683 9.55722C0.0853051 9.36202 0.202072 9.19012 0.363916 9.0687C0.525761 8.94727 0.723454 8.88324 0.925755 8.88672L12.6569 8.88672L12.5476 8.75021L10.7275 6.52048C10.613 6.37197 10.5472 6.19172 10.539 6.00438C10.5309 5.81704 10.5808 5.63176 10.682 5.47387C10.7567 5.34407 10.8622 5.23472 10.9893 5.1555C11.1164 5.07628 11.2611 5.02966 11.4106 5.01975C11.56 5.00985 11.7096 5.03698 11.846 5.09873C11.9824 5.16048 12.1015 5.25495 12.1927 5.37376L15.1687 9.09604C15.3239 9.28616 15.4087 9.52407 15.4087 9.76951C15.4087 10.015 15.3239 10.2529 15.1687 10.443L12.1836 14.2017C12.0329 14.38 11.8195 14.4936 11.5875 14.519C11.3554 14.5444 11.1225 14.4797 10.9368 14.3382C10.8433 14.2631 10.7656 14.1702 10.7081 14.065C10.6506 13.9598 10.6144 13.8442 10.6018 13.7249C10.5891 13.6057 10.6001 13.4851 10.6341 13.3701C10.6682 13.2552 10.7247 13.148 10.8003 13.0549L12.0926 11.4441L12.6569 10.7069Z" fill="#9F9F9F"/>
</svg>
