<svg width="15" height="13" viewBox="0 0 15 13" fill="none" xmlns="http://www.w3.org/2000/svg">
<path fill-rule="evenodd" clip-rule="evenodd" d="M12.35 1.3H11.7V0.65C11.7 0.477609 11.6315 0.312279 11.5096 0.190381C11.3877 0.0684819 11.2224 0 11.05 0C10.8776 0 10.7123 0.0684819 10.5904 0.190381C10.4685 0.312279 10.4 0.477609 10.4 0.65V1.3H3.9V0.65C3.9 0.477609 3.83152 0.312279 3.70962 0.190381C3.58772 0.0684819 3.42239 0 3.25 0C3.07761 0 2.91228 0.0684819 2.79038 0.190381C2.66848 0.312279 2.6 0.477609 2.6 0.65V1.3H1.95C1.43283 1.3 0.936838 1.50545 0.571142 1.87114C0.205446 2.23684 0 2.73283 0 3.25V11.05C0 11.5672 0.205446 12.0632 0.571142 12.4289C0.936838 12.7946 1.43283 13 1.95 13H12.35C12.8672 13 13.3632 12.7946 13.7289 12.4289C14.0946 12.0632 14.3 11.5672 14.3 11.05V3.25C14.3 2.73283 14.0946 2.23684 13.7289 1.87114C13.3632 1.50545 12.8672 1.3 12.35 1.3ZM1.3 3.25C1.3 3.07761 1.36848 2.91228 1.49038 2.79038C1.61228 2.66848 1.77761 2.6 1.95 2.6H12.35C12.5224 2.6 12.6877 2.66848 12.8096 2.79038C12.9315 2.91228 13 3.07761 13 3.25V3.9H1.3V3.25ZM13 11.05C13 11.2224 12.9315 11.3877 12.8096 11.5096C12.6877 11.6315 12.5224 11.7 12.35 11.7H1.95C1.77761 11.7 1.61228 11.6315 1.49038 11.5096C1.36848 11.3877 1.3 11.2224 1.3 11.05V5.2H13V11.05Z" fill="#727272"/>
<path d="M4.03156 6.5H3.12156C2.83437 6.5 2.60156 6.73281 2.60156 7.02V7.93C2.60156 8.21719 2.83437 8.45 3.12156 8.45H4.03156C4.31875 8.45 4.55156 8.21719 4.55156 7.93V7.02C4.55156 6.73281 4.31875 6.5 4.03156 6.5Z" fill="#727272"/>
<path d="M7.28156 6.5H6.37156C6.08437 6.5 5.85156 6.73281 5.85156 7.02V7.93C5.85156 8.21719 6.08437 8.45 6.37156 8.45H7.28156C7.56875 8.45 7.80156 8.21719 7.80156 7.93V7.02C7.80156 6.73281 7.56875 6.5 7.28156 6.5Z" fill="#727272"/>
</svg>
