<svg id="Слой_1" data-name="Слой 1" xmlns="http://www.w3.org/2000/svg" viewBox="0 0 119.78 21.39"><defs><style>.cls-1{fill:#1d1d1b;}.cls-2{fill:#038ac9;}.cls-3{fill:none;stroke:#fff;stroke-width:0.04px;}</style></defs><title>logo</title><path class="cls-1" d="M21.4,19.63V18.24h1.42a.71.71,0,0,1,.7.7.7.7,0,0,1-.7.7Zm0-3.16V15.07h1a.7.7,0,1,1,0,1.39Zm1.86,4.9a2.35,2.35,0,0,0,1.45-4.21,2.36,2.36,0,0,0,.51-1.45,2.43,2.43,0,0,0-2.38-2.39H19.29v8Zm3.63,0h5V19.66H29V18.17h2.55V16.39H29V15.07h2.89V13.33h-5v8.06Zm6.51,0h5V19.66H35.51V18.17h2.55V16.39H35.51V15.07h2.89V13.33h-5v8.06Zm6-3.67h4.23V16H39.4v1.69Zm5.28-2.29h2.09v6h2.11v-6H51v-2.1H44.68v2.1Zm7.21,1.94a4,4,0,1,0,4-4,4,4,0,0,0-4,4Zm5.93,0a1.92,1.92,0,1,1-1.92-1.93,1.93,1.93,0,0,1,1.92,1.93Zm7.31-.3v1.41h1.56a1.91,1.91,0,1,1-.21-2.5L68,14.49a4,4,0,1,0,1.19,2.87v-.3Zm5.18,4.32h5V19.66H72.42V18.17H75V16.39H72.42V15.07h2.89V13.33h-5v8.06Zm6.34-6h2.09v6h2.11v-6H83v-2.1H76.65v2.1Zm7.8-2.09v8h2.11V18.31h2.55v3.07h2.11v-8H89.12V16.2H86.57V13.34Zm8.4,8h5V19.66H95V18.17h2.55V16.39H95V15.07h2.89V13.33h-5v8.06Zm13.61,0-1.71-2.92a3,3,0,0,0-2-5.13H99.37v8.06h2.11V19.24h1.31L104,21.38Zm-5-6.27h1.31a1.15,1.15,0,1,1,0,2.31h-1.31V15.11Zm5.66,5.4a.85.85,0,1,0,1.69,0,.85.85,0,1,0-1.69,0Zm7.57.87-1.17-2a2,2,0,0,0-1.38-3.53h-2.33v5.53h1.45V19.91h.9l.86,1.47Zm-3.43-4.31h.9a.79.79,0,1,1,0,1.59h-.9V17.07Zm5.59-1.22h-1.46V19.2a2.18,2.18,0,1,0,4.36,0V15.85h-1.46v3.33a.72.72,0,1,1-1.45,0V15.85Z"/><polygon class="cls-2" points="11.14 6.52 3.71 6.52 0 12.95 3.71 19.38 11.14 19.38 14.85 12.95 11.14 6.52 11.14 6.52"/><path class="cls-1" d="M29.88,10.54h.37l.25-.63h1.22l.25.63h.39L31.32,8h-.37l-1.06,2.49Zm1.73-.92h-1l.5-1.24.5,1.24ZM32.37,8l.88,1.81-.08.2a.44.44,0,0,1-.11.15.28.28,0,0,1-.17,0,.62.62,0,0,1-.21,0l0,.31a1.07,1.07,0,0,0,.3,0,.5.5,0,0,0,.31-.1.76.76,0,0,0,.21-.3L34.4,8h-.35l-.61,1.4h0L32.77,8Zm2.9,2.49h.36V8.36h.77V8H34.5v.31h.77v2.18Zm3.15-2.42A1.2,1.2,0,0,0,37.88,8a1.44,1.44,0,0,0-.87.27,1.23,1.23,0,0,0-.46,1,1.33,1.33,0,0,0,.34.92,1.58,1.58,0,0,0,1.53.28l0-.34a1.15,1.15,0,0,1-.49.12.94.94,0,0,1-.76-.31,1,1,0,0,1-.24-.66,1,1,0,0,1,.35-.77,1,1,0,0,1,.61-.2,1,1,0,0,1,.51.14l0-.35ZM39.95,8a1.11,1.11,0,0,0-.89.38,1.36,1.36,0,0,0-.31.9,1.38,1.38,0,0,0,.31.91,1.25,1.25,0,0,0,1.78,0,1.38,1.38,0,0,0,.31-.91,1.36,1.36,0,0,0-.31-.9A1.11,1.11,0,0,0,39.95,8Zm0,.31a.76.76,0,0,1,.61.28,1.22,1.22,0,0,1,0,1.37.79.79,0,0,1-1.22,0,1.22,1.22,0,0,1,0-1.37.76.76,0,0,1,.61-.28Zm2.11,0h.3a.64.64,0,0,1,.38.11.38.38,0,0,1,.16.33.41.41,0,0,1-.12.31.59.59,0,0,1-.38.12h-.35V8.36Zm-.36,2.18h.36v-1h.35a.92.92,0,0,0,.71-.26.75.75,0,0,0,.17-.5A.66.66,0,0,0,43,8.23,1.13,1.13,0,0,0,42.35,8H41.7v2.49Zm3.82-2.42A1.2,1.2,0,0,0,45,8a1.44,1.44,0,0,0-.87.27,1.23,1.23,0,0,0-.46,1,1.33,1.33,0,0,0,.34.92,1.58,1.58,0,0,0,1.53.28l0-.34a1.15,1.15,0,0,1-.49.12.94.94,0,0,1-.76-.31A1,1,0,0,1,44,9.29a1,1,0,0,1,.35-.77,1,1,0,0,1,.61-.2,1,1,0,0,1,.51.14l0-.35Zm.57,2.42h.4l1-1.62a3.08,3.08,0,0,0,.22-.39h0v2h.36V8h-.4l-1,1.62a3.94,3.94,0,0,0-.22.39h0V8h-.36v2.49Zm2.72,0h.36V9.4h1.19v1.14h.36V8h-.36v1H49.17V8h-.36v2.49Zm2.6,0h.36V8.36h1V8H51.42v2.49ZM54.3,8v.82c0,.09,0,.45,0,.58a2.8,2.8,0,0,1-.06.58.28.28,0,0,1-.29.23l-.12,0v.31a.67.67,0,0,0,.2,0,.49.49,0,0,0,.43-.19,1.42,1.42,0,0,0,.19-.76c0-.31,0-.44,0-.65V8.36h.79v2.18h.36V8Zm2.21,2.49H57.9v-.31h-1V9.4h.94V9.09h-.94V8.36h1V8H56.51v2.49Zm2,0h.36V8.36h1V8H58.52v2.49Zm1.76,0h.36V9.32l1.11,1.22h.52L61,9.22,62.18,8H61.7l-1.06,1.1V8h-.36v2.49ZM63.61,8a1.11,1.11,0,0,0-.89.38,1.36,1.36,0,0,0-.31.9,1.38,1.38,0,0,0,.31.91,1.25,1.25,0,0,0,1.78,0,1.38,1.38,0,0,0,.31-.91,1.36,1.36,0,0,0-.31-.9A1.11,1.11,0,0,0,63.61,8Zm0,.31a.76.76,0,0,1,.61.28,1.22,1.22,0,0,1,0,1.37A.79.79,0,0,1,63,10a1.22,1.22,0,0,1,0-1.37.76.76,0,0,1,.61-.28Zm3.12-1a.28.28,0,0,1-.09.16.45.45,0,0,1-.48,0,.31.31,0,0,1-.09-.16l-.24,0a.48.48,0,0,0,.19.36.73.73,0,0,0,.38.11.74.74,0,0,0,.38-.11A.45.45,0,0,0,67,7.39l-.24,0ZM65.4,10.54h.4l1-1.62A3.08,3.08,0,0,0,67,8.53h0v2h.36V8H67L66,9.66a3.94,3.94,0,0,0-.22.39h0V8H65.4v2.49Zm3.63,0h.36V8.36h1.14v2.18h.36V8H69v2.49Zm2.91-2.18h.3a.64.64,0,0,1,.38.11.38.38,0,0,1,.16.33.41.41,0,0,1-.12.31.59.59,0,0,1-.38.12h-.35V8.36Zm-.36,2.18h.36v-1h.35A.92.92,0,0,0,73,9.28a.75.75,0,0,0,.17-.5.66.66,0,0,0-.25-.56A1.13,1.13,0,0,0,72.23,8h-.65v2.49ZM74.72,8a1.11,1.11,0,0,0-.89.38,1.36,1.36,0,0,0-.31.9,1.38,1.38,0,0,0,.31.91,1.25,1.25,0,0,0,1.78,0,1.38,1.38,0,0,0,.31-.91,1.36,1.36,0,0,0-.31-.9A1.11,1.11,0,0,0,74.72,8Zm0,.31a.76.76,0,0,1,.61.28,1.22,1.22,0,0,1,0,1.37.79.79,0,0,1-1.22,0,1.22,1.22,0,0,1,0-1.37.76.76,0,0,1,.61-.28Zm1.79,2.22h.36V8.38h0l.82,2.16H78l.82-2.16h0v2.16h.36V8h-.59l-.77,2.07L77.1,8h-.59v2.49Zm3.46,0h.64a1.06,1.06,0,0,0,.73-.2.7.7,0,0,0,.22-.54.73.73,0,0,0-.28-.59A1.28,1.28,0,0,0,80.52,9h-.19V8H80v2.49Zm.36-1.18h.25a.69.69,0,0,1,.48.12.41.41,0,0,1,.12.31.4.4,0,0,1-.13.32.78.78,0,0,1-.48.11h-.25V9.36Zm1.58,1.18h.36V8h-.36v2.49ZM83,8v2.49h2.55V8H85.2v2.18h-.74V8H84.1v2.18h-.74V8Zm3.51,0v.82c0,.09,0,.45,0,.58a2.8,2.8,0,0,1-.06.58.28.28,0,0,1-.29.23l-.12,0v.31a.67.67,0,0,0,.2,0,.49.49,0,0,0,.43-.19,1.42,1.42,0,0,0,.19-.76c0-.31,0-.44,0-.65V8.36h.79v2.18H88V8Zm2.21,2.49h1.39v-.31h-1V9.4H90V9.09h-.94V8.36h1V8H88.73v2.49Zm2.05,0h.36V9.4h1.19v1.14h.36V8h-.36v1H91.14V8h-.36v2.49Zm2.64,0h.36V9.4H95v1.14h.36V8H95v1H93.78V8h-.36v2.49ZM97.12,8a1.11,1.11,0,0,0-.89.38,1.36,1.36,0,0,0-.31.9,1.38,1.38,0,0,0,.31.91,1.25,1.25,0,0,0,1.78,0,1.38,1.38,0,0,0,.31-.91,1.36,1.36,0,0,0-.31-.9A1.11,1.11,0,0,0,97.12,8Zm0,.31a.76.76,0,0,1,.61.28,1.22,1.22,0,0,1,0,1.37.79.79,0,0,1-1.22,0,1.22,1.22,0,0,1,0-1.37.76.76,0,0,1,.61-.28Zm3.48-.21a1.2,1.2,0,0,0-.54-.11,1.44,1.44,0,0,0-.87.27,1.23,1.23,0,0,0-.46,1,1.33,1.33,0,0,0,.34.92,1.58,1.58,0,0,0,1.53.28l0-.34a1.15,1.15,0,0,1-.49.12.94.94,0,0,1-.76-.31,1,1,0,0,1-.24-.66,1,1,0,0,1,.35-.77,1,1,0,0,1,.61-.2,1,1,0,0,1,.51.14l0-.35Zm1,2.42H102V8.36h.77V8h-1.9v.31h.77v2.18Zm1.57,0h.4l1-1.62a3.08,3.08,0,0,0,.22-.39h0v2h.36V8h-.4l-1,1.62a3.93,3.93,0,0,0-.22.39h0V8h-.36v2.49Z"/><path class="cls-1" d="M30.18,6.26h.36V4.1h0l.82,2.16h.35l.82-2.16h0V6.26h.36V3.77h-.59l-.77,2.07-.78-2.07h-.59V6.26Zm3.39,0H35V5.95h-1V5.13h.94V4.81h-.94V4.08h1V3.77H33.57V6.26ZM37,3.77h-.36v1.1h0l-.89-1.1h-.42l1,1.18L35.26,6.26h.46L36.66,5h0V6.26H37V5h0L38,6.26h.46L37.41,4.95l1-1.18H38l-.89,1.1h0V3.77Zm1.49,2.18v.87h.35V6.26h1.6v.56h.35V5.95h-.29V3.77H39.11l0,.64a5,5,0,0,1-.08.85,2.3,2.3,0,0,1-.27.69Zm1.66-1.87V5.95H39.1a1.89,1.89,0,0,0,.23-.61,4,4,0,0,0,.08-.73l0-.53ZM41,3.77l.88,1.81-.08.2a.44.44,0,0,1-.11.15.28.28,0,0,1-.17,0,.62.62,0,0,1-.21,0l0,.31a1.07,1.07,0,0,0,.3,0,.5.5,0,0,0,.31-.1A.76.76,0,0,0,42,5.9L43,3.77h-.35L42,5.17h0l-.65-1.4Zm2.35,2.49h.36V5.13h1.19V6.26h.36V3.77h-.36v1H43.67v-1h-.36V6.26Zm2.28,0H46l.25-.63h1.22l.25.63h.39L47,3.77h-.37L45.59,6.26Zm1.73-.92h-1l.5-1.24.5,1.24Zm1.45-1.26h.3a.64.64,0,0,1,.38.11.38.38,0,0,1,.16.33.41.41,0,0,1-.12.31.59.59,0,0,1-.38.12h-.35V4.08Zm-.36,2.18h.36v-1h.35A.92.92,0,0,0,49.83,5a.75.75,0,0,0,.17-.5A.66.66,0,0,0,49.75,4a1.13,1.13,0,0,0-.68-.18h-.65V6.26Zm3.07-2.53a1.11,1.11,0,0,0-.89.38,1.36,1.36,0,0,0-.31.9,1.38,1.38,0,0,0,.31.91,1.25,1.25,0,0,0,1.78,0A1.38,1.38,0,0,0,52.68,5a1.36,1.36,0,0,0-.31-.9,1.11,1.11,0,0,0-.89-.38Zm0,.31a.76.76,0,0,1,.61.28,1.22,1.22,0,0,1,0,1.37.79.79,0,0,1-1.22,0,1.22,1.22,0,0,1,0-1.37A.76.76,0,0,1,51.48,4Zm1.29,1.9v.87h.35V6.26h1.6v.56h.35V5.95h-.29V3.77H53.35l0,.64a5,5,0,0,1-.08.85,2.3,2.3,0,0,1-.27.69Zm1.66-1.87V5.95h-1.1a1.89,1.89,0,0,0,.23-.61,4,4,0,0,0,.08-.73l0-.53Zm1,2.18h.36V5.13H57V6.26h.36V3.77H57v1H55.84v-1h-.36V6.26Zm2.28,0h.37l.25-.63H59.6l.25.63h.39L59.19,3.77h-.37L57.76,6.26Zm1.73-.92h-1L59,4.1l.5,1.24Zm2.7-1.57h-.72a.92.92,0,0,0-.63.19.71.71,0,0,0-.25.56.74.74,0,0,0,.15.46.76.76,0,0,0,.34.22l-.6,1.07h.43l.52-1h.4v1h.36V3.77ZM61.83,5h-.28a.64.64,0,0,1-.47-.15A.42.42,0,0,1,61,4.52a.43.43,0,0,1,.14-.33.52.52,0,0,1,.35-.11h.38V5Zm1.86,1.29h.66a1.22,1.22,0,0,0,.75-.2.59.59,0,0,0,.19-.47.59.59,0,0,0-.17-.43A.66.66,0,0,0,64.72,5h0a.72.72,0,0,0,.39-.21.57.57,0,0,0,.12-.38.53.53,0,0,0-.2-.46,1.11,1.11,0,0,0-.67-.17h-.67V6.26ZM64,5.13h.23a1,1,0,0,1,.43.07.36.36,0,0,1,.21.36.39.39,0,0,1-.1.27.74.74,0,0,1-.51.14H64V5.13Zm0-1.06h.37a.56.56,0,0,1,.33.09.33.33,0,0,1,.13.29.36.36,0,0,1-.1.26.83.83,0,0,1-.54.12H64V4.06Zm1.79,2.2h.64a1.06,1.06,0,0,0,.73-.2.7.7,0,0,0,.22-.54.73.73,0,0,0-.28-.59,1.28,1.28,0,0,0-.76-.16h-.19v-1h-.36V6.26Zm.36-1.18h.25a.68.68,0,0,1,.48.12.41.41,0,0,1,.12.31.4.4,0,0,1-.13.32.78.78,0,0,1-.48.11h-.25V5.09Zm1.58,1.18h.36V3.77h-.36V6.26Zm2.75-2.42A1.2,1.2,0,0,0,70,3.73a1.44,1.44,0,0,0-.87.27,1.23,1.23,0,0,0-.46,1,1.33,1.33,0,0,0,.34.92,1.58,1.58,0,0,0,1.53.28l0-.34A1.15,1.15,0,0,1,70,6a.94.94,0,0,1-.76-.31A1,1,0,0,1,69,5a1,1,0,0,1,.35-.77A1,1,0,0,1,70,4a1,1,0,0,1,.51.14l0-.35Zm1,2.42h.36V4.08h.77V3.77h-1.9v.31h.77V6.26Zm1,0h.37l.25-.63h1.22l.25.63h.39L73.88,3.77h-.37L72.45,6.26Zm1.73-.92h-1l.5-1.24.5,1.24Zm1.13.92H76a1.22,1.22,0,0,0,.75-.2.59.59,0,0,0,.19-.47.59.59,0,0,0-.17-.43A.66.66,0,0,0,76.34,5h0a.72.72,0,0,0,.39-.21.57.57,0,0,0,.12-.38.53.53,0,0,0-.2-.46A1.11,1.11,0,0,0,76,3.77h-.67V6.26Zm.36-1.14h.23a1,1,0,0,1,.43.07.36.36,0,0,1,.21.36.39.39,0,0,1-.1.27.74.74,0,0,1-.51.14h-.27V5.13Zm0-1.06H76a.56.56,0,0,1,.33.09.33.33,0,0,1,.13.29.36.36,0,0,1-.1.26.83.83,0,0,1-.54.12h-.2V4.06Zm1.79,2.2h.36V5l1.11,1.22h.52L78.18,4.95l1.17-1.18h-.47l-1.06,1.1V3.77h-.36V6.26Zm2,0h.37l.25-.63h1.22l.25.63h.39L80.88,3.77h-.37L79.45,6.26Zm1.73-.92h-1l.5-1.24.5,1.24Zm.77.1h.92V5.17h-.92v.27Zm1.39.82h.36V4.08h1.14V6.26h.36V3.77H83.33V6.26Zm2.75-2.49v.82c0,.09,0,.45,0,.58a2.8,2.8,0,0,1-.06.58.28.28,0,0,1-.29.23l-.12,0v.31a.67.67,0,0,0,.2,0,.49.49,0,0,0,.43-.19,1.42,1.42,0,0,0,.19-.76c0-.31,0-.44,0-.65V4.08h.79V6.26h.36V3.77Zm1.84,2.49h.37l.25-.63h1.22l.25.63h.39L89.36,3.77H89L87.92,6.26Zm1.73-.92h-1l.5-1.24.5,1.24ZM91,6.26h.36V4.08h.77V3.77h-1.9v.31H91V6.26Zm2.68-2.59H93.3V4h-.09a1.1,1.1,0,0,0-.68.21,1,1,0,0,0-.38.78,1,1,0,0,0,.35.77,1.11,1.11,0,0,0,.71.22h.09V6.3h.36V6h.09a1.11,1.11,0,0,0,.71-.22A1,1,0,0,0,94.81,5a1,1,0,0,0-.38-.78A1.1,1.1,0,0,0,93.75,4h-.09V3.67Zm0,.61h.1a.67.67,0,0,1,.47.16.69.69,0,0,1,.21.53.69.69,0,0,1-.18.52.66.66,0,0,1-.49.18h-.1V4.28Zm-.36,0v1.4h-.1a.66.66,0,0,1-.49-.18A.69.69,0,0,1,92.53,5a.69.69,0,0,1,.21-.53.67.67,0,0,1,.47-.16Zm3.08-.55a1.11,1.11,0,0,0-.89.38,1.36,1.36,0,0,0-.31.9,1.38,1.38,0,0,0,.31.91,1.25,1.25,0,0,0,1.78,0A1.38,1.38,0,0,0,97.58,5a1.36,1.36,0,0,0-.31-.9,1.11,1.11,0,0,0-.89-.38Zm0,.31a.76.76,0,0,1,.61.28A1.22,1.22,0,0,1,97,5.7a.79.79,0,0,1-1.22,0,1.22,1.22,0,0,1,0-1.37A.76.76,0,0,1,96.38,4Zm2,0h.3a.64.64,0,0,1,.38.11.38.38,0,0,1,.16.33.41.41,0,0,1-.12.31.59.59,0,0,1-.38.12h-.35V4.08Zm-.36,2.18h.36v-1h.35A.92.92,0,0,0,99.48,5a.75.75,0,0,0,.17-.5A.66.66,0,0,0,99.4,4a1.13,1.13,0,0,0-.68-.18h-.65V6.26Zm2,0h.36V4.1h0l.82,2.16h.35l.82-2.16h0V6.26h.36V3.77h-.59l-.77,2.07-.78-2.07h-.59V6.26Zm3.1,0h.37l.25-.63H105l.25.63h.39l-1.05-2.49h-.37l-1.06,2.49Zm1.73-.92h-1l.5-1.24.5,1.24Z"/><polygon class="cls-1" points="22.77 0.02 15.77 0.02 12.26 6.09 15.77 12.16 22.77 12.16 26.28 6.09 22.77 0.02 22.77 0.02"/><polygon class="cls-3" points="22.77 0.02 15.77 0.02 12.26 6.09 15.77 12.16 22.77 12.16 26.28 6.09 22.77 0.02 22.77 0.02"/></svg>