<svg id="Слой_1" data-name="Слой 1" xmlns="http://www.w3.org/2000/svg" viewBox="0 0 386.99 83.66"><defs><style>.cls-1{fill:#201600;}.cls-2{fill:#edb344;}.cls-3{fill:none;stroke:#fff;stroke-width:0.16px;}</style></defs><title>logo</title><path class="cls-1" d="M71.85,78.05v-4.5h4.57a2.29,2.29,0,0,1,2.25,2.25,2.25,2.25,0,0,1-2.25,2.25Zm0-10.22v-4.5h3.29a2.25,2.25,0,0,1,0,4.5Zm6,15.83a7.58,7.58,0,0,0,4.68-13.58,7.61,7.61,0,0,0,1.66-4.68,7.84,7.84,0,0,0-7.69-7.73H65v26Zm11.71,0H105.7V78.09H96.38V73.3h8.25V67.55H96.38V63.33h9.32V57.68H89.56v26Zm21,0h16.15V78.09h-9.32V73.3h8.25V67.55h-8.25V63.33h9.32V57.68H110.59v26ZM130,71.81h13.65V66.34H130v5.47Zm17-7.38h6.76V83.66h6.83V64.43h6.89V57.64H147v6.79Zm23.28,6.27a13,13,0,1,0,13-13,12.94,12.94,0,0,0-13,13Zm19.16,0a6.18,6.18,0,1,1-6.2-6.2,6.22,6.22,0,0,1,6.2,6.2Zm23.59-1v4.57h5a6.16,6.16,0,1,1-5-9.77,6.22,6.22,0,0,1,4.33,1.73l4.82-4.78a13,13,0,1,0,3.85,9.22v-1Zm16.73,14H246V78.09h-9.32V73.3h8.25V67.55h-8.25V63.33H246V57.68H229.81v26Zm20.48-19.23H257V83.66h6.83V64.43h6.89V57.64H250.29v6.79Zm25.19-6.76v26h6.83V73.75h8.25v9.91h6.83v-26h-6.83v9.25H282.3V57.68Zm27.13,26h16.15V78.09h-9.32V73.3h8.25V67.55h-8.25V63.33h9.32V57.68H302.6v26Zm44,0-5.51-9.42a9.54,9.54,0,0,0-6.48-16.56H323.63v26h6.83V76.77h4.23l4,6.89ZM330.46,63.43h4.23a3.72,3.72,0,1,1,0,7.45h-4.23V63.43Zm17.82,18.3a1.88,1.88,0,1,0,3.76,0,1.88,1.88,0,1,0-3.76,0Zm22.33,1.93-3.79-6.48a6.56,6.56,0,0,0-4.46-11.39h-7.53V83.66h4.69V78.92h2.91l2.76,4.74ZM359.52,69.75h2.91a2.56,2.56,0,1,1,0,5.12h-2.91V69.75Zm18.08-4h-4.72V76.61a7.05,7.05,0,0,0,14.11,0V65.79h-4.72V76.54a2.34,2.34,0,1,1-4.67,0V65.79Z"/><polygon class="cls-2" points="41.07 25.39 13.69 25.39 0 49.1 13.69 72.81 41.07 72.81 54.75 49.1 41.07 25.39 41.07 25.39"/><path class="cls-2" d="M119,37.54V33.87h7.35V31H115.75V47.86h6.48c3.55,0,5.74-1.81,5.74-5.16s-2.19-5.16-5.74-5.16Zm3,2.89c2,0,2.81.82,2.81,2.27S123.95,45,121.93,45h-3V40.43ZM131.77,31V47.86h3.4l6.38-11.14V47.86h3.23V31h-3.4L135,42.12V31Zm20.07,4.53a2.43,2.43,0,0,1,2.46-2.07,2.08,2.08,0,0,1,2.33,1.91c0,1.47-1.17,2.24-3,2.24H153v2.6h.84c1.64,0,3.33.7,3.33,2.56a2.53,2.53,0,0,1-2.68,2.51,2.92,2.92,0,0,1-2.91-2.77l-3,1c.57,2.82,2.93,4.53,6,4.53,3.53,0,5.81-2.27,5.81-5.28a4.38,4.38,0,0,0-2.86-4.08,4,4,0,0,0,2.11-3.59c0-2.51-1.86-4.32-5.27-4.32a4.87,4.87,0,0,0-5.19,4.2l2.73.53Zm12.59,12.35h3.23V40.29h7v7.57h3.23V31h-3.23v6.41h-7V31h-3.23V47.86Zm18-16.88V47.86h11V45h-7.77V40.31h6V37.42h-6V33.87h7.53V31Zm29.34,4.92c-.82-3.23-3.43-5.11-7.2-5.11-4.35,0-8.22,3-8.22,8.63s3.88,8.63,8.22,8.63c3.78,0,6.38-1.88,7.2-5.11l-2.91-.72a4.21,4.21,0,0,1-4.3,2.94c-2.68,0-4.94-1.83-4.94-5.74s2.26-5.74,4.94-5.74a4.21,4.21,0,0,1,4.3,2.94l2.91-.72Zm3.38,5.62h9.27v-2.6h-9.27v2.6Zm14.11,6.34h3.23V34h6.26V47.86h3.23V31H229.22V47.86ZM247.7,43c-.12,1.76-1,1.83-2.36,1.83v3c3.33,0,5.24-1.35,5.49-4.58l.7-9.31h4.35V47.86h3.23V31H248.62L247.7,43Zm26.08,4.82h3.48L271.37,31h-3.23l-5.89,16.88h3.48l1.27-4h5.51l1.27,4Zm-4-12.73L271.59,41h-3.68l1.84-5.86Zm7-1.25h4.82v14h3.23v-14h4.82V31H276.76v2.89Zm25.19,12.25h.22a6.71,6.71,0,1,0,0-13.41h-.22V31h-3.08v1.74h-.22a6.71,6.71,0,1,0,0,13.41h.22v1.74h3.08V46.12Zm.22-10.85c2.29,0,3.63,1.93,3.63,4.15s-1.34,4.15-3.63,4.15h-.22v-8.3Zm-3.3,8.3h-.22c-2.29,0-3.63-1.93-3.63-4.15s1.34-4.15,3.63-4.15h.22v8.3Zm21.91-12.78c-4.4,0-8.2,2.77-8.2,8.63s3.8,8.63,8.2,8.63,8.2-2.77,8.2-8.63-3.8-8.63-8.2-8.63Zm0,2.89c2.61,0,4.92,1.74,4.92,5.74s-2.31,5.74-4.92,5.74-4.92-1.74-4.92-5.74,2.31-5.74,4.92-5.74Zm18.65,7.57c3.68,0,5.44-2.19,5.44-5.14S343.11,31,339.43,31h-6.56V47.86h3.23V41.25Zm-.12-2.89h-3.2V33.87h3.2a2,2,0,0,1,2.29,2.24,2,2,0,0,1-2.29,2.24Zm9.51,9.5H352V37.44l3.33,8.87h2.33L361,37.44V47.86h3.23V31h-3.63l-4.1,10.54L352.45,31h-3.63V47.86Zm30.13,0h3.48L376.54,31h-3.23l-5.89,16.88h3.48l1.27-4h5.51l1.27,4Zm-4-12.73L376.77,41h-3.68l1.84-5.86Z"/><path class="cls-2" d="M115.5,18.92h2.87V9.66l3,7.89h2.07l3-7.89v9.26h2.87v-15H126l-3.64,9.36-3.64-9.36H115.5v15Zm18.87-15v15h9.78V16.35h-6.91V12.21h5.36V9.64h-5.36V6.49h6.69V3.92Zm22,0V9.49l-5.27-5.57h-3.53l6.27,6.71-6.71,8.29h3.64l5.61-7.16v7.16h2.87V11.76l5.61,7.16h3.64l-6.71-8.29,6.27-6.71h-3.53l-5.27,5.57V3.92ZM172,21.58h2.47V18.92h8.25v2.66h2.47l.31-5.31h-1.35V3.92h-8.89L173.1,16.26h-1.41l.31,5.31Zm9.29-15.09v9.77h-5.36l1.85-9.77Zm6.78-2.57,4.48,10.46-2,4.71h2.65l6.4-15.17H196.9l-3,7.22-3.07-7.22Zm15.12,15h2.87V12.19h6.18v6.73h2.87v-15h-2.87v5.7h-6.18V3.92h-2.87v15Zm26.07,0h3.09l-5.23-15h-2.87l-5.23,15h3.09l1.13-3.54h4.9l1.13,3.54ZM225.68,7.6l1.63,5.21H224l1.63-5.21ZM242.08,13c3.27,0,4.83-2,4.83-4.56s-1.57-4.56-4.83-4.56h-5.83v15h2.87V13ZM242,10.48h-2.85v-4H242a1.8,1.8,0,0,1,2,2,1.8,1.8,0,0,1-2,2Zm15.69-6.73c-3.91,0-7.28,2.46-7.28,7.67s3.38,7.67,7.28,7.67,7.28-2.46,7.28-7.67-3.38-7.67-7.28-7.67Zm0,2.57c2.32,0,4.37,1.54,4.37,5.1s-2.05,5.1-4.37,5.1-4.37-1.54-4.37-5.1,2.05-5.1,4.37-5.1Zm11,15.26h2.47V18.92h8.25v2.66h2.47l.31-5.31h-1.35V3.92h-8.89l-2.16,12.34h-1.41l.31,5.31ZM278,6.49v9.77H272.6l1.85-9.77Zm8.59,12.43h2.87V12.19h6.18v6.73h2.87v-15H295.6v5.7h-6.18V3.92h-2.87v15Zm26.07,0h3.09l-5.23-15h-2.87l-5.23,15h3.09l1.13-3.54h4.9l1.13,3.54ZM309,7.6l1.63,5.21h-3.27L309,7.6Zm10.86.58a3.93,3.93,0,0,0,2.89,4l-4.28,6.71h3.2l4.15-6.47h1.5v6.47h2.87v-15H324.6c-3.09,0-4.7,1.78-4.7,4.26Zm4.68,1.69c-1,0-1.81-.47-1.81-1.69s.77-1.69,1.81-1.69h2.78V9.88Z"/><polygon class="cls-1" points="82.96 0.08 55.58 0.08 41.89 23.79 55.58 47.5 82.96 47.5 96.65 23.79 82.96 0.08 82.96 0.08"/><polygon class="cls-3" points="82.96 0.08 55.58 0.08 41.89 23.79 55.58 47.5 82.96 47.5 96.65 23.79 82.96 0.08 82.96 0.08"/></svg>