<svg id="Слой_1" data-name="Слой 1" xmlns="http://www.w3.org/2000/svg" viewBox="0 0 274.43 60.04"><defs><style>.cls-1{fill:#1d1d1b;}.cls-2{fill:#ffda00;}.cls-3{fill:none;stroke:#fff;stroke-width:0.12px;}</style></defs><title>Untitled-3</title><path class="cls-1" d="M51.27,55.69V52.47h3.26a1.64,1.64,0,0,1,1.61,1.61,1.6,1.6,0,0,1-1.61,1.61Zm0-7.29V45.18h2.35a1.61,1.61,0,1,1,0,3.21Zm4.28,11.3A5.41,5.41,0,0,0,58.88,50a5.43,5.43,0,0,0,1.19-3.34,5.59,5.59,0,0,0-5.49-5.51H46.4V59.69Zm8.36,0H75.42v-4H68.77V52.3h5.88V48.2H68.77v-3h6.65v-4H63.9V59.69Zm15,0H90.42v-4H83.77V52.3h5.88V48.2H83.77v-3h6.65v-4H78.9V59.69Zm13.84-8.45h9.74V47.33H92.74v3.91ZM104.91,46h4.82V59.69h4.87V46h4.92V41.13H104.91V46Zm16.61,4.47a9.26,9.26,0,1,0,9.25-9.29,9.23,9.23,0,0,0-9.25,9.29Zm13.67,0A4.41,4.41,0,1,1,130.76,46a4.44,4.44,0,0,1,4.42,4.42ZM152,49.73V53h3.58A4.4,4.4,0,1,1,152,46a4.43,4.43,0,0,1,3.09,1.24l3.44-3.41a9.26,9.26,0,1,0,2.74,6.58v-.69Zm11.94,10h11.52v-4h-6.65V52.3h5.88V48.2h-5.88v-3h6.65v-4H164V59.69ZM178.57,46h4.82V59.69h4.87V46h4.92V41.13H178.57V46Zm18-4.82V59.69h4.87V52.62h5.88v7.07h4.87V41.15H207.3v6.6h-5.88v-6.6ZM215.9,59.69h11.52v-4h-6.65V52.3h5.88V48.2h-5.88v-3h6.65v-4H215.9V59.69Zm31.37,0L243.34,53a6.81,6.81,0,0,0-4.62-11.82H230.9V59.69h4.87V54.77h3l2.87,4.92ZM235.77,45.25h3a2.66,2.66,0,1,1,0,5.31h-3V45.25Zm13,12.43a2,2,0,1,0,3.91,0,2,2,0,1,0-3.91,0Zm6.35,2h3V54.55a3.68,3.68,0,0,1,.59-2.37,2.46,2.46,0,0,1,2-.87,2.27,2.27,0,0,1,1.41.4l.4-2.82a3.71,3.71,0,0,0-1.29-.25,3.28,3.28,0,0,0-1.78.47,3.61,3.61,0,0,0-1.33,1.48V49h-3v10.7Zm8.9-10.7v6.55a4,4,0,0,0,1.31,3.29,6.82,6.82,0,0,0,7.76,0,4,4,0,0,0,1.31-3.29V49h-3V55a2.41,2.41,0,0,1-.64,1.88,2.43,2.43,0,0,1-3.07,0,2.41,2.41,0,0,1-.64-1.88V49Z"/><polygon class="cls-2" points="29.3 18.12 9.77 18.12 0 35.03 9.77 51.95 29.3 51.95 39.07 35.03 29.3 18.12 29.3 18.12"/><path class="cls-2" d="M91.7,34.55h2.68a4.93,4.93,0,0,0,3.05-.79,2.4,2.4,0,0,0,.78-1.9,2.38,2.38,0,0,0-.68-1.73,2.68,2.68,0,0,0-1.66-.69v0a2.93,2.93,0,0,0,1.57-.86A2.32,2.32,0,0,0,98,27a2.16,2.16,0,0,0-.82-1.84,4.48,4.48,0,0,0-2.71-.69H91.7V34.55ZM93.14,30h.94a3.94,3.94,0,0,1,1.74.29,1.47,1.47,0,0,1,.86,1.46,1.56,1.56,0,0,1-.39,1.11,3,3,0,0,1-2.08.56H93.14V30Zm0-4.31h1.51A2.27,2.27,0,0,1,96,26a1.35,1.35,0,0,1,.52,1.18,1.44,1.44,0,0,1-.39,1.07,3.35,3.35,0,0,1-2.19.5h-.79V25.65Zm7.81,8.9h2.59a4.3,4.3,0,0,0,3-.81,2.85,2.85,0,0,0,.88-2.18,3,3,0,0,0-1.14-2.41,5.19,5.19,0,0,0-3.07-.63h-.78V24.47h-1.44V34.55Zm1.44-4.75h1a2.77,2.77,0,0,1,1.93.49,1.66,1.66,0,0,1,.5,1.27,1.63,1.63,0,0,1-.52,1.3,3.15,3.15,0,0,1-1.95.43h-1V29.8Zm6.38,4.75h1.44V24.47h-1.44V34.55Zm11.71-9.79a4.85,4.85,0,0,0-2.19-.43,5.82,5.82,0,0,0-3.52,1.11,5,5,0,0,0-1.87,4.06,5.37,5.37,0,0,0,1.38,3.72,6.4,6.4,0,0,0,6.21,1.12L120.41,33a4.65,4.65,0,0,1-2,.48,3.78,3.78,0,0,1-3.05-1.24,4,4,0,0,1-1-2.68,3.87,3.87,0,0,1,1.4-3.11,4,4,0,0,1,2.46-.81,4.08,4.08,0,0,1,2.07.56l.12-1.4ZM125,34.55h1.44V25.73h3.13V24.47h-7.69v1.27H125v8.82Zm4.44,0H131L132,32h4.93l1,2.55h1.57l-4.25-10.08h-1.51l-4.29,10.08Zm7-3.73h-4l2-5,2,5Zm5.16,3.73h2.68a4.93,4.93,0,0,0,3.05-.79,2.4,2.4,0,0,0,.78-1.9,2.38,2.38,0,0,0-.68-1.73,2.68,2.68,0,0,0-1.66-.69v0a2.93,2.93,0,0,0,1.57-.86,2.32,2.32,0,0,0,.5-1.54,2.16,2.16,0,0,0-.82-1.84,4.48,4.48,0,0,0-2.71-.69H141.6V34.55ZM143,30H144a3.94,3.94,0,0,1,1.74.29,1.47,1.47,0,0,1,.86,1.46,1.56,1.56,0,0,1-.39,1.11,3,3,0,0,1-2.08.56H143V30Zm0-4.31h1.51a2.27,2.27,0,0,1,1.34.37,1.35,1.35,0,0,1,.52,1.18,1.44,1.44,0,0,1-.39,1.07,3.35,3.35,0,0,1-2.19.5H143V25.65Zm7.81,8.9h1.44V29.61l4.48,4.94h2.1l-5.1-5.31,4.73-4.77h-1.92l-4.29,4.44V24.47h-1.44V34.55Zm8.64,0H161L162,32H167l1,2.55h1.57L165.3,24.47h-1.51l-4.29,10.08Zm7-3.73h-4l2-5,2,5Zm3.67.4h3.7V30.13h-3.7v1.09Zm6.18,3.33h1.44V25.73h4.63v8.82h1.44V24.47h-7.5V34.55ZM188,24.47l0,3.31c0,.36-.06,1.83-.09,2.35a11.32,11.32,0,0,1-.26,2.36,1.12,1.12,0,0,1-1.18.92,2.05,2.05,0,0,1-.5-.09l0,1.25a2.72,2.72,0,0,0,.79.12,2,2,0,0,0,1.73-.78,5.74,5.74,0,0,0,.75-3.07c.07-1.27.09-1.77.1-2.64l.06-2.48h3.19v8.82H194V24.47Zm8,10.08h1.51l1-2.55h4.93l1,2.55h1.57l-4.25-10.08h-1.51l-4.29,10.08Zm7-3.73h-4l2-5,2,5ZM209,34.55h1.44V25.73h3.13V24.47H205.9v1.27H209v8.82Zm11.41-10.49H219v1.3h-.37a4.45,4.45,0,0,0-2.75.86,3.91,3.91,0,0,0-1.53,3.14,4,4,0,0,0,1.4,3.1,4.5,4.5,0,0,0,2.88.91H219v1.33h1.44V33.37h.37a4.5,4.5,0,0,0,2.88-.91,4,4,0,0,0,1.4-3.1,3.91,3.91,0,0,0-1.53-3.14,4.45,4.45,0,0,0-2.75-.86h-.37v-1.3Zm0,2.48h.4a2.7,2.7,0,0,1,1.89.66,2.79,2.79,0,0,1,.84,2.16,2.8,2.8,0,0,1-.74,2.09,2.65,2.65,0,0,1-2,.73h-.4V26.54Zm-1.44,0v5.65h-.4a2.65,2.65,0,0,1-2-.73,2.8,2.8,0,0,1-.74-2.09,2.79,2.79,0,0,1,.84-2.16,2.7,2.7,0,0,1,1.89-.66Zm13-2.22a4.51,4.51,0,0,0-3.6,1.53,5.49,5.49,0,0,0-1.24,3.66,5.57,5.57,0,0,0,1.24,3.67,5,5,0,0,0,7.2,0,5.57,5.57,0,0,0,1.24-3.67,5.49,5.49,0,0,0-1.24-3.66,4.51,4.51,0,0,0-3.6-1.53Zm0,1.27a3.06,3.06,0,0,1,2.46,1.15,4.93,4.93,0,0,1,0,5.53,3.21,3.21,0,0,1-4.93,0,4.93,4.93,0,0,1,0-5.53A3.06,3.06,0,0,1,232,25.59Zm8.82.14h1.23a2.59,2.59,0,0,1,1.56.43,1.54,1.54,0,0,1,.66,1.34,1.66,1.66,0,0,1-.49,1.24,2.38,2.38,0,0,1-1.53.5h-1.43V25.73Zm-1.44,8.82h1.44v-4h1.41a3.73,3.73,0,0,0,2.88-1.06,3,3,0,0,0,.68-2,2.67,2.67,0,0,0-1-2.25,4.59,4.59,0,0,0-2.77-.73H239.4V34.55Zm8.74,0h1.44V25.82h0l3.33,8.73h1.41l3.33-8.73h0v8.73h1.44V24.47h-2.38l-3.1,8.38-3.16-8.38h-2.38V34.55Zm13.11,0h1.51l1-2.55h4.93l1,2.55h1.57l-4.25-10.08h-1.51l-4.29,10.08Zm7-3.73h-4l2-5,2,5Z"/><path class="cls-2" d="M91.55,17.26h1.28V9.51h0l3,7.76h1.25l3-7.76h0v7.76h1.28v-9H99.22l-2.75,7.45L93.66,8.3H91.55v9Zm13.34,0h5V16.14h-3.72v-3h3.39V12.06h-3.39V9.43h3.72V8.3h-5v9Zm13.66-9h-1.28v3.94h-.09L114,8.3h-1.51l3.49,4.24-3.81,4.72h1.66l3.38-4.39h.09v4.39h1.28V12.87h.09L122,17.26h1.66l-3.81-4.72,3.49-4.24h-1.51l-3.21,3.94h-.09V8.3Zm6.52,7.83v3.12h1.25v-2h5.75v2h1.25V16.14h-1V8.3h-5.17l-.06,2.29a17.81,17.81,0,0,1-.28,3.07,8.3,8.3,0,0,1-1,2.47Zm6-6.71v6.71h-3.94A6.8,6.8,0,0,0,127.9,14a14.28,14.28,0,0,0,.28-2.64l.08-1.89Zm3.9-1.12,3.15,6.52-.29.73a1.58,1.58,0,0,1-.41.54,1,1,0,0,1-.6.18,2.23,2.23,0,0,1-.77-.17l-.14,1.11a3.84,3.84,0,0,0,1.06.18A1.81,1.81,0,0,0,138,17a2.71,2.71,0,0,0,.77-1.06l3.4-7.67H141l-2.19,5h-.09l-2.33-5Zm9.6,9h1.28V13.18h4.28v4.08h1.28v-9h-1.28v3.75H145.8V8.3h-1.28v9Zm9.34,0h1.34l.91-2.27h4.38l.91,2.27h1.4L159,8.3h-1.34l-3.81,9Zm6.22-3.31h-3.56l1.78-4.44,1.78,4.44Zm6.36-4.52h1.09a2.31,2.31,0,0,1,1.38.38A1.37,1.37,0,0,1,169.5,11a1.48,1.48,0,0,1-.44,1.1,2.11,2.11,0,0,1-1.36.45h-1.27V9.43Zm-1.28,7.83h1.28V13.68h1.26a3.32,3.32,0,0,0,2.56-.95,2.7,2.7,0,0,0,.6-1.78A2.37,2.37,0,0,0,170,9a4.08,4.08,0,0,0-2.46-.65h-2.34v9Zm12.18-9.09a4,4,0,0,0-3.2,1.36,4.88,4.88,0,0,0-1.1,3.25,5,5,0,0,0,1.1,3.26,4.49,4.49,0,0,0,6.4,0,5,5,0,0,0,1.1-3.26,4.88,4.88,0,0,0-1.1-3.25,4,4,0,0,0-3.2-1.36Zm0,1.12a2.72,2.72,0,0,1,2.19,1,4.38,4.38,0,0,1,0,4.92,2.85,2.85,0,0,1-4.38,0,4.38,4.38,0,0,1,0-4.92,2.72,2.72,0,0,1,2.19-1Zm5.8,6.84v3.12h1.25v-2h5.75v2h1.25V16.14h-1V8.3h-5.17l-.06,2.29a17.81,17.81,0,0,1-.28,3.07,8.3,8.3,0,0,1-1,2.47Zm6-6.71v6.71h-3.94A6.8,6.8,0,0,0,186,14a14.27,14.27,0,0,0,.28-2.64l.08-1.89ZM194,17.26h1.28V13.18h4.28v4.08h1.28v-9h-1.28v3.75h-4.28V8.3H194v9Zm9.34,0h1.34l.91-2.27H210l.91,2.27h1.4l-3.78-9h-1.34l-3.81,9Zm6.22-3.31H206l1.78-4.44,1.78,4.44ZM220.42,8.3h-2.58a3.32,3.32,0,0,0-2.28.66,2.53,2.53,0,0,0-.89,2,2.65,2.65,0,0,0,.55,1.65,2.73,2.73,0,0,0,1.23.79l-2.15,3.84h1.53l1.87-3.58h1.45v3.58h1.28v-9Zm-1.28,4.33h-1a2.3,2.3,0,0,1-1.7-.53A1.52,1.52,0,0,1,216,11a1.54,1.54,0,0,1,.49-1.19,1.86,1.86,0,0,1,1.26-.38h1.38v3.2Z"/><polygon class="cls-1" points="59.19 0.06 39.66 0.06 29.89 16.97 39.66 33.89 59.19 33.89 68.95 16.97 59.19 0.06 59.19 0.06"/><polygon class="cls-3" points="59.19 0.06 39.66 0.06 29.89 16.97 39.66 33.89 59.19 33.89 68.95 16.97 59.19 0.06 59.19 0.06"/></svg>