<svg width="17" height="17" viewBox="0 0 17 17" fill="none" xmlns="http://www.w3.org/2000/svg">
<path d="M4.25 6.37499V1.41666H12.75V6.37499" stroke="#FFFFFF" stroke-linecap="round" stroke-linejoin="round"/>
<path d="M4.2513 12.75H2.83464C2.45891 12.75 2.09858 12.6007 1.8329 12.3351C1.56722 12.0694 1.41797 11.7091 1.41797 11.3333V7.79167C1.41797 7.41594 1.56722 7.05561 1.8329 6.78993C2.09858 6.52426 2.45891 6.375 2.83464 6.375H14.168C14.5437 6.375 14.904 6.52426 15.1697 6.78993C15.4354 7.05561 15.5846 7.41594 15.5846 7.79167V11.3333C15.5846 11.7091 15.4354 12.0694 15.1697 12.3351C14.904 12.6007 14.5437 12.75 14.168 12.75H12.7513" stroke="#FFFFFF" stroke-linecap="round" stroke-linejoin="round"/>
<path d="M12.75 9.91666H4.25V15.5833H12.75V9.91666Z" stroke="#FFFFFF" stroke-linecap="round" stroke-linejoin="round"/>
</svg>
