<svg width="24" height="16" viewBox="0 0 24 16" fill="none" xmlns="http://www.w3.org/2000/svg">
<rect x="9.7373" y="6.58325" width="1.14548" height="9.16384" transform="rotate(90 9.7373 6.58325)" fill="#353535"/>
<rect x="5.72949" y="11.7371" width="1.14548" height="9.16384" transform="rotate(-180 5.72949 11.7371)" fill="#353535"/>
<path fill-rule="evenodd" clip-rule="evenodd" d="M19.59 7.79761C20.278 7.23775 20.7808 6.46887 21.0282 5.59812C21.2756 4.72737 21.2554 3.79813 20.9703 2.9399C20.6852 2.08166 20.1495 1.33718 19.4379 0.810201C18.7262 0.283223 17.874 0 17 0C16.126 0 15.2738 0.283223 14.5621 0.810201C13.8505 1.33718 13.3148 2.08166 13.0297 2.9399C12.7446 3.79813 12.7244 4.72737 12.9718 5.59812C13.2192 6.46887 13.722 7.23775 14.41 7.79761C13.1098 8.33554 11.9946 9.26601 11.2085 10.4689C10.4224 11.6718 10.0014 13.0918 10 14.5457V15.2728C10 15.4657 10.0737 15.6506 10.205 15.787C10.3363 15.9234 10.5143 16 10.7 16C10.8857 16 11.0637 15.9234 11.195 15.787C11.3263 15.6506 11.4 15.4657 11.4 15.2728V14.5457C11.4 13.0028 11.99 11.5232 13.0402 10.4322C14.0904 9.34127 15.5148 8.72838 17 8.72838C18.4852 8.72838 19.9096 9.34127 20.9598 10.4322C22.01 11.5232 22.6 13.0028 22.6 14.5457V15.2728C22.6 15.4657 22.6737 15.6506 22.805 15.787C22.9363 15.9234 23.1143 16 23.3 16C23.4857 16 23.6637 15.9234 23.795 15.787C23.9263 15.6506 24 15.4657 24 15.2728V14.5457C23.9986 13.0918 23.5776 11.6718 22.7915 10.4689C22.0054 9.26601 20.8902 8.33554 19.59 7.79761ZM14.2 4.36541C14.2 3.79013 14.3642 3.22777 14.6719 2.74945C14.9796 2.27112 15.4169 1.89831 15.9285 1.67817C16.4401 1.45802 17.0031 1.40042 17.5463 1.51265C18.0894 1.62488 18.5883 1.9019 18.9799 2.30868C19.3715 2.71546 19.6382 3.23373 19.7462 3.79796C19.8542 4.36218 19.7988 4.94701 19.5869 5.4785C19.3749 6.00998 19.0161 6.46425 18.5556 6.78386C18.0951 7.10347 17.5538 7.27405 17 7.27405C16.2574 7.27405 15.5452 6.96761 15.0201 6.42213C14.495 5.87665 14.2 5.13683 14.2 4.36541Z" fill="#282828"/>
</svg>
