<svg width="21" height="14" viewBox="0 0 21 14" fill="none" xmlns="http://www.w3.org/2000/svg">
<path d="M20.1332 8.31578L18.8878 8.75741L17.8063 2.50552L20.5854 1.33243C20.6655 1.2989 20.7385 1.2491 20.8003 1.18587C20.862 1.12264 20.9114 1.04722 20.9455 0.963923C20.9795 0.880622 20.9977 0.791069 20.9989 0.700377C21.0001 0.609685 20.9844 0.519631 20.9525 0.435355C20.9207 0.351079 20.8734 0.274232 20.8133 0.209203C20.7532 0.144173 20.6816 0.0922335 20.6025 0.0563501C20.5234 0.0204667 20.4383 0.00134228 20.3521 6.81551e-05C20.266 -0.00120597 20.1805 0.0153954 20.1004 0.0489246L16.8231 1.42903C16.6802 1.48605 16.5608 1.59379 16.4854 1.73364C16.41 1.87349 16.3834 2.03667 16.4101 2.19499V2.3192L14.8435 3.14037C14.7347 3.1985 14.6126 3.22348 14.491 3.21251C14.3694 3.20153 14.2532 3.15504 14.1553 3.07826L12.5625 1.79476C12.2221 1.52601 11.8081 1.38073 11.3827 1.38073H9.60634C9.36494 1.38085 9.12825 1.45115 8.92238 1.58387C8.71651 1.71659 8.54945 1.90658 8.43961 2.13289L7.26632 2.07078C7.15267 2.06572 7.03972 2.09188 6.93858 2.14669L5.84395 2.71943L3.9562 2.2226V2.13289C3.97014 1.99289 3.94307 1.85175 3.87863 1.7284C3.81419 1.60506 3.71546 1.50541 3.59569 1.44283L0.973815 0.0627256C0.821029 -0.00425437 0.649831 -0.00790819 0.494593 0.052498C0.339354 0.112904 0.211568 0.232898 0.13689 0.388388C0.0622112 0.543879 0.0461696 0.723354 0.0919854 0.89078C0.137801 1.05821 0.242083 1.20119 0.383893 1.29102L2.60593 2.46411L2.06845 8.71601L0.888604 8.30198C0.803818 8.27298 0.714436 8.26184 0.625563 8.26921C0.53669 8.27658 0.450065 8.3023 0.370635 8.34492C0.291205 8.38753 0.220525 8.44619 0.162631 8.51756C0.104736 8.58893 0.0607614 8.6716 0.0332167 8.76086C0.00567189 8.85012 -0.00490327 8.94422 0.00209497 9.03778C0.00909321 9.13134 0.0335278 9.22254 0.0740037 9.30616C0.11448 9.38978 0.170204 9.46419 0.237995 9.52514C0.305787 9.58609 0.384317 9.63239 0.469104 9.66138L2.43551 10.3514C2.50511 10.3614 2.57566 10.3614 2.64526 10.3514C2.77258 10.3488 2.89697 10.3107 3.00577 10.241C3.08897 10.1839 3.15875 10.1077 3.20985 10.018C3.26094 9.92835 3.29202 9.82764 3.30073 9.72349L3.35317 9.08174L4.19872 9.52337C4.27716 10.0355 4.53138 10.4996 4.91318 10.8276L8.69524 13.6844C8.82968 13.8012 8.9849 13.8886 9.1518 13.9415C9.31871 13.9943 9.49396 14.0116 9.66729 13.9924C9.84063 13.9731 10.0086 13.9176 10.1613 13.8292C10.314 13.7408 10.4485 13.6212 10.5568 13.4774C10.8062 13.5772 11.0728 13.6208 11.3393 13.6053C11.6057 13.5899 11.8661 13.5157 12.1037 13.3877L15.6498 11.5245C15.8638 11.4107 16.0491 11.245 16.1904 11.0411C16.3317 10.8371 16.425 10.6008 16.4625 10.3514C16.4691 10.278 16.4691 10.2041 16.4625 10.1306L17.7079 9.69589V9.77869C17.7246 9.87551 17.7606 9.96746 17.8138 10.0484C17.8669 10.1293 17.9359 10.1974 18.016 10.2479C18.1241 10.3185 18.2494 10.3545 18.3765 10.3514C18.4476 10.3501 18.5182 10.3384 18.5863 10.3169L20.5527 9.62688C20.6344 9.59788 20.71 9.55221 20.775 9.49248C20.84 9.43274 20.8932 9.36011 20.9316 9.27873C20.9699 9.19735 20.9926 9.10882 20.9985 9.01819C21.0043 8.92756 20.9932 8.8366 20.9656 8.75051C20.9381 8.66442 20.8947 8.58489 20.838 8.51645C20.7812 8.44801 20.7122 8.39201 20.6349 8.35164C20.5576 8.31127 20.4735 8.28733 20.3874 8.28117C20.3013 8.27502 20.215 8.28678 20.1332 8.31578ZM5.71286 9.73729C5.6092 9.64643 5.5347 9.52412 5.49951 9.38704C5.46432 9.24996 5.47015 9.10479 5.51622 8.97133C5.52279 8.94738 5.5354 8.92575 5.55271 8.90874C5.57002 8.89173 5.59139 8.87997 5.61454 8.87472C5.65386 8.87472 5.7063 8.87472 5.78496 8.92993L9.75055 11.9455L9.53424 12.6355L5.71286 9.73729ZM15.0598 10.2893L11.5138 12.1525C11.3594 12.235 11.1803 12.2499 11.0156 12.1939C11.0578 11.9488 11.0363 11.6962 10.9532 11.4629C10.8701 11.2297 10.7286 11.0244 10.5437 10.869L6.61085 7.85344C6.42439 7.69725 6.20434 7.59166 5.97005 7.54593C5.73576 7.50021 5.49439 7.51576 5.26714 7.59122C4.95433 7.68649 4.68159 7.89089 4.49368 8.17087L3.60225 7.70163C3.56483 7.68382 3.52504 7.67218 3.48426 7.66713L3.83166 3.64411L5.79807 4.15475L5.92261 4.14095C6.02521 4.1403 6.12625 4.1143 6.21757 4.06504L7.37119 3.45089H7.79725L7.30565 4.49288C7.2279 4.65584 7.21459 4.84459 7.26864 5.01785C7.32268 5.19112 7.43967 5.33482 7.59405 5.41755L7.7317 5.49345C8.15841 5.71886 8.64844 5.77315 9.11037 5.64618C9.5723 5.5192 9.97458 5.21965 10.2421 4.8034H10.8976L15.0795 9.8339C15.0967 9.86988 15.1165 9.90447 15.1385 9.9374C15.161 9.95868 15.1777 9.98587 15.1869 10.0162C15.1961 10.0465 15.1975 10.0789 15.1909 10.1099C15.1938 10.146 15.1867 10.1821 15.1704 10.214C15.1541 10.2459 15.1294 10.272 15.0992 10.2893H15.0598ZM15.9513 8.86092L11.6514 3.68551C11.5907 3.61277 11.5162 3.55429 11.4326 3.51387C11.349 3.47345 11.2583 3.45199 11.1664 3.45089H9.85542C9.73438 3.45128 9.6158 3.48694 9.51283 3.55393C9.40986 3.62092 9.32652 3.71662 9.27205 3.83042L9.19995 3.97533C9.13046 4.12076 9.01438 4.23563 8.87222 4.29966L9.60634 2.76084H11.3827C11.5245 2.76084 11.6625 2.80926 11.7759 2.89885L13.4015 4.18235C13.6938 4.41244 14.0411 4.55238 14.4045 4.5865C14.768 4.62063 15.1334 4.54759 15.4597 4.37557L16.6854 3.73382L17.4785 8.32958L15.9513 8.86092Z" fill="#353535"/>
</svg>
