<svg width="396" height="430" viewBox="0 0 396 430" fill="none" xmlns="http://www.w3.org/2000/svg">
<path d="M337.37 95.3891L371.09 153.794L337.37 212.199L269.93 212.199L236.209 153.794L269.93 95.3891L337.37 95.3891Z" fill="#D4EEF9"/>
<path opacity="0.4" d="M231.915 33.7202L265.635 92.1253L231.915 150.53L164.475 150.53L130.754 92.1253L164.474 33.7202L231.915 33.7202Z" fill="#D4EEF9"/>
<path opacity="0.8" d="M231.302 156.441L265.022 214.846L231.302 273.251L163.861 273.251L130.141 214.846L163.861 156.441L231.302 156.441Z" fill="#D4EEF9"/>
<path opacity="0.7" d="M231.302 279.162L265.022 337.567L231.302 395.972L163.861 395.972L130.141 337.567L163.861 279.162L231.302 279.162Z" fill="#D4EEF9"/>
<path opacity="0.5" d="M125.847 94.7719L159.567 153.177L125.847 211.582L58.4061 211.582L24.6859 153.177L58.4061 94.772L125.847 94.7719Z" fill="#D4EEF9"/>
<path opacity="0.6" d="M125.847 217.494L159.567 275.899L125.847 334.304L58.4061 334.304L24.6859 275.899L58.4061 217.494L125.847 217.494Z" fill="#D4EEF9"/>
<path d="M337.37 218.11L371.09 276.515L337.37 334.92L269.93 334.92L236.209 276.515L269.93 218.11L337.37 218.11Z" fill="#D4EEF9"/>
</svg>
