<svg width="29" height="29" viewBox="0 0 29 29" fill="none" xmlns="http://www.w3.org/2000/svg">
<path opacity="0.2" d="M22.9583 12.6875C24.4083 11.3583 25.375 9.425 25.375 7.25C25.375 3.2625 22.1125 0 18.125 0C14.5 0 11.6 2.41667 10.9958 6.04167H10.875C6.8875 6.04167 3.625 9.30417 3.625 13.2917C3.625 15.4667 4.59167 17.4 6.04167 18.7292C3.86667 19.2125 1.8125 20.5417 0 22.9583V27.7917C0 28.5167 0.483333 29 1.20833 29H20.5417C21.2667 29 21.75 28.5167 21.75 27.7917V22.9583H27.7917C28.5167 22.9583 29 22.475 29 21.75V16.9167C27.3083 14.5 25.1333 13.1708 22.9583 12.6875ZM18.125 2.41667C20.7833 2.41667 22.9583 4.59167 22.9583 7.25C22.9583 9.90833 20.9042 12.0833 18.125 12.0833C18.125 9.54583 15.8292 7.37083 13.4125 6.525C13.775 4.22917 15.7083 2.41667 18.125 2.41667ZM6.04167 13.2917C6.04167 10.6333 8.21667 8.45833 10.875 8.45833C13.5333 8.45833 15.7083 10.6333 15.7083 13.2917C15.7083 15.95 13.5333 18.125 10.875 18.125C8.21667 18.125 6.04167 15.95 6.04167 13.2917ZM19.3333 26.5833H2.41667V24.1667C2.41667 24.1667 4.83333 20.5417 10.875 20.5417C16.9167 20.5417 19.3333 24.1667 19.3333 24.1667V26.5833ZM26.5833 20.5417H19.4542C18.2458 19.575 17.0375 18.9708 15.7083 18.7292C16.9167 17.6417 17.7625 16.1917 18.0042 14.5H18.125C24.1667 14.5 26.5833 18.125 26.5833 18.125V20.5417Z" fill="black"/>
</svg>
