<svg width="28" height="31" viewBox="0 0 28 31" fill="none" xmlns="http://www.w3.org/2000/svg">
<g opacity="0.2">
<path d="M26.7167 3.37712H21C21 2.67712 20.5333 2.21045 19.8333 2.21045C19.1333 2.21045 18.6667 2.67712 18.6667 3.37712H9.33333C9.33333 2.67712 8.86667 2.21045 8.16667 2.21045C7.46667 2.21045 7 2.67712 7 3.37712H1.28333C0.583333 3.37712 0 3.96045 0 4.66045V28.9271C0 29.6271 0.583333 30.2104 1.28333 30.2104H26.7167C27.4167 30.2104 28 29.6271 28 28.9271V4.66045C28 3.96045 27.4167 3.37712 26.7167 3.37712ZM25.6667 27.8771H2.33333V11.5438H25.6667V27.8771ZM25.6667 10.3771H2.33333V5.71045H7V6.87712C7 7.57712 7.46667 8.04378 8.16667 8.04378C8.86667 8.04378 9.33333 7.57712 9.33333 6.87712V5.71045H18.6667V6.87712C18.6667 7.57712 19.1333 8.04378 19.8333 8.04378C20.5333 8.04378 21 7.57712 21 6.87712V5.71045H25.6667V10.3771Z" fill="black"/>
<rect x="6.63086" y="0.736816" width="2.94737" height="7.36842" rx="1.47368" fill="black"/>
<rect x="18.4219" y="0.736816" width="2.94737" height="7.36842" rx="1.47368" fill="black"/>
</g>
</svg>
