<svg width="27" height="26" viewBox="0 0 27 26" fill="none" xmlns="http://www.w3.org/2000/svg">
<path d="M24.783 0H9.18301C8.83823 0 8.50757 0.136964 8.26377 0.380761C8.01997 0.624558 7.88301 0.955218 7.88301 1.3V3.9H1.38301C1.03823 3.9 0.707566 4.03696 0.463769 4.28076C0.219972 4.52456 0.0830078 4.85522 0.0830078 5.2V24.7C0.0830078 25.0448 0.219972 25.3754 0.463769 25.6192C0.707566 25.863 1.03823 26 1.38301 26H24.783C25.1278 26 25.4585 25.863 25.7022 25.6192C25.946 25.3754 26.083 25.0448 26.083 24.7V1.3C26.083 0.955218 25.946 0.624558 25.7022 0.380761C25.4585 0.136964 25.1278 0 24.783 0ZM2.68301 11.7H7.88301V14.3H2.68301V11.7ZM7.88301 6.5V9.1H2.68301V6.5H7.88301ZM2.68301 16.9H7.88301V23.4H2.68301V16.9ZM15.683 23.4V20.8H18.283V23.4H15.683ZM23.483 23.4H20.883V19.5C20.883 19.1552 20.746 18.8246 20.5022 18.5808C20.2584 18.337 19.9278 18.2 19.583 18.2H14.383C14.0382 18.2 13.7076 18.337 13.4638 18.5808C13.22 18.8246 13.083 19.1552 13.083 19.5V23.4H10.483V2.6H23.483V23.4Z" fill="#231F20"/>
<path d="M15.683 3.8999H13.083V6.4999H15.683V3.8999Z" fill="#231F20"/>
<path d="M20.883 3.8999H18.283V6.4999H20.883V3.8999Z" fill="#231F20"/>
<path d="M15.683 9.1001H13.083V11.7001H15.683V9.1001Z" fill="#231F20"/>
<path d="M20.883 9.1001H18.283V11.7001H20.883V9.1001Z" fill="#231F20"/>
<path d="M15.683 14.2998H13.083V16.8998H15.683V14.2998Z" fill="#231F20"/>
<path d="M20.883 14.2998H18.283V16.8998H20.883V14.2998Z" fill="#231F20"/>
</svg>
