<svg width="18" height="18" viewBox="0 0 18 18" fill="none" xmlns="http://www.w3.org/2000/svg">
<path d="M9 17C13.4183 17 17 13.4183 17 9C17 4.58172 13.4183 1 9 1C4.58172 1 1 4.58172 1 9C1 13.4183 4.58172 17 9 17Z" stroke="#008CC9" stroke-width="1.5" stroke-linecap="round" stroke-linejoin="round"/>
<path d="M6.67188 6.59967C6.85996 6.06501 7.2312 5.61416 7.71984 5.32698C8.20848 5.0398 8.78299 4.93482 9.34162 5.03064C9.90024 5.12646 10.4069 5.41689 10.7719 5.8505C11.1369 6.2841 11.3367 6.83289 11.3359 7.39967C11.3359 8.99967 8.93588 9.79967 8.93588 9.79967" stroke="#008CC9" stroke-width="1.5" stroke-linecap="round" stroke-linejoin="round"/>
<path d="M9 13H9.008" stroke="#008CC9" stroke-width="1.5" stroke-linecap="round" stroke-linejoin="round"/>
</svg>
