<svg width="17" height="17" viewBox="0 0 17 17" fill="none" xmlns="http://www.w3.org/2000/svg">
<path d="M9.91536 1.41666H4.2487C3.87297 1.41666 3.51264 1.56591 3.24696 1.83159C2.98129 2.09727 2.83203 2.4576 2.83203 2.83332V14.1667C2.83203 14.5424 2.98129 14.9027 3.24696 15.1684C3.51264 15.4341 3.87297 15.5833 4.2487 15.5833H12.7487C13.1244 15.5833 13.4848 15.4341 13.7504 15.1684C14.0161 14.9027 14.1654 14.5424 14.1654 14.1667V5.66666L9.91536 1.41666Z" stroke="#000000" stroke-linecap="round" stroke-linejoin="round"/>
<path d="M9.91797 1.41666V5.66666H14.168" stroke="#000000" stroke-linecap="round" stroke-linejoin="round"/>
<path d="M11.3346 9.20834H5.66797" stroke="#000000" stroke-linecap="round" stroke-linejoin="round"/>
<path d="M11.3346 12.0417H5.66797" stroke="#000000" stroke-linecap="round" stroke-linejoin="round"/>
<path d="M7.08463 6.375H6.3763H5.66797" stroke="#000000" stroke-linecap="round" stroke-linejoin="round"/>
</svg>
