<svg width="29" height="29" viewBox="0 0 29 29" fill="none" xmlns="http://www.w3.org/2000/svg">
<g opacity="0.2">
<path d="M27.1875 5.4375H19.9375V1.8125C19.9375 0.810641 19.126 0 18.125 0H10.875C9.87405 0 9.0625 0.810641 9.0625 1.8125V5.4375H1.8125C0.811547 5.4375 0 6.24814 0 7.25V27.1875C0 28.1894 0.811547 29 1.8125 29H27.1875C28.1885 29 29 28.1894 29 27.1875V7.25C29 6.24814 28.1885 5.4375 27.1875 5.4375ZM12.6875 3.625H16.3125V5.4375H12.6875V3.625ZM25.375 25.375H3.625V18.125H10.875V19.9375H18.125V18.125H25.375V25.375ZM25.375 16.3125H18.125V14.5H10.875V16.3125H3.625V9.0625H10.875H18.125H25.375V16.3125Z" fill="black"/>
</g>
</svg>
