<svg width="26" height="29" viewBox="0 0 26 29" fill="none" xmlns="http://www.w3.org/2000/svg">
<path d="M0 5.8C0 4.205 1.3 2.9 2.88889 2.9H23.1111C23.8773 2.9 24.6121 3.20553 25.1539 3.74939C25.6956 4.29325 26 5.03087 26 5.8V26.1C26 26.8691 25.6956 27.6068 25.1539 28.1506C24.6121 28.6945 23.8773 29 23.1111 29H2.88889C2.12271 29 1.38791 28.6945 0.846136 28.1506C0.304364 27.6068 0 26.8691 0 26.1V5.8ZM2.88889 8.7V26.1H23.1111V8.7H2.88889ZM5.77778 0H8.66667V2.9H5.77778V0ZM17.3333 0H20.2222V2.9H17.3333V0ZM5.77778 13.05H8.66667V15.95H5.77778V13.05ZM5.77778 18.85H8.66667V21.75H5.77778V18.85ZM11.5556 13.05H14.4444V15.95H11.5556V13.05ZM11.5556 18.85H14.4444V21.75H11.5556V18.85ZM17.3333 13.05H20.2222V15.95H17.3333V13.05ZM17.3333 18.85H20.2222V21.75H17.3333V18.85Z" fill="black"/>
</svg>
