<svg width="38" height="38" viewBox="0 0 38 38" fill="none" xmlns="http://www.w3.org/2000/svg">
<g opacity="0.2">
<path d="M33.25 3.16669H14.25C13.83 3.16669 13.4273 3.3335 13.1304 3.63043C12.8334 3.92737 12.6666 4.33009 12.6666 4.75002V7.91669H4.74996C4.33003 7.91669 3.92731 8.0835 3.63037 8.38043C3.33344 8.67737 3.16663 9.08009 3.16663 9.50002V33.25C3.16663 33.6699 3.33344 34.0727 3.63037 34.3696C3.92731 34.6665 4.33003 34.8334 4.74996 34.8334H33.25C33.6699 34.8334 34.0726 34.6665 34.3695 34.3696C34.6665 34.0727 34.8333 33.6699 34.8333 33.25V4.75002C34.8333 4.33009 34.6665 3.92737 34.3695 3.63043C34.0726 3.3335 33.6699 3.16669 33.25 3.16669ZM6.33329 17.4167H12.6666V20.5834H6.33329V17.4167ZM12.6666 11.0834V14.25H6.33329V11.0834H12.6666ZM6.33329 23.75H12.6666V31.6667H6.33329V23.75ZM22.1666 31.6667V28.5H25.3333V31.6667H22.1666ZM31.6666 31.6667H28.5V26.9167C28.5 26.4968 28.3331 26.094 28.0362 25.7971C27.7393 25.5002 27.3366 25.3334 26.9166 25.3334H20.5833C20.1634 25.3334 19.7606 25.5002 19.4637 25.7971C19.1668 26.094 19 26.4968 19 26.9167V31.6667H15.8333V6.33335H31.6666V31.6667Z" fill="#231F20"/>
<path d="M22.1667 7.91669H19V11.0834H22.1667V7.91669Z" fill="#231F20"/>
<path d="M28.4999 7.91669H25.3333V11.0834H28.4999V7.91669Z" fill="#231F20"/>
<path d="M22.1667 14.25H19V17.4167H22.1667V14.25Z" fill="#231F20"/>
<path d="M28.4999 14.25H25.3333V17.4167H28.4999V14.25Z" fill="#231F20"/>
<path d="M22.1667 20.5834H19V23.75H22.1667V20.5834Z" fill="#231F20"/>
<path d="M28.4999 20.5834H25.3333V23.75H28.4999V20.5834Z" fill="#231F20"/>
</g>
</svg>
