<svg width="396" height="430" viewBox="0 0 396 430" fill="none" xmlns="http://www.w3.org/2000/svg">
<path d="M58.4055 334.303L24.6852 275.898L58.4054 217.493L125.846 217.493L159.566 275.898L125.846 334.303L58.4055 334.303Z" fill="#D4EEF9"/>
<path opacity="0.4" d="M163.861 395.973L130.14 337.568L163.861 279.163L231.301 279.163L265.021 337.568L231.301 395.973L163.861 395.973Z" fill="#D4EEF9"/>
<path opacity="0.8" d="M164.474 273.251L130.754 214.845L164.474 156.44L231.914 156.44L265.634 214.845L231.914 273.251L164.474 273.251Z" fill="#D4EEF9"/>
<path opacity="0.7" d="M164.474 150.53L130.754 92.1247L164.474 33.7196L231.914 33.7196L265.634 92.1247L231.914 150.53L164.474 150.53Z" fill="#D4EEF9"/>
<path opacity="0.5" d="M269.929 334.92L236.209 276.515L269.929 218.11L337.369 218.11L371.089 276.515L337.369 334.92L269.929 334.92Z" fill="#D4EEF9"/>
<path opacity="0.6" d="M269.929 212.2L236.209 153.795L269.929 95.3896L337.369 95.3895L371.089 153.795L337.369 212.2L269.929 212.2Z" fill="#D4EEF9"/>
<path d="M58.4055 211.583L24.6852 153.177L58.4054 94.7724L125.846 94.7724L159.566 153.177L125.846 211.583L58.4055 211.583Z" fill="#D4EEF9"/>
</svg>
