<svg width="21" height="21" viewBox="0 0 21 21" fill="none" xmlns="http://www.w3.org/2000/svg">
<path d="M8.77344 11.6321C9.18422 12.1813 9.7083 12.6357 10.3101 12.9645C10.912 13.2933 11.5775 13.4889 12.2615 13.5378C12.9456 13.5868 13.6322 13.4881 14.2747 13.2484C14.9173 13.0088 15.5008 12.6337 15.9856 12.1487L18.8552 9.27909C19.7264 8.37708 20.2084 7.16899 20.1975 5.915C20.1866 4.66102 19.6837 3.46148 18.7969 2.57474C17.9102 1.68801 16.7106 1.18503 15.4567 1.17413C14.2027 1.16323 12.9946 1.64529 12.0926 2.51649L10.4474 4.15214" stroke="black" stroke-linecap="round" stroke-linejoin="round"/>
<path d="M12.5961 9.71908C12.1854 9.16991 11.6613 8.71551 11.0594 8.3867C10.4576 8.05789 9.7921 7.86236 9.10805 7.81337C8.424 7.76438 7.73741 7.86307 7.09486 8.10276C6.45231 8.34245 5.86882 8.71753 5.38398 9.20255L2.51441 12.0721C1.64322 12.9741 1.16116 14.1822 1.17206 15.4362C1.18295 16.6902 1.68593 17.8897 2.57267 18.7765C3.4594 19.6632 4.65894 20.1662 5.91293 20.1771C7.16691 20.188 8.37501 19.7059 9.27702 18.8347L10.9127 17.1991" stroke="black" stroke-linecap="round" stroke-linejoin="round"/>
</svg>
