<svg width="16" height="16" viewBox="0 0 16 16" fill="none" xmlns="http://www.w3.org/2000/svg">
<path d="M8 15C11.866 15 15 11.866 15 8C15 4.13401 11.866 1 8 1C4.13401 1 1 4.13401 1 8C1 11.866 4.13401 15 8 15Z" stroke="#81A2B0" stroke-linecap="round" stroke-linejoin="round"/>
<path d="M5.96094 5.90008C6.12551 5.43225 6.45034 5.03776 6.87791 4.78647C7.30547 4.53519 7.80816 4.44334 8.29696 4.52718C8.78576 4.61102 9.22911 4.86515 9.54849 5.24455C9.86787 5.62395 10.0427 6.10415 10.0419 6.60008C10.0419 8.00008 7.94194 8.70008 7.94194 8.70008" stroke="#81A2B0" stroke-linecap="round" stroke-linejoin="round"/>
<path d="M8 11.5H8.0075" stroke="#81A2B0" stroke-linecap="round" stroke-linejoin="round"/>
</svg>
