<svg width="16" height="11" viewBox="0 0 16 11" fill="none" xmlns="http://www.w3.org/2000/svg">
<path opacity="0.7" d="M14.709 6.91564L13.8194 7.23109L13.0469 2.76546L15.032 1.92753C15.0892 1.90358 15.1413 1.86801 15.1855 1.82285C15.2296 1.77769 15.2648 1.72382 15.2892 1.66432C15.3135 1.60482 15.3265 1.54085 15.3274 1.47607C15.3282 1.41129 15.317 1.34696 15.2942 1.28677C15.2715 1.22657 15.2377 1.17168 15.1948 1.12523C15.1519 1.07878 15.1007 1.04168 15.0442 1.01605C14.9877 0.990419 14.9269 0.976758 14.8654 0.975848C14.8038 0.974938 14.7427 0.986796 14.6856 1.01075L12.3446 1.99654C12.2426 2.03726 12.1573 2.11422 12.1034 2.21411C12.0496 2.31401 12.0305 2.43056 12.0496 2.54365V2.63237L10.9307 3.21892C10.8529 3.26044 10.7657 3.27828 10.6789 3.27045C10.592 3.26261 10.5089 3.2294 10.4391 3.17456L9.30135 2.25777C9.05822 2.06581 8.76251 1.96203 8.4586 1.96203H7.1898C7.01737 1.96212 6.84831 2.01234 6.70126 2.10714C6.5542 2.20194 6.43487 2.33764 6.35642 2.49929L5.51835 2.45493C5.43717 2.45131 5.3565 2.47 5.28426 2.50915L4.50238 2.91825L3.15398 2.56337V2.49929C3.16394 2.39929 3.14461 2.29848 3.09858 2.21037C3.05255 2.12227 2.98203 2.05109 2.89648 2.0064L1.02371 1.0206C0.914575 0.972761 0.79229 0.970151 0.681406 1.0133C0.570521 1.05645 0.479245 1.14216 0.425903 1.25322C0.372562 1.36428 0.361103 1.49248 0.393829 1.61207C0.426554 1.73166 0.501041 1.83379 0.602334 1.89796L2.18951 2.73588L1.80559 7.20152L0.962842 6.90578C0.90228 6.88507 0.838437 6.87712 0.774956 6.88238C0.711475 6.88764 0.6496 6.90602 0.592864 6.93645C0.536129 6.96689 0.485643 7.00879 0.44429 7.05977C0.402937 7.11075 0.371526 7.1698 0.351851 7.23356C0.332176 7.29732 0.324623 7.36453 0.329621 7.43136C0.33462 7.49819 0.352073 7.56333 0.380985 7.62306C0.409896 7.68279 0.449699 7.73594 0.498122 7.77947C0.546544 7.82301 0.602637 7.85607 0.663199 7.87679L2.06778 8.36968C2.11749 8.37678 2.16788 8.37678 2.2176 8.36968C2.30854 8.3678 2.39739 8.34059 2.4751 8.29082C2.53453 8.25003 2.58437 8.19556 2.62087 8.13152C2.65737 8.06748 2.67957 7.99554 2.68579 7.92115L2.72324 7.46275L3.32721 7.77821C3.38324 8.14404 3.56482 8.47552 3.83754 8.70978L6.53901 10.7504C6.63504 10.8338 6.74591 10.8962 6.86513 10.934C6.98435 10.9718 7.10952 10.9841 7.23333 10.9703C7.35715 10.9566 7.47711 10.917 7.5862 10.8538C7.69529 10.7906 7.79132 10.7052 7.86868 10.6025C8.04686 10.6738 8.23727 10.7049 8.4276 10.6939C8.61793 10.6828 8.80394 10.6299 8.97361 10.5384L11.5065 9.20761C11.6594 9.12631 11.7918 9.00796 11.8927 8.86228C11.9936 8.7166 12.0603 8.54777 12.0871 8.36968C12.0918 8.31722 12.0918 8.26442 12.0871 8.21196L12.9767 7.90143V7.96058C12.9885 8.02973 13.0143 8.09541 13.0522 8.15322C13.0902 8.21103 13.1395 8.25962 13.1967 8.29575C13.2739 8.34618 13.3634 8.37186 13.4542 8.36968C13.505 8.3687 13.5554 8.3604 13.604 8.34504L15.0086 7.85214C15.067 7.83143 15.121 7.79881 15.1674 7.75614C15.2139 7.71347 15.2518 7.66159 15.2792 7.60347C15.3066 7.54534 15.3229 7.4821 15.327 7.41736C15.3312 7.35263 15.3232 7.28766 15.3036 7.22616C15.2839 7.16467 15.2529 7.10786 15.2124 7.05898C15.1718 7.01009 15.1226 6.97009 15.0674 6.94126C15.0121 6.91242 14.9521 6.89532 14.8906 6.89092C14.8291 6.88653 14.7674 6.89493 14.709 6.91564ZM4.40874 7.93101C4.3347 7.86611 4.28148 7.77874 4.25635 7.68083C4.23121 7.58291 4.23538 7.47922 4.26828 7.38389C4.27297 7.36678 4.28198 7.35133 4.29435 7.33918C4.30671 7.32703 4.32197 7.31864 4.33851 7.31489C4.3666 7.31489 4.40405 7.31489 4.46024 7.35432L7.2928 9.50827L7.1383 10.0012L4.40874 7.93101ZM11.0852 8.32532L8.55224 9.65614C8.44199 9.71508 8.31408 9.72571 8.19641 9.68572C8.22659 9.51063 8.21118 9.33021 8.15183 9.16359C8.09249 8.99698 7.9914 8.85038 7.85931 8.73936L5.05016 6.5854C4.91697 6.47383 4.7598 6.39841 4.59245 6.36575C4.4251 6.33309 4.25269 6.3442 4.09037 6.3981C3.86693 6.46615 3.67212 6.61215 3.5379 6.81213L2.90116 6.47696C2.87443 6.46424 2.84601 6.45593 2.81688 6.45232L3.06503 3.57873L4.4696 3.94348L4.55856 3.93362C4.63185 3.93316 4.70401 3.91459 4.76924 3.8794L5.59326 3.44072H5.89759L5.54644 4.185C5.49091 4.3014 5.48141 4.43622 5.52001 4.55998C5.55861 4.68374 5.64218 4.78639 5.75245 4.84548L5.85077 4.8997C6.15556 5.0607 6.50558 5.09948 6.83553 5.00878C7.16548 4.91809 7.45282 4.70412 7.64395 4.4068H8.11214L11.0992 8.00001C11.1115 8.02571 11.1256 8.05042 11.1413 8.07395C11.1574 8.08914 11.1693 8.10856 11.1759 8.13022C11.1825 8.15187 11.1835 8.17498 11.1788 8.19717C11.1809 8.22292 11.1758 8.24876 11.1641 8.27152C11.1525 8.29427 11.1348 8.31297 11.1132 8.32532H11.0852ZM11.7219 7.30503L8.65056 3.60831C8.60721 3.55635 8.55396 3.51458 8.49427 3.4857C8.43458 3.45683 8.36978 3.44151 8.3041 3.44072H7.36771C7.28125 3.441 7.19655 3.46647 7.123 3.51432C7.04945 3.56217 6.98993 3.63053 6.95102 3.71182L6.89952 3.81532C6.84988 3.9192 6.76697 4.00125 6.66542 4.04698L7.1898 2.94783H8.4586C8.5599 2.94783 8.65847 2.98242 8.73952 3.04641L9.90063 3.96319C10.1094 4.12754 10.3575 4.2275 10.6171 4.25187C10.8767 4.27625 11.1377 4.22408 11.3708 4.1012L12.2463 3.64281L12.8128 6.9255L11.7219 7.30503Z" fill="black"/>
</svg>
