<svg width="17" height="15" viewBox="0 0 17 15" fill="none" xmlns="http://www.w3.org/2000/svg">
<g opacity="0.7">
<path d="M14.2 5.99998C14.2 5.66878 13.9312 5.39998 13.6 5.39998C13.2688 5.39998 13 5.66878 13 5.99998C13 6.14278 13 10.3572 13 10.5C13 10.8312 13.2688 11.1 13.6 11.1C13.9312 11.1 14.2 10.8312 14.2 10.5C14.2 10.3572 14.2 6.14278 14.2 5.99998Z" stroke="black" stroke-width="0.8" stroke-miterlimit="10"/>
<path d="M9.40078 14.1C9.73198 14.1 10.0008 13.8312 10.0008 13.5C10.0008 13.1688 9.73198 12.9 9.40078 12.9C9.25798 12.9 8.04358 12.9 7.90078 12.9C7.56958 12.9 7.30078 13.1688 7.30078 13.5C7.30078 13.8312 7.56958 14.1 7.90078 14.1C8.04358 14.1 9.25798 14.1 9.40078 14.1Z" stroke="black" stroke-width="0.8" stroke-miterlimit="10"/>
<path d="M3.39844 5.69993C3.39844 2.88323 5.68174 0.59993 8.49844 0.59993C11.3151 0.59993 13.5984 2.88323 13.5984 5.69993" stroke="black" stroke-width="0.8" stroke-miterlimit="10"/>
<path d="M14.1992 6C15.0278 6 15.6992 7.0071 15.6992 8.25C15.6992 9.4923 15.0278 10.5 14.1992 10.5" stroke="black" stroke-width="0.8" stroke-miterlimit="10"/>
<path d="M2.80078 5.99998C2.80078 5.66878 3.06958 5.39998 3.40078 5.39998C3.73198 5.39998 4.00078 5.66878 4.00078 5.99998C4.00078 6.14278 4.00078 10.3572 4.00078 10.5C4.00078 10.8312 3.73198 11.1 3.40078 11.1C3.06958 11.1 2.80078 10.8312 2.80078 10.5C2.80078 10.3572 2.80078 6.14278 2.80078 5.99998Z" stroke="black" stroke-width="0.8" stroke-miterlimit="10"/>
<path d="M2.80078 6C1.97248 6 1.30078 7.0071 1.30078 8.25C1.30078 9.4923 1.97248 10.5 2.80078 10.5" stroke="black" stroke-width="0.8" stroke-miterlimit="10"/>
<path d="M13.6 11.1C13.6 12.6 12.7 13.5 11.2 13.5H10" stroke="black" stroke-width="0.8" stroke-miterlimit="10"/>
</g>
</svg>
