<svg width="13" height="9" viewBox="0 0 13 9" fill="none" xmlns="http://www.w3.org/2000/svg">
<path fill-rule="evenodd" clip-rule="evenodd" d="M12.7551 0.328639C12.9249 0.526089 13.012 0.78023 12.9987 1.0391C12.9853 1.29796 12.8724 1.542 12.6831 1.7213L5.13741 8.70495C4.89586 8.9117 4.58211 9.0168 4.26321 8.99781C3.94432 8.97881 3.64559 8.83722 3.43089 8.60329L0.346816 5.87896C0.142329 5.69967 0.0182432 5.44741 0.00185583 5.17765C-0.0145315 4.9079 0.0781219 4.64276 0.259434 4.44055C0.440745 4.23835 0.695863 4.11565 0.968664 4.09945C1.24146 4.08324 1.5096 4.17486 1.71409 4.35415L4.45891 6.65153L11.3261 0.247316C11.5283 0.0746007 11.7905 -0.0134993 12.0573 0.00168087C12.324 0.016861 12.5743 0.134129 12.7551 0.328639Z" fill="#16DE66"/>
</svg>
