<svg width="17" height="17" viewBox="0 0 17 17" fill="none" xmlns="http://www.w3.org/2000/svg">
<path d="M8.50002 11.3333C10.0648 11.3333 11.3334 10.0648 11.3334 8.49996C11.3334 6.93515 10.0648 5.66663 8.50002 5.66663C6.93521 5.66663 5.66669 6.93515 5.66669 8.49996C5.66669 10.0648 6.93521 11.3333 8.50002 11.3333Z" stroke="#25282B" stroke-width="1.6" stroke-linecap="round" stroke-linejoin="round"/>
<path d="M11.3334 5.66667V9.20834C11.3334 9.77193 11.5572 10.3124 11.9558 10.7109C12.3543 11.1095 12.8948 11.3333 13.4584 11.3333C14.0219 11.3333 14.5624 11.1095 14.961 10.7109C15.3595 10.3124 15.5834 9.77193 15.5834 9.20834V8.50001C15.5833 6.90132 15.0424 5.34968 14.0486 4.09738C13.0548 2.84509 11.6667 1.96579 10.1098 1.60247C8.55296 1.23914 6.91898 1.41316 5.47357 2.09623C4.02815 2.77929 2.85631 3.93123 2.14858 5.36473C1.44086 6.79823 1.23888 8.42899 1.57548 9.99184C1.91208 11.5547 2.76747 12.9577 4.00256 13.9728C5.23764 14.9878 6.77979 15.5553 8.37824 15.5827C9.97669 15.6102 11.5374 15.0962 12.8067 14.1242" stroke="#25282B" stroke-width="1.6" stroke-linecap="round" stroke-linejoin="round"/>
</svg>
