<svg width="19" height="19" viewBox="0 0 19 19" fill="none" xmlns="http://www.w3.org/2000/svg">
<path fill-rule="evenodd" clip-rule="evenodd" d="M14.2252 6.06628C14.3629 6.22815 14.4335 6.43649 14.4227 6.6487C14.4118 6.86091 14.3203 7.06096 14.1669 7.20795L8.05021 12.933C7.85441 13.1024 7.60007 13.1886 7.34157 13.173C7.08307 13.1575 6.84092 13.0414 6.66688 12.8496L4.16688 10.6163C4.00112 10.4693 3.90053 10.2625 3.88725 10.0414C3.87396 9.82023 3.94907 9.60288 4.09604 9.43712C4.24302 9.27136 4.44982 9.17077 4.67096 9.15749C4.89209 9.1442 5.10945 9.21931 5.27521 9.36628L7.50021 11.2496L13.0669 5.99962C13.2308 5.85803 13.4433 5.78581 13.6596 5.79825C13.8758 5.8107 14.0787 5.90683 14.2252 6.06628Z" fill="#F68D1E"/>
<path fill-rule="evenodd" clip-rule="evenodd" d="M9.5 1.72728C7.9627 1.72728 6.45992 2.18314 5.1817 3.03722C3.90349 3.8913 2.90724 5.10523 2.31894 6.52551C1.73064 7.94579 1.57671 9.50862 1.87662 11.0164C2.17654 12.5241 2.91682 13.9091 4.00385 14.9961C5.09089 16.0832 6.47585 16.8235 7.98361 17.1234C9.49138 17.4233 11.0542 17.2694 12.4745 16.6811C13.8948 16.0928 15.1087 15.0965 15.9628 13.8183C16.8169 12.5401 17.2727 11.0373 17.2727 9.5C17.2727 7.43855 16.4538 5.46152 14.9961 4.00385C13.5385 2.54619 11.5615 1.72728 9.5 1.72728ZM0 9.5C0 7.62108 0.557165 5.78435 1.60104 4.22209C2.64491 2.65982 4.12861 1.44218 5.86451 0.723149C7.6004 0.00411623 9.51054 -0.184015 11.3534 0.182544C13.1962 0.549104 14.8889 1.45389 16.2175 2.78249C17.5461 4.11109 18.4509 5.80383 18.8175 7.64664C19.184 9.48946 18.9959 11.3996 18.2769 13.1355C17.5578 14.8714 16.3402 16.3551 14.7779 17.399C13.2156 18.4428 11.3789 19 9.5 19C6.98044 19 4.56408 17.9991 2.78249 16.2175C1.00089 14.4359 0 12.0196 0 9.5Z" fill="#F68D1E"/>
</svg>
