<svg width="20" height="20" viewBox="0 0 20 20" fill="none" xmlns="http://www.w3.org/2000/svg">
<path d="M18.3479 1.79167H14.4688C14.4688 1.31667 14.1521 1 13.6771 1C13.2021 1 12.8854 1.31667 12.8854 1.79167H6.55208C6.55208 1.31667 6.23542 1 5.76042 1C5.28542 1 4.96875 1.31667 4.96875 1.79167H1.08958C0.614583 1.79167 0.21875 2.1875 0.21875 2.6625V19.1292C0.21875 19.6042 0.614583 20 1.08958 20H18.3479C18.8229 20 19.2188 19.6042 19.2188 19.1292V2.6625C19.2188 2.1875 18.8229 1.79167 18.3479 1.79167ZM17.6354 18.4167H1.80208V7.33333H17.6354V18.4167ZM17.6354 6.54167H1.80208V3.375H4.96875V4.16667C4.96875 4.64167 5.28542 4.95833 5.76042 4.95833C6.23542 4.95833 6.55208 4.64167 6.55208 4.16667V3.375H12.8854V4.16667C12.8854 4.64167 13.2021 4.95833 13.6771 4.95833C14.1521 4.95833 14.4688 4.64167 14.4688 4.16667V3.375H17.6354V6.54167Z" fill="#888888"/>
<rect x="4.71875" width="2" height="5" rx="1" fill="#888888"/>
<rect x="12.7188" width="2" height="5" rx="1" fill="#888888"/>
</svg>
