<svg width="24" height="18" viewBox="0 0 24 18" fill="none" xmlns="http://www.w3.org/2000/svg">
<path d="M22.6562 0.03125H0.78125C0.57405 0.03125 0.375336 0.11356 0.228823 0.260073C0.08231 0.406586 0 0.6053 0 0.8125V3.15625C0 3.36345 0.08231 3.56216 0.228823 3.70868C0.375336 3.85519 0.57405 3.9375 0.78125 3.9375H3.90625V5.5C3.90625 5.7072 3.98856 5.90591 4.13507 6.05243C4.28159 6.19894 4.4803 6.28125 4.6875 6.28125H10.9375V12.6719L7.65625 13.3125C7.47713 13.349 7.31649 13.4472 7.20229 13.59C7.08809 13.7327 7.02756 13.911 7.03125 14.0938V16.4375C7.03125 16.6447 7.11356 16.8434 7.26007 16.9899C7.40659 17.1364 7.6053 17.2188 7.8125 17.2188H15.625C15.8322 17.2188 16.0309 17.1364 16.1774 16.9899C16.3239 16.8434 16.4062 16.6447 16.4062 16.4375V14.0938C16.4099 13.911 16.3494 13.7327 16.2352 13.59C16.121 13.4472 15.9604 13.349 15.7813 13.3125L12.5 12.6719V6.28125H18.75C18.9572 6.28125 19.1559 6.19894 19.3024 6.05243C19.4489 5.90591 19.5312 5.7072 19.5312 5.5V3.9375H22.6562C22.8635 3.9375 23.0622 3.85519 23.2087 3.70868C23.3552 3.56216 23.4375 3.36345 23.4375 3.15625V0.8125C23.4375 0.6053 23.3552 0.406586 23.2087 0.260073C23.0622 0.11356 22.8635 0.03125 22.6562 0.03125ZM14.8438 15.6562H8.59375V14.7344L11.7188 14.1094L14.8438 14.7344V15.6562ZM17.9688 4.71875H5.46875V3.9375H17.9688V4.71875ZM21.875 2.375H1.5625V1.59375H21.875V2.375Z" fill="#888888"/>
</svg>
