<svg width="42" height="42" viewBox="0 0 42 42" fill="none" xmlns="http://www.w3.org/2000/svg">
<path opacity="0.4" d="M20.7105 41.2843C9.58631 41.2843 0.568359 32.2664 0.568359 21.1422C0.568359 10.0179 9.58631 1 20.7105 1C31.8347 1 40.8527 10.0179 40.8527 21.1422C40.8527 32.2664 31.8347 41.2843 20.7105 41.2843Z" stroke="black"/>
<path d="M21.3761 32.3486C27.9798 32.3459 33.3506 26.9738 33.3532 20.3716C33.3545 17.1714 32.1098 14.1622 29.8485 11.8984C27.5873 9.63444 24.5801 8.38713 21.376 8.38574C14.7743 8.38574 9.40138 13.7584 9.39876 20.3621C9.39786 22.4731 9.94938 24.5335 10.9975 26.3499L9.29834 32.5563L15.6476 30.8908C17.397 31.845 19.3666 32.3479 21.3712 32.3486H21.3761Z" fill="black"/>
<path d="M27.4151 23.2195C27.3403 23.0947 27.1408 23.0198 26.8416 22.8699C26.5423 22.7201 25.0709 21.9962 24.7966 21.8963C24.5223 21.7964 24.3227 21.7465 24.1232 22.046C23.9238 22.3456 23.3502 23.0198 23.1757 23.2195C23.0011 23.4192 22.8265 23.4442 22.5273 23.2944C22.2281 23.1446 21.2638 22.8286 20.1207 21.809C19.231 21.0154 18.6304 20.0355 18.4558 19.7358C18.2812 19.4362 18.4372 19.2743 18.587 19.1251C18.7217 18.991 18.8863 18.7755 19.0359 18.6008C19.1856 18.4261 19.2354 18.3012 19.3352 18.1016C19.4349 17.9017 19.3851 17.727 19.3102 17.5772C19.2354 17.4274 18.6369 15.9544 18.3875 15.3551C18.1446 14.7716 17.8979 14.8506 17.7142 14.8414C17.5398 14.8327 17.3401 14.8308 17.1406 14.8308C16.9411 14.8308 16.6169 14.9057 16.3426 15.2053C16.0683 15.5049 15.2952 16.229 15.2952 17.7019C15.2952 19.175 16.3675 20.598 16.5172 20.7977C16.6668 20.9976 18.6274 24.0203 21.6295 25.3166C22.3435 25.6249 22.9009 25.8091 23.3356 25.947C24.0525 26.1748 24.705 26.1427 25.2205 26.0656C25.7956 25.9797 26.9911 25.3417 27.2406 24.6426C27.4899 23.9435 27.4899 23.3443 27.4151 23.2195Z" fill="white"/>
</svg>
