<svg width="43" height="42" viewBox="0 0 43 42" fill="none" xmlns="http://www.w3.org/2000/svg">
<path opacity="0.4" d="M21.4263 1.00012C32.5505 1.00012 41.5685 10.0181 41.5685 21.1423C41.5685 32.2665 32.5505 41.2844 21.4263 41.2844C10.3021 41.2844 1.28418 32.2665 1.28418 21.1423C1.28418 10.0181 10.3021 1.00012 21.4263 1.00012Z" stroke="black"/>
<path d="M26.7919 18.5896C26.6939 17.7937 26.4493 17.1688 26.0149 16.6153C25.4508 15.9025 24.7299 15.4757 23.6626 15.2225C22.9671 15.0537 22.6861 15.0731 22.4345 15.3029C22.2002 15.5182 22.1545 15.9498 22.3335 16.2292C22.4595 16.4321 22.6047 16.5048 23.0088 16.5841C23.5468 16.6831 23.9187 16.8115 24.2569 17.0049C24.9749 17.4195 25.3092 18.0682 25.345 19.1184C25.3617 19.6115 25.4043 19.7631 25.5765 19.938C25.8957 20.2577 26.4638 20.1955 26.7048 19.8129C26.7933 19.6687 26.8067 19.6059 26.8161 19.2711C26.8222 19.0638 26.8133 18.7553 26.7919 18.5896Z" fill="black"/>
<path d="M29.6028 19.4867C29.461 17.0483 28.5073 15.0866 26.8004 13.7063C25.8387 12.9307 24.6763 12.3974 23.4021 12.1381C22.9353 12.0453 22.0759 11.9701 21.9285 12.0131C21.7894 12.053 21.5926 12.2036 21.5049 12.3398C21.4122 12.4875 21.3913 12.8174 21.4704 13.0082C21.5981 13.3271 21.8357 13.4398 22.5009 13.498C23.5266 13.5877 24.5845 13.9481 25.3838 14.4815C26.2964 15.0889 27.0218 15.9197 27.4911 16.896C27.8965 17.7347 28.1459 18.9435 28.139 20.026C28.1367 20.4175 28.1971 20.6386 28.3546 20.8002C28.5922 21.0488 28.9386 21.1031 29.2444 20.938C29.5832 20.7598 29.6624 20.4471 29.6028 19.4867Z" fill="black"/>
<path d="M32.7141 28.8771C32.6664 28.7378 32.5551 28.5228 32.4756 28.3993C31.9747 27.6429 29.2834 25.5368 27.9398 24.848C27.1726 24.4539 26.6041 24.3225 26.1827 24.4459C25.7295 24.5734 25.491 24.7843 24.7317 25.7279C24.4256 26.1061 24.1116 26.4605 24.0281 26.5162C23.8214 26.6595 23.4159 26.775 23.1297 26.775C22.4658 26.771 21.2613 26.341 20.335 25.7757C19.6155 25.3378 18.6933 24.5534 17.9857 23.7771C17.1508 22.8653 16.5824 22.0611 16.1331 21.1534C15.5528 19.9869 15.4057 19.2742 15.6482 18.7526C15.7078 18.6212 15.7873 18.4819 15.823 18.4381C15.8589 18.3983 16.2326 18.0917 16.6459 17.7573C17.4569 17.1123 17.5881 16.965 17.7392 16.5231C17.93 15.9617 17.8783 15.3884 17.5841 14.8111C17.3575 14.3732 16.7652 13.4177 16.3359 12.8006C15.7674 11.9884 14.3522 10.2526 14.0699 10.0176C13.5611 9.60359 12.9092 9.53188 12.1896 9.81063C11.4304 10.1053 10.0072 11.2519 9.39898 12.0521C8.85038 12.7767 8.63976 13.2903 8.60793 13.9671C8.58012 14.5245 8.62781 14.7554 8.92198 15.4681C11.2237 21.0578 14.6583 25.5209 19.377 29.0643C21.8417 30.9155 24.3978 32.325 27.0493 33.2885C28.5957 33.8498 29.2675 33.8776 30.0586 33.4159C30.3925 33.2168 31.2194 32.3687 31.6805 31.7517C32.4438 30.7244 32.726 30.2507 32.8055 29.8725C32.8612 29.6137 32.8175 29.1638 32.7141 28.8771Z" fill="black"/>
<path d="M32.4656 20.0466C32.4147 18.6673 32.1825 17.536 31.6982 16.2746C31.2202 15.0339 30.7363 14.2242 29.8226 13.1291C28.9587 12.1024 28.2876 11.5161 27.2234 10.8635C25.7387 9.95427 23.9318 9.35257 21.9068 9.09952C21.2163 9.01108 21.06 9.01739 20.8482 9.15876C20.4376 9.42655 20.4431 10.0945 20.855 10.3583C20.9913 10.4422 21.1123 10.4728 21.6646 10.5451C22.5126 10.6592 23.0579 10.7668 23.7049 10.9433C26.2419 11.6369 28.193 13.0545 29.4973 15.1589C30.5889 16.9129 31.042 18.6671 30.9776 20.9075C30.9553 21.6649 30.9715 21.7982 31.0873 21.9801C31.309 22.3193 31.8937 22.3864 32.1937 22.105C32.3803 21.9334 32.4155 21.8047 32.4523 21.1564C32.4699 20.8182 32.4737 20.319 32.4656 20.0466Z" fill="black"/>
</svg>
