<svg width="41" height="41" viewBox="0 0 41 41" fill="none" xmlns="http://www.w3.org/2000/svg">
<path opacity="0.4" d="M39.7843 20.1422C39.7843 30.9902 30.9902 39.7843 20.1422 39.7843C9.29409 39.7843 0.5 30.9902 0.5 20.1422C0.5 9.29409 9.29409 0.5 20.1422 0.5C30.9902 0.5 39.7843 9.29409 39.7843 20.1422Z" stroke="black"/>
<path d="M7.50436 21.1277C9.85898 19.8307 12.4874 18.7482 14.9432 17.6602C19.1682 15.8781 23.4099 14.1269 27.6945 12.4966C28.5281 12.2188 30.026 11.9472 30.1728 13.1825C30.0924 14.9312 29.7616 16.6697 29.5347 18.4081C28.9587 22.2311 28.293 26.041 27.6438 29.8514C27.4201 31.1206 25.8302 31.7776 24.8128 30.9654C22.3679 29.3139 19.9042 27.6785 17.4905 25.9887C16.6998 25.1854 17.433 24.0316 18.1391 23.4579C20.1529 21.4734 22.2884 19.7873 24.1969 17.7002C24.7117 16.4571 23.1906 17.5048 22.6889 17.8258C19.9321 19.7256 17.2428 21.7413 14.3363 23.4109C12.8516 24.2282 11.1213 23.5298 9.63728 23.0737C8.30674 22.5228 6.35696 21.9678 7.50423 21.1278L7.50436 21.1277Z" fill="black"/>
</svg>
