<svg width="22" height="22" viewBox="0 0 22 22" fill="none" xmlns="http://www.w3.org/2000/svg">
<path fill-rule="evenodd" clip-rule="evenodd" d="M11 0C4.92487 0 0 4.92487 0 11C0 17.0751 4.92487 22 11 22C17.0751 22 22 17.0751 22 11C22 4.92487 17.0751 0 11 0ZM10.6936 9.32241L10.6705 8.94178C10.6013 7.95527 11.2091 7.05419 12.1709 6.70464C12.5249 6.58036 13.125 6.56482 13.5174 6.67357C13.6713 6.72018 13.9637 6.87553 14.1714 7.01536L14.5485 7.27169L14.964 7.13964C15.1948 7.06973 15.5026 6.95321 15.641 6.87553C15.7719 6.80562 15.8873 6.76678 15.8873 6.79009C15.8873 6.92214 15.6026 7.37268 15.3641 7.62125C15.0409 7.9708 15.1332 8.00187 15.7872 7.76884C16.1796 7.63678 16.1873 7.63678 16.1104 7.78437C16.0642 7.86205 15.8257 8.13393 15.5718 8.3825C15.1409 8.80973 15.1178 8.85634 15.1178 9.21366C15.1178 9.76517 14.8562 10.9148 14.5946 11.544C14.1099 12.7247 13.0712 13.9443 12.0324 14.5579C10.5705 15.4202 8.62387 15.6377 6.98499 15.1328C6.4387 14.9619 5.5 14.5269 5.5 14.4492C5.5 14.4259 5.78469 14.3948 6.13093 14.387C6.85419 14.3715 7.57745 14.1695 8.193 13.8122L8.60849 13.5637L8.13144 13.4005C7.45434 13.1675 6.8465 12.6315 6.69261 12.1266C6.64645 11.9635 6.66183 11.9557 7.09271 11.9557L7.53898 11.9479L7.16196 11.7693C6.71569 11.544 6.3079 11.1634 6.10785 10.775C5.96166 10.4954 5.77699 9.78848 5.83085 9.7341C5.84624 9.7108 6.00782 9.75741 6.19248 9.81955C6.72339 10.0137 6.79264 9.96714 6.48487 9.64089C5.9078 9.05053 5.73083 8.17277 6.00782 7.34161L6.13862 6.96875L6.64645 7.47366C7.68517 8.49125 8.90856 9.09714 10.3089 9.2758L10.6936 9.32241Z" fill="white"/>
</svg>
