<svg width="22" height="22" viewBox="0 0 22 22" fill="none" xmlns="http://www.w3.org/2000/svg">
<path fill-rule="evenodd" clip-rule="evenodd" d="M11 0C4.92487 0 0 4.92487 0 11C0 17.0751 4.92487 22 11 22C17.0751 22 22 17.0751 22 11C22 4.92487 17.0751 0 11 0ZM11.8951 14.4731C11.7867 14.5875 11.5749 14.6106 11.5749 14.6106H10.8736C10.8736 14.6106 9.32645 14.7018 7.96349 13.3093C6.47714 11.7901 5.16468 8.77576 5.16468 8.77576C5.16468 8.77576 5.08893 8.57803 5.171 8.48282C5.26339 8.37524 5.51532 8.36847 5.51532 8.36847L7.19162 8.35779C7.19162 8.35779 7.34944 8.38312 7.46249 8.46481C7.55603 8.53241 7.60826 8.65802 7.60826 8.65802C7.60826 8.65802 7.87913 9.33063 8.2378 9.939C8.93851 11.127 9.26447 11.3867 9.50205 11.2594C9.84868 11.0741 9.7448 9.58017 9.7448 9.58017C9.7448 9.58017 9.75112 9.03827 9.57034 8.7966C9.43032 8.60959 9.16634 8.55493 9.04984 8.53973C8.95515 8.52734 9.1101 8.31213 9.31095 8.21582C9.61281 8.07104 10.1454 8.06259 10.7749 8.06879C11.2656 8.07385 11.4068 8.10373 11.5984 8.14935C12.0433 8.2547 12.0294 8.59241 11.9994 9.32123C11.9905 9.53922 11.9801 9.79218 11.9801 10.0844C11.9801 10.15 11.9781 10.22 11.9761 10.292C11.9657 10.6654 11.9538 11.093 12.2044 11.2521C12.333 11.3332 12.6469 11.2639 13.4325 9.95477C13.805 9.33401 14.0839 8.60449 14.0839 8.60449C14.0839 8.60449 14.1453 8.47437 14.24 8.41861C14.337 8.36172 14.4678 8.37918 14.4678 8.37918L16.2319 8.36847C16.2319 8.36847 16.7622 8.30594 16.8477 8.54141C16.9378 8.7876 16.6497 9.36328 15.9289 10.3063C15.2452 11.201 14.9124 11.5305 14.943 11.8218C14.9653 12.0347 15.1816 12.2273 15.5966 12.6052C16.463 13.3948 16.6953 13.8102 16.7511 13.9101C16.7557 13.9183 16.7591 13.9244 16.7616 13.9284C17.1501 14.561 16.3306 14.6106 16.3306 14.6106L14.7634 14.632C14.7634 14.632 14.4271 14.6973 13.984 14.3988C13.752 14.2425 13.5252 13.9873 13.3092 13.7442C12.9793 13.373 12.6746 13.03 12.4145 13.111C11.9778 13.2473 11.991 14.1706 11.991 14.1706C11.991 14.1706 11.9944 14.3683 11.8951 14.4731Z" fill="white"/>
</svg>
