<svg width="23" height="23" viewBox="0 0 23 23" fill="none" xmlns="http://www.w3.org/2000/svg">
<path fill-rule="evenodd" clip-rule="evenodd" d="M11.3444 0C17.6098 0 22.6888 5.07907 22.6888 11.3444C22.6888 17.6098 17.6098 22.6888 11.3444 22.6888C5.07907 22.6888 0 17.6098 0 11.3444C0 5.07907 5.07907 0 11.3444 0ZM14.3668 9.90684C14.3116 9.45858 14.1738 9.10662 13.9291 8.79486C13.6114 8.39342 13.2054 8.15303 12.6043 8.01043C12.2126 7.91539 12.0543 7.9263 11.9126 8.05572C11.7806 8.17697 11.7549 8.42004 11.8557 8.57745C11.9266 8.69169 12.0085 8.73262 12.236 8.77729C12.5391 8.83305 12.7485 8.90541 12.939 9.01433C13.3434 9.24781 13.5317 9.61317 13.5518 10.2047C13.5612 10.4824 13.5852 10.5678 13.6822 10.6663C13.862 10.8463 14.182 10.8113 14.3177 10.5958C14.3675 10.5146 14.3751 10.4793 14.3804 10.2907C14.3838 10.1739 14.3788 10.0002 14.3668 9.90684ZM14.3722 7.15685C15.3335 7.93424 15.8707 9.03914 15.9505 10.4125C15.9841 10.9534 15.9395 11.1295 15.7487 11.2299C15.5765 11.3229 15.3814 11.2923 15.2475 11.1523C15.1589 11.0612 15.1248 10.9367 15.1261 10.7162C15.13 10.1066 14.9895 9.42575 14.7612 8.95333C14.4969 8.40349 14.0883 7.93558 13.5743 7.59349C13.1241 7.29303 12.5283 7.09008 11.9507 7.03954C11.5759 7.00675 11.4421 6.94329 11.3702 6.76366C11.3257 6.6562 11.3374 6.47044 11.3897 6.38723C11.4391 6.31051 11.5499 6.22567 11.6282 6.20323C11.7113 6.17901 12.1953 6.22136 12.4582 6.2736C13.1758 6.41968 13.8306 6.72004 14.3722 7.15685ZM17.7031 15.7008C17.6762 15.6223 17.6135 15.5012 17.5687 15.4317C17.2866 15.0057 15.7709 13.8195 15.0141 13.4315C14.582 13.2096 14.2618 13.1356 14.0245 13.205C13.7692 13.2768 13.6349 13.3956 13.2072 13.9271C13.0349 14.1401 12.858 14.3397 12.811 14.3711C12.6945 14.4518 12.4662 14.5169 12.305 14.5169C11.931 14.5146 11.2526 14.2724 10.731 13.954C10.3257 13.7074 9.8063 13.2656 9.40775 12.8284C8.93754 12.3149 8.61741 11.8619 8.36438 11.3507C8.03751 10.6937 7.95467 10.2923 8.09123 9.9985C8.12482 9.92451 8.16961 9.84605 8.18973 9.82135C8.2099 9.79896 8.42037 9.62628 8.65319 9.43792C9.10997 9.07468 9.18384 8.99171 9.26892 8.7428C9.37638 8.42662 9.3473 8.10372 9.18161 7.7786C9.05398 7.53193 8.72038 6.99377 8.47858 6.64621C8.15841 6.18879 7.36134 5.21113 7.20235 5.07879C6.91577 4.84561 6.54861 4.80523 6.14332 4.96222C5.71572 5.12816 4.91415 5.77395 4.57158 6.22467C4.26261 6.63276 4.14398 6.92201 4.12605 7.30322C4.11039 7.61713 4.13724 7.74719 4.30293 8.14858C5.59929 11.2968 7.53372 13.8105 10.1914 15.8062C11.5795 16.8489 13.0192 17.6427 14.5126 18.1853C15.3835 18.5015 15.7619 18.5172 16.2074 18.2571C16.3955 18.145 16.8612 17.6673 17.1209 17.3198C17.5508 16.7412 17.7098 16.4744 17.7546 16.2614C17.7859 16.1156 17.7613 15.8623 17.7031 15.7008ZM17.1306 8.60322C17.4033 9.31363 17.5341 9.95082 17.5628 10.7276C17.5673 10.8811 17.5652 11.1623 17.5553 11.3527C17.5346 11.7178 17.5147 11.7904 17.4096 11.887C17.2407 12.0455 16.9114 12.0077 16.7865 11.8167C16.7213 11.7142 16.7121 11.6391 16.7247 11.2125C16.761 9.95072 16.5058 8.96274 15.891 7.97484C15.1563 6.7896 14.0575 5.99117 12.6286 5.60055C12.2642 5.50113 11.9571 5.44053 11.4795 5.37623C11.1684 5.33551 11.1002 5.3183 11.0234 5.27104C10.7915 5.12247 10.7884 4.74627 11.0196 4.59545C11.139 4.51583 11.2269 4.51227 11.6159 4.56208C12.7564 4.70461 13.7741 5.0435 14.6103 5.5556C15.2097 5.92315 15.5876 6.25334 16.0742 6.83163C16.5888 7.4484 16.8613 7.90441 17.1306 8.60322Z" fill="#464646"/>
</svg>
