<svg width="23" height="23" viewBox="0 0 23 23" fill="none" xmlns="http://www.w3.org/2000/svg">
<path fill-rule="evenodd" clip-rule="evenodd" d="M0 11.3444C0 17.6098 5.07907 22.6888 11.3444 22.6888C17.6098 22.6888 22.6888 17.6098 22.6888 11.3444C22.6888 5.07907 17.6098 0 11.3444 0C5.07907 0 0 5.07907 0 11.3444ZM18.4641 10.9102C18.4626 14.6286 15.4377 17.6543 11.7184 17.6558H11.7156C10.5866 17.6554 9.47728 17.3722 8.49199 16.8347L4.91597 17.7728L5.87297 14.2772C5.28265 13.2542 4.97202 12.0937 4.97253 10.9048C4.97401 7.1855 8.00015 4.15952 11.7183 4.15952C13.5229 4.1603 15.2166 4.86281 16.4902 6.13789C17.7638 7.41292 18.4648 9.10773 18.4641 10.9102Z" fill="#464646"/>
<path fill-rule="evenodd" clip-rule="evenodd" d="M6.53553 16.1706L8.65759 15.614L8.86233 15.7355C9.72317 16.2463 10.7099 16.5166 11.716 16.517H11.7183C14.8086 16.517 17.3238 14.0018 17.325 10.9102C17.3256 9.41203 16.743 8.00337 15.6844 6.94357C14.6258 5.88377 13.2181 5.29984 11.7205 5.29932C8.62784 5.29932 6.11262 7.81431 6.11139 10.9056C6.11096 11.9651 6.40738 12.9968 6.96863 13.8895L7.10194 14.1016L6.53553 16.1706ZM14.8859 12.3631C15.0034 12.4199 15.0828 12.4583 15.1167 12.5149C15.1588 12.5851 15.1588 12.9226 15.0185 13.3164C14.8779 13.7101 14.2046 14.0695 13.8807 14.1178C13.5903 14.1613 13.2229 14.1794 12.8191 14.051C12.5743 13.9734 12.2603 13.8697 11.8582 13.696C10.278 13.0137 9.21019 11.4822 9.00837 11.1927C8.99423 11.1724 8.98434 11.1583 8.97882 11.1509L8.97746 11.1491C8.88827 11.0301 8.29058 10.2326 8.29058 9.40728C8.29058 8.63088 8.67196 8.22393 8.84751 8.03661C8.85954 8.02377 8.8706 8.01197 8.8805 8.00115C9.035 7.8324 9.21762 7.79022 9.32998 7.79022C9.44233 7.79022 9.55482 7.79125 9.65302 7.79619C9.66514 7.79679 9.67775 7.79672 9.69078 7.79664C9.789 7.79607 9.91146 7.79535 10.0323 8.08552C10.0787 8.1972 10.1467 8.36275 10.2185 8.53735C10.3635 8.89046 10.5237 9.28059 10.5519 9.33705C10.5941 9.42142 10.6222 9.51982 10.566 9.63236C10.5576 9.64923 10.5498 9.66516 10.5423 9.68037C10.5001 9.76652 10.4691 9.8299 10.3974 9.91352C10.3693 9.9464 10.3402 9.98185 10.3111 10.0173C10.2531 10.0879 10.1951 10.1585 10.1446 10.2088C10.0602 10.2929 9.97239 10.3841 10.0707 10.5528C10.169 10.7216 10.5073 11.2735 11.0084 11.7205C11.547 12.2009 12.0152 12.404 12.2525 12.5069C12.2988 12.527 12.3363 12.5433 12.3639 12.557C12.5324 12.6414 12.6307 12.6273 12.729 12.5149C12.8273 12.4024 13.1504 12.0227 13.2627 11.854C13.3751 11.6853 13.4875 11.7134 13.6419 11.7696C13.7965 11.8259 14.6252 12.2336 14.7937 12.318C14.8266 12.3345 14.8574 12.3493 14.8859 12.3631Z" fill="#464646"/>
</svg>
