<svg width="23" height="23" viewBox="0 0 23 23" fill="none" xmlns="http://www.w3.org/2000/svg">
<path fill-rule="evenodd" clip-rule="evenodd" d="M11.3444 0.453646C10.6772 0.453646 10.024 0.513649 9.38988 0.628554C8.5377 0.225452 7.58506 0 6.57976 0C2.94586 0 0 2.94586 0 6.57976C0 7.58513 0.225485 8.53784 0.628642 9.39006C0.513776 10.0241 0.453794 10.6772 0.453794 11.3443C0.453794 17.359 5.3297 22.2349 11.3444 22.2349C12.0113 22.2349 12.6641 22.175 13.2979 22.0602C14.1504 22.4636 15.1034 22.6892 16.1091 22.6892C19.743 22.6892 22.6888 19.7434 22.6888 16.1095C22.6888 15.104 22.4633 14.1513 22.0601 13.299C22.175 12.6649 22.2351 12.0116 22.2351 11.3443C22.2351 5.32955 17.3592 0.453646 11.3444 0.453646ZM7.48215 10.0418C7.73909 10.4822 8.09429 10.8572 8.52004 11.1377H8.52002C9.08428 11.5069 9.68411 11.8186 10.3105 12.0682C11.0107 12.3605 11.5538 12.6086 11.9398 12.8126C12.2665 12.9729 12.563 13.1883 12.8164 13.4494C13.0082 13.653 13.1147 13.9224 13.1141 14.2021C13.1223 14.3991 13.0835 14.5953 13.0008 14.7744C12.9181 14.9535 12.7939 15.1102 12.6386 15.2318C12.2237 15.5111 11.7273 15.6435 11.2285 15.6081C10.9463 15.6109 10.6647 15.5818 10.3892 15.5213C10.1656 15.4721 9.9469 15.4029 9.73578 15.3145C9.55095 15.2346 9.2987 15.1147 8.97901 14.9547C8.72172 14.8174 8.43533 14.7437 8.14374 14.7396C7.88176 14.7288 7.62563 14.8191 7.42838 14.9919C7.33441 15.0814 7.26098 15.1903 7.21316 15.3109C7.16533 15.4316 7.14426 15.5612 7.15138 15.6908C7.14547 15.9364 7.21948 16.1773 7.3623 16.3773C7.53459 16.5956 7.7574 16.7688 8.01151 16.8818C9.00452 17.3119 10.0809 17.5153 11.1624 17.4773C11.9494 17.4932 12.7327 17.3657 13.474 17.101C14.0891 16.8826 14.6249 16.4851 15.0121 15.9596C15.3925 15.4045 15.5852 14.7422 15.5621 14.0697C15.577 13.5206 15.4396 12.9782 15.1652 12.5024C14.8864 12.0495 14.5107 11.6639 14.0652 11.3734C13.5013 11.0097 12.9029 10.7022 12.2789 10.4554C12.2121 10.4227 12.143 10.3951 12.0721 10.3727C11.4326 10.1081 10.9515 9.89578 10.629 9.73579C10.3411 9.60098 10.0804 9.41456 9.8598 9.18578C9.67425 8.99081 9.57192 8.73125 9.57451 8.46211C9.56549 8.25694 9.61178 8.05312 9.70853 7.87197C9.80527 7.69082 9.94893 7.539 10.1245 7.43239C10.54 7.18504 11.0182 7.06299 11.5015 7.08092C11.8726 7.07693 12.2425 7.12283 12.6014 7.21737C12.9911 7.32975 13.3725 7.4693 13.7427 7.635C13.8931 7.70468 14.0566 7.74136 14.2224 7.74258C14.3428 7.74582 14.4625 7.72354 14.5737 7.67721C14.6849 7.63088 14.785 7.56154 14.8675 7.47376C14.9545 7.3785 15.022 7.26702 15.066 7.14568C15.11 7.02434 15.1296 6.89553 15.1238 6.76659C15.1277 6.51837 15.041 6.27726 14.8799 6.08835C14.6614 5.85868 14.3903 5.68555 14.09 5.58386C13.7632 5.46379 13.4252 5.37652 13.0811 5.32332C12.6 5.2444 12.113 5.20705 11.6255 5.21167C10.8806 5.20714 10.1405 5.33167 9.43803 5.57972C8.79231 5.7978 8.21591 6.18307 7.76747 6.69631C7.33587 7.2074 7.10772 7.85959 7.12662 8.52827C7.11135 9.05514 7.2339 9.57687 7.48215 10.0418Z" fill="#464646"/>
</svg>
