<svg width="23" height="23" viewBox="0 0 23 23" fill="none" xmlns="http://www.w3.org/2000/svg">
<path fill-rule="evenodd" clip-rule="evenodd" d="M11.5 0C5.14873 0 0 5.14873 0 11.5C0 17.8513 5.14873 23 11.5 23C17.8513 23 23 17.8513 23 11.5C23 5.14873 17.8513 0 11.5 0ZM11.1797 9.74522L11.1556 9.3473C11.0832 8.31594 11.7187 7.37391 12.7242 7.00847C13.0942 6.87853 13.7216 6.86229 14.1319 6.97598C14.2927 7.02471 14.5984 7.18713 14.8156 7.3333L15.2098 7.6013L15.6441 7.46324C15.8855 7.39015 16.2072 7.26834 16.352 7.18713C16.4888 7.11404 16.6094 7.07343 16.6094 7.0978C16.6094 7.23585 16.3118 7.70687 16.0624 7.96674C15.7246 8.33218 15.8211 8.36466 16.5048 8.12104C16.9151 7.98298 16.9231 7.98298 16.8427 8.13728C16.7944 8.21849 16.5451 8.50272 16.2796 8.76259C15.8291 9.20924 15.805 9.25797 15.805 9.63153C15.805 10.2081 15.5315 11.41 15.258 12.0678C14.7512 13.3022 13.6653 14.5772 12.5794 15.2187C11.051 16.1202 9.01587 16.3475 7.30249 15.8197C6.73137 15.641 5.75 15.1863 5.75 15.105C5.75 15.0807 6.04763 15.0482 6.40961 15.0401C7.16575 15.0238 7.92188 14.8127 8.5654 14.4391L8.99978 14.1793L8.50105 14.0087C7.79318 13.7651 7.1577 13.2047 6.99682 12.6769C6.94856 12.5063 6.96465 12.4982 7.41511 12.4982L7.88166 12.4901L7.48751 12.3033C7.02095 12.0678 6.59462 11.6699 6.38548 11.2638C6.23264 10.9715 6.03958 10.2325 6.09589 10.1756C6.11198 10.1513 6.2809 10.2 6.47396 10.265C7.029 10.468 7.10139 10.4193 6.77963 10.0782C6.17633 9.46099 5.99132 8.54332 6.2809 7.67438L6.41765 7.28458L6.94856 7.81244C8.0345 8.87628 9.3135 9.50972 10.7775 9.6965L11.1797 9.74522Z" fill="#464646"/>
</svg>
