<svg width="23" height="23" viewBox="0 0 23 23" fill="none" xmlns="http://www.w3.org/2000/svg">
<path fill-rule="evenodd" clip-rule="evenodd" d="M15.0303 0H7.96965C1.52576 0 0 1.52576 0 7.96965V15.0303C0 21.4742 1.52576 23 7.96965 23H15.0303C21.4742 23 23 21.4742 23 15.0303V7.96965C23 1.52576 21.4742 0 15.0303 0ZM18.3253 7.3041C18.8285 7.3041 18.9421 7.56381 18.8285 7.9209C18.6512 8.73928 17.1787 10.9102 16.7226 11.5826C16.6359 11.7103 16.586 11.784 16.5886 11.784C16.41 12.0762 16.3451 12.206 16.5886 12.5306C16.6766 12.6507 16.8632 12.8338 17.0765 13.0431C17.2959 13.2584 17.5435 13.5013 17.741 13.7318C18.4552 14.5433 19.0071 15.2251 19.1531 15.6958C19.283 16.1665 19.0558 16.41 18.5688 16.41H16.897C16.4539 16.41 16.2255 16.1555 15.7388 15.6133C15.5301 15.3807 15.2739 15.0953 14.933 14.7544C13.9428 13.7967 13.5046 13.6668 13.2611 13.6668C12.9203 13.6668 12.8229 13.748 12.8229 14.2349V15.7445C12.8229 16.1503 12.693 16.3937 11.6217 16.3937C9.85251 16.3937 7.8885 15.3225 6.50883 13.326C4.4312 10.4043 3.8631 8.19683 3.8631 7.75858C3.8631 7.51511 3.94426 7.28787 4.4312 7.28787H6.11927C6.54129 7.28787 6.70361 7.46642 6.86592 7.93713C7.69373 10.3232 9.0734 12.417 9.6415 12.417C9.85251 12.417 9.9499 12.3196 9.9499 11.784V9.31681C9.90983 8.61553 9.66571 8.30999 9.48468 8.08342C9.37241 7.9429 9.28441 7.83276 9.28441 7.67743C9.28441 7.48265 9.44672 7.28787 9.70643 7.28787H12.3359C12.693 7.28787 12.8229 7.48265 12.8229 7.90467V11.2321C12.8229 11.5892 12.969 11.7191 13.0826 11.7191C13.2936 11.7191 13.4721 11.5892 13.8617 11.1997C15.0628 9.85244 15.9231 7.77482 15.9231 7.77482C16.0367 7.53134 16.2315 7.3041 16.6535 7.3041H18.3253Z" fill="#464646"/>
</svg>
