<svg width="18" height="18" viewBox="0 0 18 18" fill="none" xmlns="http://www.w3.org/2000/svg">
<path d="M1.76631 1.20142C2.42704 0.481503 3.34582 0.0512505 4.32271 0.00428963C5.2996 -0.0426693 6.25554 0.297464 6.98249 0.950676L7.54275 1.51003C8.17119 2.19337 8.51586 3.08972 8.50689 4.01737C8.49792 4.94502 8.13598 5.83456 7.49445 6.50566C8.02304 7.29051 8.62111 8.02641 9.28148 8.70451C9.95742 9.36549 10.6877 9.96875 11.4645 10.508C12.1352 9.85924 13.0289 9.49092 13.9626 9.47838C14.8964 9.46583 15.7996 9.80999 16.4875 10.4404L17.0478 10.9998C17.7021 11.7256 18.0427 12.68 17.9957 13.6553C17.9487 14.6306 17.5177 15.5479 16.7966 16.2076L15.8307 17.172C15.4311 17.5634 14.9266 17.8309 14.3781 17.9421C13.8295 18.0533 13.2604 18.0036 12.7396 17.7989C9.92587 16.6251 7.36214 14.9263 5.18581 12.7936C3.057 10.6097 1.36527 8.04019 0.201452 5.223C-0.0036011 4.70301 -0.0534271 4.13485 0.0579953 3.58719C0.169418 3.03953 0.437319 2.53581 0.829326 2.1369L1.76631 1.20142ZM1.98848 4.49005C2.13337 4.83724 2.34588 5.32909 2.63567 5.91737C2.73227 6.11026 2.84818 6.31278 2.9641 6.53459C3.91891 8.3297 5.12567 9.97942 6.54781 11.4338C7.35068 12.2198 8.21648 12.9391 9.13658 13.5844C9.67752 13.9702 10.2185 14.3077 10.7208 14.6067C11.2231 14.9057 11.6867 15.1275 12.0731 15.3396C12.6623 15.629 13.155 15.8411 13.5027 15.9858C13.666 16.0499 13.8444 16.0648 14.0161 16.0288C14.1877 15.9929 14.3451 15.9075 14.4687 15.7833L15.4346 14.8189C15.7927 14.5201 16.0188 14.0927 16.064 13.629C16.1091 13.1653 15.9698 12.7024 15.6761 12.3403L15.1159 11.781C14.752 11.4888 14.2877 11.3514 13.8231 11.3983C13.3586 11.4452 12.9312 11.6728 12.6334 12.0317L11.7157 12.9961C11.2424 12.7164 10.7497 12.3982 10.2668 12.0317C9.42879 11.4593 8.64329 10.8138 7.91947 10.1029C6.80309 8.93683 5.83023 7.64178 5.02159 6.24527L5.91028 5.35802C6.26982 5.06063 6.49771 4.63393 6.5447 4.17015C6.5917 3.70637 6.45402 3.24275 6.16143 2.87949L5.60117 2.32014C5.23852 2.02689 4.77491 1.88781 4.31044 1.93292C3.84596 1.97803 3.41789 2.20371 3.11865 2.56124L2.15269 3.52564C2.03475 3.65327 1.95645 3.81233 1.9273 3.98353C1.89815 4.15472 1.9194 4.33068 1.98848 4.49005Z" fill="#464646"/>
</svg>
