<svg width="22" height="22" viewBox="0 0 22 22" fill="none" xmlns="http://www.w3.org/2000/svg">
<path d="M18.3334 2.44727H3.66669C2.93734 2.44727 2.23787 2.737 1.72214 3.25272C1.20642 3.76845 0.916687 4.46792 0.916687 5.19727V13.4473C0.916687 13.8084 0.987818 14.166 1.12602 14.4996C1.26422 14.8333 1.46678 15.1364 1.72214 15.3918C1.9775 15.6472 2.28066 15.8497 2.61431 15.9879C2.94795 16.1261 3.30555 16.1973 3.66669 16.1973H5.04169L7.15002 19.0023C7.2781 19.173 7.44417 19.3116 7.6351 19.4071C7.82603 19.5026 8.03656 19.5523 8.25002 19.5523C8.46348 19.5523 8.67401 19.5026 8.86494 19.4071C9.05586 19.3116 9.22194 19.173 9.35002 19.0023L11.4584 16.1973H18.3334C19.0627 16.1973 19.7622 15.9075 20.2779 15.3918C20.7936 14.8761 21.0834 14.1766 21.0834 13.4473V5.19727C21.0834 4.83613 21.0122 4.47853 20.874 4.14489C20.7358 3.81124 20.5333 3.50808 20.2779 3.25272C20.0225 2.99736 19.7194 2.7948 19.3857 2.6566C19.0521 2.5184 18.6945 2.44727 18.3334 2.44727ZM19.25 13.4473C19.25 13.6904 19.1534 13.9235 18.9815 14.0954C18.8096 14.2674 18.5765 14.3639 18.3334 14.3639H10.5417L8.25002 17.4164L5.95835 14.3639H3.66669C3.42357 14.3639 3.19041 14.2674 3.01851 14.0954C2.8466 13.9235 2.75002 13.6904 2.75002 13.4473V5.19727C2.75002 4.95415 2.8466 4.72099 3.01851 4.54908C3.19041 4.37718 3.42357 4.2806 3.66669 4.2806H18.3334C18.5765 4.2806 18.8096 4.37718 18.9815 4.54908C19.1534 4.72099 19.25 4.95415 19.25 5.19727V13.4473Z" fill="#464646"/>
<path d="M5.50004 7.9471H10.0834C10.3265 7.9471 10.5596 7.85052 10.7316 7.67862C10.9035 7.50671 11 7.27355 11 7.03044C11 6.78732 10.9035 6.55416 10.7316 6.38225C10.5596 6.21035 10.3265 6.11377 10.0834 6.11377H5.50004C5.25693 6.11377 5.02377 6.21035 4.85186 6.38225C4.67995 6.55416 4.58337 6.78732 4.58337 7.03044C4.58337 7.27355 4.67995 7.50671 4.85186 7.67862C5.02377 7.85052 5.25693 7.9471 5.50004 7.9471Z" fill="#464646"/>
<path d="M15.5834 9.78076H5.50004C5.25693 9.78076 5.02377 9.87734 4.85186 10.0492C4.67995 10.2212 4.58337 10.4543 4.58337 10.6974C4.58337 10.9405 4.67995 11.1737 4.85186 11.3456C5.02377 11.5175 5.25693 11.6141 5.50004 11.6141H15.5834C15.8265 11.6141 16.0596 11.5175 16.2316 11.3456C16.4035 11.1737 16.5 10.9405 16.5 10.6974C16.5 10.4543 16.4035 10.2212 16.2316 10.0492C16.0596 9.87734 15.8265 9.78076 15.5834 9.78076Z" fill="#464646"/>
</svg>
