<svg width="23" height="23" viewBox="0 0 23 23" fill="none" xmlns="http://www.w3.org/2000/svg">
<path fill-rule="evenodd" clip-rule="evenodd" d="M22.6888 11.3444C22.6888 17.6098 17.6098 22.6888 11.3444 22.6888C5.07907 22.6888 0 17.6098 0 11.3444C0 5.07907 5.07907 0 11.3444 0C17.6098 0 22.6888 5.07907 22.6888 11.3444ZM7.5968 10.3051C6.46039 10.8013 5.29273 11.3111 4.22503 11.8992L4.22495 11.8993C3.66743 12.3075 4.40849 12.5962 5.10365 12.867C5.21417 12.9101 5.32353 12.9527 5.42632 12.9952C5.51186 13.0215 5.59886 13.0492 5.68701 13.0773C6.46016 13.3237 7.32228 13.5983 8.07288 13.1851C9.30591 12.4768 10.4695 11.6579 11.6323 10.8397C12.0132 10.5716 12.3941 10.3036 12.7772 10.0395C12.7952 10.028 12.8154 10.0149 12.8376 10.0006C13.164 9.78896 13.8981 9.31312 13.6266 9.9688C12.9844 10.671 12.2967 11.2926 11.6051 11.9176C11.1391 12.3389 10.6713 12.7616 10.2147 13.2116C9.81702 13.5347 9.40407 14.1845 9.84939 14.637C10.8751 15.3551 11.9168 16.0557 12.9579 16.7559C13.2967 16.9838 13.6354 17.2116 13.9735 17.4399C14.5464 17.8974 15.4419 17.5274 15.5679 16.8125C15.6239 16.4836 15.6802 16.1548 15.7364 15.8259C16.0473 14.0086 16.3582 12.1907 16.6329 10.3675C16.6702 10.0815 16.7125 9.79549 16.7549 9.50936C16.8575 8.81588 16.9602 8.12156 16.9923 7.42435C16.9096 6.72859 16.066 6.88157 15.5965 7.03802C13.1833 7.95625 10.7943 8.94256 8.41471 9.94625C8.14514 10.0657 7.87189 10.185 7.5968 10.3051Z" fill="#464646"/>
</svg>
