<svg width="439" height="476" viewBox="0 0 439 476" fill="none" xmlns="http://www.w3.org/2000/svg">
<g opacity="0.7">
<path d="M64.6991 370.331L27.3449 305.632L64.699 240.932L139.407 240.932L176.762 305.632L139.407 370.331L64.6991 370.331Z" fill="#FCE480"/>
<path opacity="0.4" d="M181.519 438.646L144.165 373.946L181.519 309.247L256.228 309.247L293.582 373.946L256.228 438.646L181.519 438.646Z" fill="#FCE480"/>
<path opacity="0.8" d="M182.199 302.699L144.845 238L182.199 173.301L256.907 173.301L294.262 238L256.907 302.699L182.199 302.699Z" fill="#FCE480"/>
<path opacity="0.7" d="M182.199 166.753L144.845 102.054L182.199 37.3543L256.907 37.3542L294.262 102.054L256.907 166.753L182.199 166.753Z" fill="#FCE480"/>
<path opacity="0.5" d="M299.019 371.014L261.665 306.315L299.019 241.615L373.728 241.615L411.082 306.315L373.728 371.014L299.019 371.014Z" fill="#FCE480"/>
<path opacity="0.6" d="M299.019 235.068L261.665 170.368L299.019 105.669L373.728 105.669L411.082 170.368L373.728 235.068L299.019 235.068Z" fill="#FCE480"/>
<path d="M64.6991 234.385L27.3449 169.685L64.699 104.986L139.407 104.986L176.762 169.685L139.407 234.385L64.6991 234.385Z" fill="#FCE480"/>
</g>
</svg>
