<svg width="439" height="476" viewBox="0 0 439 476" fill="none" xmlns="http://www.w3.org/2000/svg">
<g opacity="0.7">
<path d="M373.727 105.669L411.081 170.368L373.727 235.068L299.018 235.068L261.664 170.369L299.018 105.669L373.727 105.669Z" fill="#FCE480"/>
<path opacity="0.4" d="M256.906 37.3542L294.261 102.054L256.906 166.753L182.198 166.753L144.844 102.054L182.198 37.3542L256.906 37.3542Z" fill="#FCE480"/>
<path opacity="0.8" d="M256.227 173.301L293.581 238L256.227 302.699L181.518 302.699L144.164 238L181.518 173.301L256.227 173.301Z" fill="#FCE480"/>
<path opacity="0.7" d="M256.227 309.247L293.581 373.946L256.227 438.646L181.518 438.646L144.164 373.946L181.518 309.247L256.227 309.247Z" fill="#FCE480"/>
<path opacity="0.5" d="M139.406 104.986L176.761 169.685L139.406 234.385L64.698 234.385L27.3438 169.685L64.698 104.986L139.406 104.986Z" fill="#FCE480"/>
<path opacity="0.6" d="M139.406 240.932L176.761 305.632L139.406 370.331L64.698 370.331L27.3438 305.632L64.698 240.932L139.406 240.932Z" fill="#FCE480"/>
<path d="M373.727 241.615L411.081 306.315L373.727 371.014L299.018 371.014L261.664 306.315L299.018 241.615L373.727 241.615Z" fill="#FCE480"/>
</g>
</svg>
