<svg width="28" height="28" viewBox="0 0 28 28" fill="none" xmlns="http://www.w3.org/2000/svg">
<path d="M13.6936 28H14H14.3064H14.8563V27.9714C22.1783 27.5271 28 21.4317 28 14.0002C28 6.56821 22.1783 0.472867 14.8563 0.0290456C14.6746 0.0179702 14.4918 0.0119555 14.3082 0.00828811C14.2058 0.00550094 14.1033 0 14 0C13.8967 0 13.7942 0.00550094 13.6918 0.00828811C13.5082 0.0119555 13.3254 0.0179702 13.1437 0.0290456C5.82166 0.472867 0 6.56821 0 14.0002C0 21.4317 5.82166 27.5271 13.1437 27.9714V28H13.6936ZM16.5284 26.0243C18.5769 24.0154 20.0658 21.9194 20.9835 19.7495H24.8543C23.1694 22.9184 20.1381 25.2668 16.5284 26.0243ZM26.2875 14.0002C26.2875 15.4144 26.0444 16.7718 25.6027 18.0374H21.585C21.9312 16.8069 22.1046 15.5561 22.0944 14.285C22.0824 12.755 21.812 11.3077 21.382 9.9627H25.6027C26.0443 11.2287 26.2875 12.5861 26.2875 14.0002ZM24.8544 8.25049H20.727C19.5237 5.53666 17.7612 3.35892 16.4205 1.95352C20.0782 2.68706 23.1527 5.04985 24.8544 8.25049ZM14.8563 2.81718C16.0024 3.98266 17.6273 5.87845 18.8186 8.25042H14.8563V2.81718ZM14.8563 9.9627H19.5606C20.0534 11.3094 20.3708 12.7693 20.3818 14.3084C20.391 15.569 20.1912 16.8124 19.7931 18.0374H14.8563V9.9627ZM14.8563 19.7495H19.0991C18.1773 21.6402 16.7637 23.4812 14.8563 25.2598V19.7495ZM13.1437 18.0374H8.20694C7.80874 16.8124 7.60903 15.569 7.61819 14.3084C7.62927 12.7693 7.94671 11.3094 8.43944 9.9627H13.1436V18.0374H13.1437ZM13.1437 8.25049H9.18141C10.3727 5.87853 11.9976 3.98222 13.1437 2.81674V8.25049ZM11.5797 1.95352C10.2389 3.35892 8.47641 5.53666 7.27317 8.25049H3.14572C4.84719 5.04985 7.92184 2.68706 11.5797 1.95352ZM1.71262 14.0002C1.71262 12.5861 1.95576 11.2287 2.3973 9.9627H6.61798C6.18803 11.3076 5.91811 12.7549 5.90565 14.285C5.89552 15.5561 6.06899 16.8069 6.41503 18.0374H2.3973C1.95576 16.7718 1.71262 15.4144 1.71262 14.0002ZM3.14565 19.7495H7.01661C7.93475 21.9194 9.42316 24.0154 11.4721 26.0243C7.86185 25.2668 4.83062 22.9184 3.14565 19.7495ZM8.90086 19.7495H13.1437V25.2598C11.2364 23.4812 9.82274 21.6403 8.90086 19.7495Z" fill="#3C3C3C"/>
</svg>
