<svg width="34" height="34" viewBox="0 0 34 34" fill="none" xmlns="http://www.w3.org/2000/svg">
<path d="M16.5512 33.0987H16.5498C7.42466 33.0987 0.000660264 25.6747 0 16.5492C0 7.424 7.42367 0 16.5492 0C25.6743 0 33.098 7.424 33.098 16.5492C33.098 25.6747 25.6753 33.0987 16.5512 33.0987ZM16.5492 1.32053C8.15194 1.32053 1.32053 8.15227 1.32053 16.5492C1.32119 24.9464 8.15293 31.7782 16.5498 31.7782H16.5512C24.9471 31.7782 31.7775 24.9467 31.7775 16.5492C31.7775 8.15227 24.9461 1.32053 16.5492 1.32053Z" fill="#3C3C3C"/>
<path d="M16.5495 28.2691H16.5485C10.0865 28.2691 4.82879 23.0114 4.82812 16.5494C4.82812 10.0874 10.0855 4.83008 16.5478 4.83008C23.0101 4.83008 28.2675 10.0874 28.2675 16.5494C28.2675 23.0114 23.0108 28.2691 16.5495 28.2691ZM16.5478 6.15061C10.8137 6.15061 6.14865 10.8154 6.14865 16.5494C6.14931 22.2838 10.8147 26.9486 16.5485 26.9486H16.5495C22.2825 26.9486 26.947 22.2835 26.947 16.5494C26.947 10.8154 22.2819 6.15061 16.5478 6.15061Z" fill="#3C3C3C"/>
<path d="M16.5491 18.6083C15.9998 18.6083 15.4831 18.395 15.0946 18.0074C14.2913 17.2026 14.2917 15.8966 15.0939 15.095C15.4828 14.7061 15.9994 14.4922 16.5491 14.4922C17.0988 14.4922 17.6154 14.7061 18.0043 15.0953C18.8066 15.8995 18.8059 17.2055 18.0037 18.0068C17.6151 18.395 17.0985 18.6083 16.5491 18.6083ZM16.5491 15.8127C16.352 15.8127 16.1672 15.8893 16.0275 16.029C15.74 16.3165 15.7403 16.785 16.0282 17.0735C16.3045 17.3495 16.7918 17.3511 17.0704 17.0725C17.3579 16.7853 17.3576 16.3168 17.0701 16.0283C16.9311 15.8896 16.7462 15.8127 16.5491 15.8127Z" fill="#3C3C3C"/>
<path d="M17.5391 16.221C17.3701 16.221 17.2014 16.1566 17.0723 16.0275C16.8144 15.7697 16.8144 15.3518 17.0723 15.0939L21.6291 10.5371C21.8869 10.2793 22.3049 10.2793 22.5627 10.5371C22.8205 10.795 22.8205 11.2129 22.5627 11.4707L18.0059 16.0275C17.8771 16.1566 17.7081 16.221 17.5391 16.221Z" fill="#3C3C3C"/>
<path d="M15.5557 16.2146C15.3867 16.2146 15.218 16.1502 15.0889 16.0211L11.7051 12.637C11.4473 12.3791 11.4473 11.9612 11.7051 11.703C11.9629 11.4455 12.3809 11.4452 12.6387 11.703L16.0226 15.0875C16.2804 15.3454 16.2804 15.7633 16.0226 16.0211C15.8935 16.1506 15.7244 16.2146 15.5557 16.2146Z" fill="#3C3C3C"/>
</svg>
