<svg width="27" height="27" viewBox="0 0 27 27" fill="none" xmlns="http://www.w3.org/2000/svg">
<path d="M25.4499 22.5836H24.471V20.7228C24.471 20.5603 24.4073 20.4044 24.2938 20.2895C24.1804 20.1745 24.0265 20.11 23.866 20.11H22.6121V8.68889H25.4609C25.5826 8.68707 25.7003 8.64439 25.7955 8.56754C25.8907 8.4907 25.9581 8.38402 25.987 8.26424C26.0159 8.14446 26.0048 8.01834 25.9554 7.90564C25.906 7.79294 25.821 7.70004 25.7139 7.6415L13.2628 0.955994C13.1833 0.913073 13.0945 0.890625 13.0043 0.890625C12.9142 0.890625 12.8254 0.913073 12.7459 0.955994L0.305781 7.65264C0.203873 7.71358 0.124086 7.80619 0.0782694 7.91672C0.032453 8.02725 0.0230518 8.1498 0.051462 8.26617C0.0798723 8.38254 0.144578 8.48653 0.23597 8.56269C0.327362 8.63884 0.440564 8.6831 0.558763 8.68889H3.40755V20.11H2.14265C1.9822 20.11 1.82833 20.1745 1.71488 20.2895C1.60143 20.4044 1.53769 20.5603 1.53769 20.7228V22.5836H0.558763C0.483678 22.5835 0.409362 22.5989 0.340392 22.629C0.271422 22.659 0.209259 22.7031 0.157735 22.7584C0.10621 22.8137 0.0664154 22.8792 0.0408017 22.9507C0.015188 23.0222 0.00429823 23.0982 0.00880341 23.1741V25.5921C0.00880341 25.7398 0.0667454 25.8815 0.169883 25.986C0.27302 26.0905 0.412904 26.1492 0.558763 26.1492H25.4499C25.5958 26.1492 25.7357 26.0905 25.8388 25.986C25.9419 25.8815 25.9999 25.7398 25.9999 25.5921V23.1741C26.0044 23.0982 25.9935 23.0222 25.9679 22.9507C25.9423 22.8792 25.9025 22.8137 25.8509 22.7584C25.7994 22.7031 25.7373 22.659 25.6683 22.629C25.5993 22.5989 25.525 22.5835 25.4499 22.5836ZM21.5012 20.1211H20.6323V8.68889H21.5012V20.1211ZM8.65416 8.68889V20.11H6.45433V8.68889H8.65416ZM9.75408 8.68889H10.623V20.11H9.75408V8.68889ZM11.7229 8.68889H14.3077V20.11H11.7229V8.68889ZM15.4077 8.68889H16.2766V20.11H15.4077V8.68889ZM17.3765 8.68889H19.5764V20.11H17.3765V8.68889ZM12.9768 2.07024L23.2501 7.57464H2.7696L12.9768 2.07024ZM4.50747 8.68889H5.37641V20.11H4.50747V8.68889ZM2.7476 21.3356H23.2611V22.5279H2.7476V21.3356ZM24.9 25.0015H1.10872V23.6978H1.90066C1.9805 23.7144 2.06281 23.7144 2.14265 23.6978H23.866C23.9459 23.7144 24.0282 23.7144 24.108 23.6978H24.9V25.0015Z" fill="#3C3C3C"/>
<path d="M13.0107 6.77279C13.3327 6.77279 13.6474 6.67607 13.9151 6.49487C14.1828 6.31367 14.3914 6.05611 14.5147 5.75478C14.6379 5.45345 14.6701 5.12187 14.6073 4.80198C14.5445 4.48209 14.3894 4.18825 14.1618 3.95762C13.9341 3.72699 13.6441 3.56993 13.3283 3.5063C13.0125 3.44267 12.6852 3.47532 12.3877 3.60014C12.0903 3.72496 11.836 3.93632 11.6572 4.20752C11.4783 4.47871 11.3828 4.79754 11.3828 5.1237C11.3828 5.34026 11.4249 5.5547 11.5067 5.75478C11.5885 5.95486 11.7084 6.13665 11.8596 6.28978C12.0108 6.44292 12.1902 6.56439 12.3877 6.64726C12.5852 6.73014 12.7969 6.77279 13.0107 6.77279ZM13.0107 4.54429C13.1151 4.54429 13.2172 4.57566 13.304 4.63443C13.3908 4.6932 13.4585 4.77673 13.4985 4.87446C13.5384 4.97219 13.5489 5.07972 13.5285 5.18347C13.5081 5.28722 13.4579 5.38252 13.384 5.45732C13.3102 5.53212 13.2161 5.58306 13.1137 5.60369C13.0113 5.62433 12.9051 5.61374 12.8087 5.57326C12.7122 5.53278 12.6297 5.46423 12.5717 5.37627C12.5137 5.28832 12.4827 5.18491 12.4827 5.07913C12.4938 4.94514 12.5543 4.82029 12.6521 4.72944C12.7499 4.63858 12.878 4.58839 13.0107 4.58886V4.54429Z" fill="#3C3C3C"/>
</svg>
