<svg width="534" height="579" viewBox="0 0 534 579" fill="none" xmlns="http://www.w3.org/2000/svg">
<path d="M454.35 128.534L499.762 207.233L454.35 285.933L363.527 285.933L318.116 207.234L363.527 128.534L454.35 128.534Z" fill="#D4EEF9"/>
<path opacity="0.4" d="M312.331 45.4372L357.742 124.137L312.331 202.836L221.508 202.836L176.096 124.137L221.508 45.4372L312.331 45.4372Z" fill="#D4EEF9"/>
<path opacity="0.8" d="M311.503 210.8L356.914 289.5L311.503 368.2L220.68 368.2L175.268 289.5L220.68 210.801L311.503 210.8Z" fill="#D4EEF9"/>
<path opacity="0.7" d="M311.503 376.164L356.914 454.863L311.503 533.563L220.68 533.563L175.268 454.863L220.68 376.164L311.503 376.164Z" fill="#D4EEF9"/>
<path opacity="0.5" d="M169.479 127.703L214.891 206.402L169.479 285.102L78.6563 285.102L33.2448 206.402L78.6563 127.703L169.479 127.703Z" fill="#D4EEF9"/>
<path opacity="0.6" d="M169.479 293.068L214.891 371.768L169.479 450.467L78.6563 450.467L33.2448 371.768L78.6563 293.068L169.479 293.068Z" fill="#D4EEF9"/>
<path d="M454.35 293.898L499.762 372.598L454.35 451.297L363.527 451.297L318.116 372.598L363.527 293.898L454.35 293.898Z" fill="#D4EEF9"/>
</svg>
