<svg width="19" height="19" viewBox="0 0 19 19" fill="none" xmlns="http://www.w3.org/2000/svg">
<path d="M9.4987 17.4167C13.871 17.4167 17.4154 13.8723 17.4154 9.5C17.4154 5.12775 13.871 1.58334 9.4987 1.58334C5.12644 1.58334 1.58203 5.12775 1.58203 9.5C1.58203 13.8723 5.12644 17.4167 9.4987 17.4167Z" stroke="#4C4A41" stroke-width="1.5" stroke-linecap="round" stroke-linejoin="round"/>
<path d="M7.19531 7.125C7.38144 6.5959 7.74881 6.14975 8.23236 5.86556C8.71591 5.58138 9.28444 5.47749 9.83724 5.57231C10.39 5.66714 10.8915 5.95454 11.2527 6.38363C11.6139 6.81271 11.8116 7.35579 11.8107 7.91667C11.8107 9.5 9.43573 10.2917 9.43573 10.2917" stroke="#4C4A41" stroke-width="1.5" stroke-linecap="round" stroke-linejoin="round"/>
<path d="M9.5 13.4583H9.50833" stroke="#4C4A41" stroke-width="1.5" stroke-linecap="round" stroke-linejoin="round"/>
</svg>
