<svg width="17" height="17" viewBox="0 0 17 17" fill="none" xmlns="http://www.w3.org/2000/svg">
<g opacity="0.7">
<path d="M7.48024 3.34211C7.48024 2.31373 6.64381 1.47729 5.61543 1.47729C4.58674 1.47729 3.75 2.31373 3.75 3.34211C3.75 4.37049 4.58674 5.20693 5.61543 5.20693C6.64381 5.20723 7.48024 4.37049 7.48024 3.34211ZM4.78753 3.34211C4.78753 2.8859 5.15891 2.51483 5.61543 2.51483C6.07194 2.51483 6.44271 2.8859 6.44271 3.34211C6.44271 3.79832 6.07194 4.16939 5.61543 4.16939C5.15891 4.16939 4.78753 3.79832 4.78753 3.34211Z" fill="#010101"/>
<path d="M11.2261 5.12878H8.46048C8.79219 4.52182 9.0238 3.91944 9.0238 3.41166C9.0238 1.53067 7.49344 0 5.61306 0C3.73207 0 2.20201 1.53067 2.20201 3.41166C2.20201 3.91944 2.43332 4.52182 2.76533 5.12878H0V16.596H10.1886H11.2261H14.946C16.0787 16.596 17 15.6744 17 14.542V8.03509L11.2261 8.03418V5.12878ZM5.61306 1.03784C6.92127 1.03784 7.98596 2.10253 7.98596 3.41166C7.98596 4.30912 6.65487 6.08972 5.61306 7.24931C4.57125 6.08972 3.23985 4.30912 3.23985 3.41166C3.23985 2.10253 4.30424 1.03784 5.61306 1.03784ZM10.1886 15.5584H1.03784V6.16631H3.34361V6.06317C4.13061 7.20415 5.065 8.19072 5.23955 8.37138L5.61337 8.75923L5.98718 8.37138C6.16112 8.19042 7.09521 7.20476 7.88191 6.06408V6.16601H10.1886V8.03387V15.5584ZM15.9628 9.07293V14.542C15.9628 15.1025 15.5069 15.5584 14.9463 15.5584H11.2261V9.07202L15.9628 9.07293Z" fill="#010101"/>
<path d="M4.53753 12.6323H3.5V14.5426H4.53753V12.6323Z" fill="#010101"/>
<path d="M4.53753 8.81201H3.5V10.7223H4.53753V8.81201Z" fill="#010101"/>
<path d="M7.72503 12.6323H6.6875V14.5426H7.72503V12.6323Z" fill="#010101"/>
<path d="M7.72503 8.81201H6.6875V10.7223H7.72503V8.81201Z" fill="#010101"/>
<path d="M14.6462 10.4992H12.6172V11.5367H14.6462V10.4992Z" fill="#010101"/>
<path d="M14.6462 13.046H12.6172V14.0836H14.6462V13.046Z" fill="#010101"/>
</g>
</svg>
