<svg width="21" height="13" viewBox="0 0 21 13" fill="none" xmlns="http://www.w3.org/2000/svg">
<path opacity="0.7" d="M20.1332 7.72179L18.8878 8.13188L17.8063 2.32655L20.5854 1.23725C20.6655 1.20612 20.7385 1.15988 20.8003 1.10116C20.862 1.04245 20.9114 0.972422 20.9455 0.895071C20.9795 0.81772 20.9977 0.734564 20.9989 0.65035C21.0001 0.566136 20.9844 0.482514 20.9525 0.404258C20.9207 0.326002 20.8734 0.254644 20.8133 0.19426C20.7532 0.133875 20.6816 0.0856454 20.6025 0.0523251C20.5234 0.0190048 20.4383 0.0012464 20.3521 6.32868e-05C20.266 -0.00111983 20.1805 0.0142958 20.1004 0.0454299L16.8231 1.32696C16.6802 1.3799 16.5608 1.47995 16.4854 1.60981C16.41 1.73967 16.3834 1.89119 16.4101 2.03821V2.15355L14.8435 2.91606C14.7347 2.97003 14.6126 2.99323 14.491 2.98304C14.3694 2.97285 14.2532 2.92968 14.1553 2.85839L12.5625 1.66657C12.2221 1.41701 11.8081 1.28211 11.3827 1.28211H9.60634C9.36494 1.28222 9.12825 1.3475 8.92238 1.47074C8.71651 1.59398 8.54945 1.77039 8.43961 1.98054L7.26632 1.92287C7.15267 1.91817 7.03972 1.94246 6.93858 1.99335L5.84395 2.52519L3.9562 2.06384V1.98054C3.97014 1.85054 3.94307 1.71948 3.87863 1.60495C3.81419 1.49041 3.71546 1.39788 3.59569 1.33977L0.973815 0.0582452C0.821029 -0.00395049 0.649831 -0.00734332 0.494593 0.0487481C0.339354 0.10484 0.211568 0.216262 0.13689 0.360646C0.0622112 0.50503 0.0461696 0.671686 0.0919854 0.827153C0.137801 0.982621 0.242083 1.11539 0.383893 1.19881L2.60593 2.28811L2.06845 8.09344L0.888604 7.70898C0.803818 7.68205 0.714436 7.67171 0.625563 7.67855C0.53669 7.68539 0.450065 7.70928 0.370635 7.74885C0.291205 7.78842 0.220525 7.84289 0.162631 7.90916C0.104736 7.97543 0.0607614 8.0522 0.0332167 8.13509C0.00567189 8.21797 -0.00490327 8.30535 0.00209497 8.39223C0.00909321 8.47911 0.0335278 8.56379 0.0740037 8.64143C0.11448 8.71908 0.170204 8.78818 0.237995 8.84477C0.305787 8.90137 0.384317 8.94436 0.469104 8.97128L2.43551 9.61205C2.50511 9.62128 2.57566 9.62128 2.64526 9.61205C2.77258 9.6096 2.89697 9.57422 3.00577 9.50953C3.08897 9.4565 3.15875 9.38569 3.20985 9.30244C3.26094 9.21918 3.29202 9.12567 3.30073 9.02895L3.35317 8.43304L4.19872 8.84313C4.27716 9.31871 4.53138 9.74963 4.91318 10.0542L8.69524 12.7069C8.82968 12.8154 8.9849 12.8965 9.1518 12.9456C9.31871 12.9947 9.49396 13.0108 9.66729 12.9929C9.84063 12.975 10.0086 12.9235 10.1613 12.8414C10.314 12.7593 10.4485 12.6482 10.5568 12.5147C10.8062 12.6074 11.0728 12.6479 11.3393 12.6335C11.6057 12.6192 11.8661 12.5503 12.1037 12.4314L15.6498 10.7014C15.8638 10.5957 16.0491 10.4418 16.1904 10.2524C16.3317 10.063 16.425 9.84356 16.4625 9.61205C16.4691 9.54385 16.4691 9.4752 16.4625 9.407L17.7079 9.00332V9.08021C17.7246 9.17011 17.7606 9.2555 17.8138 9.33065C17.8669 9.4058 17.9359 9.46897 18.016 9.51593C18.1241 9.58149 18.2494 9.61488 18.3765 9.61205C18.4476 9.61076 18.5182 9.59999 18.5863 9.58001L20.5527 8.93925C20.6344 8.91232 20.71 8.86991 20.775 8.81444C20.84 8.75897 20.8932 8.69153 20.9316 8.61596C20.9699 8.5404 20.9926 8.45819 20.9985 8.37403C21.0043 8.28987 20.9932 8.20541 20.9656 8.12547C20.9381 8.04554 20.8947 7.97168 20.838 7.90813C20.7812 7.84458 20.7122 7.79258 20.6349 7.7551C20.5576 7.71761 20.4735 7.69538 20.3874 7.68966C20.3013 7.68395 20.215 7.69487 20.1332 7.72179ZM5.71286 9.04177C5.6092 8.9574 5.5347 8.84382 5.49951 8.71654C5.46432 8.58925 5.47015 8.45445 5.51622 8.33052C5.52279 8.30828 5.5354 8.2882 5.55271 8.2724C5.57002 8.25661 5.59139 8.24569 5.61454 8.24081C5.65386 8.24081 5.7063 8.24081 5.78496 8.29207L9.75055 11.0922L9.53424 11.733L5.71286 9.04177ZM15.0598 9.55438L11.5138 11.2844C11.3594 11.3611 11.1803 11.3749 11.0156 11.3229C11.0578 11.0953 11.0363 10.8607 10.9532 10.6441C10.8701 10.4275 10.7286 10.237 10.5437 10.0926L6.61085 7.29248C6.42439 7.14745 6.20434 7.04939 5.97005 7.00694C5.73576 6.96448 5.49439 6.97892 5.26714 7.04899C4.95433 7.13745 4.68159 7.32725 4.49368 7.58723L3.60225 7.15151C3.56483 7.13497 3.52504 7.12417 3.48426 7.11947L3.83166 3.38381L5.79807 3.85798L5.92261 3.84517C6.02521 3.84456 6.12625 3.82042 6.21757 3.77468L7.37119 3.2044H7.79725L7.30565 4.17196C7.2279 4.32328 7.21459 4.49855 7.26864 4.65944C7.32268 4.82033 7.43967 4.95376 7.59405 5.03058L7.7317 5.10106C8.15841 5.31037 8.64844 5.36078 9.11037 5.24288C9.5723 5.12497 9.97458 4.84682 10.2421 4.4603H10.8976L15.0795 9.13148C15.0967 9.16488 15.1165 9.19701 15.1385 9.22759C15.161 9.24734 15.1777 9.27259 15.1869 9.30074C15.1961 9.32889 15.1975 9.35893 15.1909 9.38778C15.1938 9.42126 15.1867 9.45485 15.1704 9.48443C15.1541 9.51402 15.1294 9.53832 15.0992 9.55438H15.0598ZM15.9513 8.228L11.6514 3.42226C11.5907 3.35472 11.5162 3.30041 11.4326 3.26288C11.349 3.22534 11.2583 3.20542 11.1664 3.2044H9.85542C9.73438 3.20476 9.6158 3.23788 9.51283 3.30008C9.40986 3.36229 9.32652 3.45115 9.27205 3.55682L9.19995 3.69138C9.13046 3.82642 9.01438 3.93309 8.87222 3.99254L9.60634 2.56364H11.3827C11.5245 2.56364 11.6625 2.6086 11.7759 2.69179L13.4015 3.88361C13.6938 4.09727 14.0411 4.22721 14.4045 4.2589C14.768 4.29058 15.1334 4.22276 15.4597 4.06303L16.6854 3.46711L17.4785 7.73461L15.9513 8.228Z" fill="black"/>
</svg>
