<svg width="16" height="16" viewBox="0 0 16 16" fill="none" xmlns="http://www.w3.org/2000/svg">
<path opacity="0.7" d="M12.6667 7C13.4667 6.26667 14 5.2 14 4C14 1.8 12.2 0 10 0C8 0 6.4 1.33333 6.06667 3.33333H6C3.8 3.33333 2 5.13333 2 7.33333C2 8.53333 2.53333 9.6 3.33333 10.3333C2.13333 10.6 1 11.3333 0 12.6667V15.3333C0 15.7333 0.266667 16 0.666667 16H11.3333C11.7333 16 12 15.7333 12 15.3333V12.6667H15.3333C15.7333 12.6667 16 12.4 16 12V9.33333C15.0667 8 13.8667 7.26667 12.6667 7ZM10 1.33333C11.4667 1.33333 12.6667 2.53333 12.6667 4C12.6667 5.46667 11.5333 6.66667 10 6.66667C10 5.26667 8.73333 4.06667 7.4 3.6C7.6 2.33333 8.66667 1.33333 10 1.33333ZM3.33333 7.33333C3.33333 5.86667 4.53333 4.66667 6 4.66667C7.46667 4.66667 8.66667 5.86667 8.66667 7.33333C8.66667 8.8 7.46667 10 6 10C4.53333 10 3.33333 8.8 3.33333 7.33333ZM10.6667 14.6667H1.33333V13.3333C1.33333 13.3333 2.66667 11.3333 6 11.3333C9.33333 11.3333 10.6667 13.3333 10.6667 13.3333V14.6667ZM14.6667 11.3333H10.7333C10.0667 10.8 9.4 10.4667 8.66667 10.3333C9.33333 9.73333 9.8 8.93333 9.93333 8H10C13.3333 8 14.6667 10 14.6667 10V11.3333Z" fill="black"/>
</svg>
