<svg width="16" height="15" viewBox="0 0 16 15" fill="none" xmlns="http://www.w3.org/2000/svg">
<path opacity="0.7" d="M8.5525 11.5475H6.9975V13.1025H8.5525V11.5475ZM10.1075 11.5475V13.1025H11.6625C11.8687 13.1025 12.0665 13.1844 12.2123 13.3302C12.3581 13.476 12.44 13.6738 12.44 13.88C12.44 14.0862 12.3581 14.2839 12.2123 14.4298C12.0665 14.5756 11.8687 14.6575 11.6625 14.6575H3.8875C3.68129 14.6575 3.48353 14.5756 3.33772 14.4298C3.19192 14.2839 3.11 14.0862 3.11 13.88C3.11 13.6738 3.19192 13.476 3.33772 13.3302C3.48353 13.1844 3.68129 13.1025 3.8875 13.1025H5.4425V11.5475H1.555C1.14259 11.5475 0.747068 11.3836 0.455449 11.092C0.16383 10.8004 0 10.4049 0 9.99248V2.21748C0 1.36223 0.69975 0.662476 1.555 0.662476H13.995C14.4074 0.662476 14.8029 0.826305 15.0946 1.11792C15.3862 1.40954 15.55 1.80506 15.55 2.21748V9.99248C15.55 10.4049 15.3862 10.8004 15.0946 11.092C14.8029 11.3836 14.4074 11.5475 13.995 11.5475H10.1075ZM1.555 2.21748V9.99248H13.995V2.21748H1.555Z" fill="black"/>
</svg>
