<svg width="21" height="20" viewBox="0 0 21 20" fill="none" xmlns="http://www.w3.org/2000/svg">
<g opacity="0.7">
<path d="M17.7192 7.73949C17.7192 7.31997 17.3787 6.97949 16.9592 6.97949C16.5397 6.97949 16.1992 7.31997 16.1992 7.73949C16.1992 7.92037 16.1992 13.2586 16.1992 13.4395C16.1992 13.859 16.5397 14.1995 16.9592 14.1995C17.3787 14.1995 17.7192 13.859 17.7192 13.4395C17.7192 13.2586 17.7192 7.92037 17.7192 7.73949Z" stroke="black" stroke-width="1.1" stroke-miterlimit="10"/>
<path d="M11.6405 17.9995C12.06 17.9995 12.4005 17.659 12.4005 17.2395C12.4005 16.82 12.06 16.4795 11.6405 16.4795C11.4596 16.4795 9.92135 16.4795 9.74047 16.4795C9.32095 16.4795 8.98047 16.82 8.98047 17.2395C8.98047 17.659 9.32095 17.9995 9.74047 17.9995C9.92135 17.9995 11.4596 17.9995 11.6405 17.9995Z" stroke="black" stroke-width="1.1" stroke-miterlimit="10"/>
<path d="M4.03906 7.35941C4.03906 3.79159 6.93124 0.899414 10.4991 0.899414C14.0669 0.899414 16.9591 3.79159 16.9591 7.35941" stroke="black" stroke-width="1.1" stroke-miterlimit="10"/>
<path d="M17.7207 7.73926C18.7703 7.73926 19.6207 9.01492 19.6207 10.5893C19.6207 12.1628 18.7703 13.4393 17.7207 13.4393" stroke="black" stroke-width="1.1" stroke-miterlimit="10"/>
<path d="M3.2793 7.73949C3.2793 7.31997 3.61978 6.97949 4.0393 6.97949C4.45882 6.97949 4.7993 7.31997 4.7993 7.73949C4.7993 7.92037 4.7993 13.2586 4.7993 13.4395C4.7993 13.859 4.45882 14.1995 4.0393 14.1995C3.61978 14.1995 3.2793 13.859 3.2793 13.4395C3.2793 13.2586 3.2793 7.92037 3.2793 7.73949Z" stroke="black" stroke-width="1.1" stroke-miterlimit="10"/>
<path d="M3.28086 7.73926C2.23168 7.73926 1.38086 9.01492 1.38086 10.5893C1.38086 12.1628 2.23168 13.4393 3.28086 13.4393" stroke="black" stroke-width="1.1" stroke-miterlimit="10"/>
<path d="M16.9604 14.1992C16.9604 16.0992 15.8204 17.2392 13.9204 17.2392H12.4004" stroke="black" stroke-width="1.1" stroke-miterlimit="10"/>
</g>
</svg>
