<svg width="13" height="15" viewBox="0 0 13 15" fill="none" xmlns="http://www.w3.org/2000/svg">
<path fill-rule="evenodd" clip-rule="evenodd" d="M8.905 7.31026C9.54387 6.78539 10.0107 6.06456 10.2405 5.24824C10.4702 4.43191 10.4514 3.56075 10.1867 2.75615C9.92201 1.95156 9.42457 1.2536 8.76373 0.759563C8.10288 0.265521 7.31155 0 6.5 0C5.68845 0 4.89712 0.265521 4.23627 0.759563C3.57543 1.2536 3.07799 1.95156 2.81329 2.75615C2.54858 3.56075 2.5298 4.43191 2.75954 5.24824C2.98929 6.06456 3.45613 6.78539 4.095 7.31026C2.88763 7.81457 1.85213 8.68689 1.12217 9.81458C0.392221 10.9423 0.00134114 12.2736 0 13.6366V14.3183C0 14.4991 0.0684819 14.6725 0.190381 14.8003C0.312279 14.9282 0.477609 15 0.65 15C0.822391 15 0.987721 14.9282 1.10962 14.8003C1.23152 14.6725 1.3 14.4991 1.3 14.3183V13.6366C1.3 12.1902 1.84786 10.803 2.82304 9.78021C3.79823 8.75744 5.12087 8.18286 6.5 8.18286C7.87913 8.18286 9.20177 8.75744 10.177 9.78021C11.1521 10.803 11.7 12.1902 11.7 13.6366V14.3183C11.7 14.4991 11.7685 14.6725 11.8904 14.8003C12.0123 14.9282 12.1776 15 12.35 15C12.5224 15 12.6877 14.9282 12.8096 14.8003C12.9315 14.6725 13 14.4991 13 14.3183V13.6366C12.9987 12.2736 12.6078 10.9423 11.8778 9.81458C11.1479 8.68689 10.1124 7.81457 8.905 7.31026ZM3.9 4.09257C3.9 3.55325 4.05249 3.02604 4.33818 2.57761C4.62387 2.12918 5.02993 1.77967 5.50502 1.57328C5.98011 1.36689 6.50288 1.31289 7.00723 1.41811C7.51159 1.52332 7.97486 1.78303 8.33848 2.16439C8.70209 2.54575 8.94972 3.03163 9.05004 3.56059C9.15036 4.08954 9.09887 4.63782 8.90209 5.13609C8.7053 5.63436 8.37205 6.06024 7.94448 6.35987C7.51691 6.6595 7.01423 6.81943 6.5 6.81943C5.81044 6.81943 5.14912 6.53213 4.66152 6.02075C4.17393 5.50936 3.9 4.81578 3.9 4.09257Z" fill="#4D4D4D"/>
</svg>
