<svg width="21" height="20" viewBox="0 0 21 20" fill="none" xmlns="http://www.w3.org/2000/svg">
<g opacity="0.7">
<path d="M17.7192 7.74C17.7192 7.32048 17.3787 6.98 16.9592 6.98C16.5397 6.98 16.1992 7.32048 16.1992 7.74C16.1992 7.92088 16.1992 13.2591 16.1992 13.44C16.1992 13.8595 16.5397 14.2 16.9592 14.2C17.3787 14.2 17.7192 13.8595 17.7192 13.44C17.7192 13.2591 17.7192 7.92088 17.7192 7.74Z" stroke="black" stroke-width="1.1" stroke-miterlimit="10"/>
<path d="M11.6405 18C12.06 18 12.4005 17.6595 12.4005 17.24C12.4005 16.8205 12.06 16.48 11.6405 16.48C11.4596 16.48 9.92135 16.48 9.74047 16.48C9.32095 16.48 8.98047 16.8205 8.98047 17.24C8.98047 17.6595 9.32095 18 9.74047 18C9.92135 18 11.4596 18 11.6405 18Z" stroke="black" stroke-width="1.1" stroke-miterlimit="10"/>
<path d="M4.03906 7.35992C4.03906 3.7921 6.93124 0.899918 10.4991 0.899918C14.0669 0.899918 16.9591 3.7921 16.9591 7.35992" stroke="black" stroke-width="1.1" stroke-miterlimit="10"/>
<path d="M17.7188 7.74002C18.7683 7.74002 19.6187 9.01568 19.6187 10.59C19.6187 12.1636 18.7683 13.44 17.7188 13.44" stroke="black" stroke-width="1.1" stroke-miterlimit="10"/>
<path d="M3.28125 7.74C3.28125 7.32048 3.62173 6.98 4.04125 6.98C4.46077 6.98 4.80125 7.32048 4.80125 7.74C4.80125 7.92088 4.80125 13.2591 4.80125 13.44C4.80125 13.8595 4.46077 14.2 4.04125 14.2C3.62173 14.2 3.28125 13.8595 3.28125 13.44C3.28125 13.2591 3.28125 7.92088 3.28125 7.74Z" stroke="black" stroke-width="1.1" stroke-miterlimit="10"/>
<path d="M3.27891 7.74002C2.22973 7.74002 1.37891 9.01568 1.37891 10.59C1.37891 12.1636 2.22973 13.44 3.27891 13.44" stroke="black" stroke-width="1.1" stroke-miterlimit="10"/>
<path d="M16.9584 14.2C16.9584 16.1 15.8184 17.24 13.9184 17.24H12.3984" stroke="black" stroke-width="1.1" stroke-miterlimit="10"/>
</g>
</svg>
