<svg width="16" height="15" viewBox="0 0 16 15" fill="none" xmlns="http://www.w3.org/2000/svg">
<path opacity="0.7" d="M8.5525 11.5471H6.9975V13.1021H8.5525V11.5471ZM10.1075 11.5471V13.1021H11.6625C11.8687 13.1021 12.0665 13.184 12.2123 13.3298C12.3581 13.4756 12.44 13.6734 12.44 13.8796C12.44 14.0858 12.3581 14.2836 12.2123 14.4294C12.0665 14.5752 11.8687 14.6571 11.6625 14.6571H3.8875C3.68129 14.6571 3.48353 14.5752 3.33772 14.4294C3.19192 14.2836 3.11 14.0858 3.11 13.8796C3.11 13.6734 3.19192 13.4756 3.33772 13.3298C3.48353 13.184 3.68129 13.1021 3.8875 13.1021H5.4425V11.5471H1.555C1.14259 11.5471 0.747068 11.3833 0.455449 11.0917C0.16383 10.8 0 10.4045 0 9.99211V2.21711C0 1.36186 0.69975 0.662109 1.555 0.662109H13.995C14.4074 0.662109 14.8029 0.825939 15.0946 1.11756C15.3862 1.40918 15.55 1.8047 15.55 2.21711V9.99211C15.55 10.4045 15.3862 10.8 15.0946 11.0917C14.8029 11.3833 14.4074 11.5471 13.995 11.5471H10.1075ZM1.555 2.21711V9.99211H13.995V2.21711H1.555Z" fill="black"/>
</svg>
