<svg width="19" height="11" viewBox="0 0 19 11" fill="none" xmlns="http://www.w3.org/2000/svg">
<path opacity="0.7" d="M18.2157 6.53382L17.0889 6.88082L16.1104 1.96862L18.6249 1.04691C18.6974 1.02056 18.7634 0.981433 18.8193 0.931754C18.8752 0.882075 18.9198 0.822819 18.9507 0.757368C18.9815 0.691917 18.9979 0.621554 18.999 0.550296C19.0001 0.479039 18.9859 0.408281 18.957 0.342065C18.9282 0.275848 18.8854 0.215468 18.8311 0.164374C18.7767 0.113279 18.7119 0.0724692 18.6403 0.0442751C18.5687 0.016081 18.4918 0.00105465 18.4138 5.35504e-05C18.3359 -0.000947545 18.2585 0.0120964 18.1861 0.0384407L15.2209 1.12281C15.0916 1.16761 14.9836 1.25226 14.9154 1.36215C14.8472 1.47203 14.8231 1.60024 14.8472 1.72464V1.82223L13.4299 2.46743C13.3314 2.5131 13.2209 2.53273 13.1109 2.52411C13.0009 2.51549 12.8957 2.47896 12.8072 2.41864L11.3661 1.41017C11.0581 1.19901 10.6836 1.08486 10.2986 1.08486H8.69145C8.47304 1.08496 8.2589 1.14019 8.07263 1.24447C7.88637 1.34875 7.73521 1.49803 7.63584 1.67584L6.57429 1.62704C6.47146 1.62306 6.36927 1.64362 6.27777 1.68668L5.28738 2.1367L3.57942 1.74633V1.67584C3.59203 1.56584 3.56754 1.45494 3.50924 1.35803C3.45094 1.26112 3.36161 1.18282 3.25324 1.13366L0.881071 0.0492844C0.742836 -0.00334272 0.587943 -0.00621358 0.447489 0.0412484C0.307035 0.0887104 0.191419 0.182991 0.123852 0.305162C0.0562863 0.427333 0.0417725 0.568349 0.0832249 0.699899C0.124677 0.831448 0.219027 0.943792 0.347331 1.01437L2.35775 1.93609L1.87145 6.84829L0.803975 6.52298C0.727264 6.5002 0.646395 6.49145 0.565986 6.49724C0.485576 6.50303 0.407202 6.52324 0.335337 6.55672C0.263471 6.5902 0.199523 6.63629 0.147142 6.69237C0.0947615 6.74844 0.0549746 6.8134 0.0300532 6.88353C0.00513171 6.95367 -0.0044363 7.0276 0.00189545 7.10111C0.00822719 7.17463 0.0303347 7.24628 0.0669557 7.31198C0.103577 7.37769 0.153994 7.43615 0.215329 7.48404C0.276664 7.53193 0.347716 7.5683 0.424427 7.59109L2.20356 8.13327C2.26653 8.14108 2.33036 8.14108 2.39333 8.13327C2.50853 8.1312 2.62107 8.10127 2.71951 8.04652C2.79478 8.00166 2.85791 7.94174 2.90415 7.87129C2.95038 7.80085 2.9785 7.72172 2.98637 7.63988L3.03382 7.13565L3.79884 7.48265C3.86981 7.88507 4.09982 8.24969 4.44526 8.50738L7.86712 10.752C7.98876 10.8438 8.12919 10.9125 8.2802 10.954C8.43121 10.9955 8.58977 11.0091 8.7466 10.994C8.90343 10.9789 9.05538 10.9353 9.19356 10.8658C9.33174 10.7963 9.45338 10.7023 9.55137 10.5894C9.77707 10.6678 10.0183 10.702 10.2593 10.6899C10.5004 10.6778 10.736 10.6195 10.9509 10.5189L14.1593 9.05499C14.353 8.96556 14.5206 8.83537 14.6485 8.67513C14.7763 8.51488 14.8607 8.32917 14.8947 8.13327C14.9006 8.07557 14.9006 8.01748 14.8947 7.95977L16.0215 7.6182V7.68326C16.0365 7.75933 16.0691 7.83158 16.1172 7.89516C16.1653 7.95875 16.2277 8.01221 16.3002 8.05194C16.398 8.10741 16.5113 8.13567 16.6264 8.13327C16.6907 8.13218 16.7545 8.12306 16.8161 8.10616L18.5953 7.56398C18.6693 7.54119 18.7376 7.50531 18.7964 7.45837C18.8553 7.41144 18.9034 7.35437 18.9381 7.29043C18.9728 7.22649 18.9933 7.15693 18.9986 7.08572C19.0039 7.01451 18.9938 6.94304 18.9689 6.8754C18.944 6.80776 18.9047 6.74527 18.8534 6.6915C18.802 6.63772 18.7396 6.59372 18.6697 6.562C18.5998 6.53029 18.5237 6.51147 18.4458 6.50664C18.3679 6.5018 18.2897 6.51104 18.2157 6.53382ZM5.16877 7.65073C5.07499 7.57934 5.00759 7.48324 4.97575 7.37553C4.94391 7.26783 4.94918 7.15376 4.99086 7.0489C4.99681 7.03008 5.00822 7.01309 5.02388 6.99972C5.03954 6.98636 5.05887 6.97712 5.07982 6.973C5.1154 6.973 5.16284 6.973 5.23401 7.01637L8.82192 9.38572L8.62622 9.92791L5.16877 7.65073ZM13.6256 8.08448L10.4172 9.54838C10.2776 9.61321 10.1155 9.6249 9.9665 9.58091C10.0047 9.38831 9.98521 9.18985 9.91003 9.00657C9.83486 8.8233 9.70682 8.66204 9.53951 8.53991L5.98124 6.17056C5.81254 6.04784 5.61345 5.96487 5.40148 5.92895C5.1895 5.89302 4.97111 5.90524 4.7655 5.96453C4.48249 6.03938 4.23572 6.19998 4.06571 6.41997L3.25917 6.05128C3.22533 6.03729 3.18932 6.02814 3.15243 6.02417L3.46674 2.86323L5.24587 3.26445L5.35855 3.2536C5.45139 3.25309 5.54279 3.23266 5.62542 3.19396L6.66917 2.71142H7.05465L6.60987 3.53012C6.53953 3.65816 6.52749 3.80646 6.57638 3.9426C6.62528 4.07874 6.73113 4.19165 6.87081 4.25665L6.99535 4.31629C7.38142 4.49339 7.82478 4.53604 8.24272 4.43628C8.66065 4.33652 9.02462 4.10115 9.2667 3.7741H9.85975L13.6434 7.72663C13.659 7.7549 13.6768 7.78209 13.6967 7.80796C13.7171 7.82468 13.7322 7.84604 13.7405 7.86986C13.7489 7.89368 13.7501 7.9191 13.7442 7.94351C13.7468 7.97184 13.7404 8.00025 13.7256 8.02529C13.7109 8.05032 13.6885 8.07089 13.6612 8.08448H13.6256ZM14.4321 6.96215L10.5417 2.89576C10.4868 2.83861 10.4194 2.79265 10.3438 2.7609C10.2682 2.72914 10.1861 2.71228 10.1029 2.71142H8.91681C8.80729 2.71172 8.70001 2.73974 8.60685 2.79238C8.51368 2.84501 8.43828 2.9202 8.389 3.00962L8.32377 3.12348C8.2609 3.23774 8.15587 3.328 8.02724 3.3783L8.69145 2.16923H10.2986C10.4269 2.16923 10.5518 2.20728 10.6544 2.27767L12.1252 3.28613C12.3896 3.46692 12.7038 3.57687 13.0327 3.60368C13.3616 3.63049 13.6921 3.57311 13.9873 3.43794L15.0963 2.93371L15.8139 6.54467L14.4321 6.96215Z" fill="black"/>
</svg>
