<svg width="29" height="29" viewBox="0 0 29 29" fill="none" xmlns="http://www.w3.org/2000/svg">
<path fill-rule="evenodd" clip-rule="evenodd" d="M29 14.5C29 22.5081 22.5081 29 14.5 29C6.49187 29 0 22.5081 0 14.5C0 6.49187 6.49187 0 14.5 0C22.5081 0 29 6.49187 29 14.5ZM9.70835 13.1716C8.25583 13.8058 6.76339 14.4575 5.39869 15.2092L5.39859 15.2093C4.68598 15.731 5.63318 16.1 6.52171 16.4462C6.66297 16.5012 6.80275 16.5557 6.93414 16.6101C7.04347 16.6437 7.15467 16.6791 7.26734 16.715C8.25555 17.0299 9.35748 17.3809 10.3169 16.8528C11.8929 15.9475 13.3802 14.9008 14.8663 13.8549C15.3532 13.5123 15.84 13.1697 16.3298 12.8322C16.3527 12.8175 16.3786 12.8007 16.4069 12.7824C16.8241 12.512 17.7624 11.9037 17.4154 12.7418C16.5946 13.6394 15.7155 14.4339 14.8317 15.2327C14.236 15.7711 13.6381 16.3115 13.0545 16.8866C12.5462 17.2996 12.0183 18.1302 12.5875 18.7086C13.8985 19.6263 15.23 20.5219 16.5607 21.4169C16.9937 21.7081 17.4266 21.9993 17.8588 22.2911C18.5911 22.8759 19.7357 22.4029 19.8967 21.4892C19.9683 21.0689 20.0402 20.6486 20.1121 20.2283C20.5094 17.9054 20.9068 15.5818 21.2579 13.2514C21.3056 12.8858 21.3597 12.5203 21.4139 12.1546C21.545 11.2682 21.6763 10.3807 21.7173 9.48959C21.6116 8.60029 20.5334 8.79582 19.9332 8.99579C16.8489 10.1694 13.7953 11.4301 10.7538 12.713C10.4092 12.8656 10.06 13.0181 9.70835 13.1716Z" fill="#211600"/>
</svg>
