<svg width="30" height="29" viewBox="0 0 30 29" fill="none" xmlns="http://www.w3.org/2000/svg">
<path fill-rule="evenodd" clip-rule="evenodd" d="M14.626 0C6.61785 0 0.125977 6.49187 0.125977 14.5C0.125977 22.5081 6.61785 29 14.626 29C22.6341 29 29.126 22.5081 29.126 14.5C29.126 6.49187 22.6341 0 14.626 0ZM21.8528 9.74104C22.4114 9.74104 22.5376 10.0409 22.4114 10.4532C22.2146 11.3981 20.5799 13.9047 20.0736 14.681C19.9774 14.8285 19.9219 14.9136 19.9248 14.9136C19.7266 15.2509 19.6545 15.4009 19.9248 15.7757C20.0225 15.9143 20.2297 16.1257 20.4665 16.3674C20.71 16.6159 20.9849 16.8965 21.2042 17.1625C21.997 18.0996 22.6096 18.8867 22.7718 19.4302C22.916 19.9737 22.6637 20.2548 22.1231 20.2548H20.2672C19.7753 20.2548 19.5218 19.961 18.9814 19.3349C18.7498 19.0665 18.4654 18.7369 18.0868 18.3432C16.9877 17.2375 16.5011 17.0876 16.2309 17.0876C15.8525 17.0876 15.7443 17.1813 15.7443 17.7435V19.4864C15.7443 19.955 15.6002 20.2361 14.4109 20.2361C12.4468 20.2361 10.2665 18.9992 8.73488 16.694C6.42842 13.3206 5.79775 10.7718 5.79775 10.2658C5.79775 9.98468 5.88785 9.7223 6.42842 9.7223H8.30242C8.77092 9.7223 8.95111 9.92846 9.1313 10.4719C10.0503 13.2269 11.5819 15.6445 12.2126 15.6445C12.4468 15.6445 12.5549 15.5321 12.5549 14.9136V12.0649C12.5105 11.2552 12.2395 10.9025 12.0385 10.6409C11.9139 10.4786 11.8162 10.3514 11.8162 10.1721C11.8162 9.9472 11.9964 9.7223 12.2847 9.7223H15.2038C15.6002 9.7223 15.7443 9.9472 15.7443 10.4345V14.2764C15.7443 14.6887 15.9065 14.8386 16.0326 14.8386C16.2669 14.8386 16.4651 14.6887 16.8976 14.2389C18.231 12.6834 19.186 10.2845 19.186 10.2845C19.3121 10.0034 19.5284 9.74104 19.9969 9.74104H21.8528Z" fill="#211600"/>
</svg>
