<svg width="29" height="29" viewBox="0 0 29 29" fill="none" xmlns="http://www.w3.org/2000/svg">
<path fill-rule="evenodd" clip-rule="evenodd" d="M14.5 0C6.49187 0 0 6.49187 0 14.5C0 22.5081 6.49187 29 14.5 29C22.5081 29 29 22.5081 29 14.5C29 6.49187 22.5081 0 14.5 0ZM11.3115 6.81292C12.1364 6.77538 12.4 6.76619 14.5003 6.76619H14.4978C16.5987 6.76619 16.8614 6.77538 17.6863 6.81292C18.5095 6.85062 19.0718 6.98096 19.5648 7.1722C20.0739 7.36956 20.5041 7.63379 20.9343 8.06396C21.3645 8.49381 21.6287 8.92527 21.8269 9.4339C22.017 9.92562 22.1475 10.4876 22.1861 11.3109C22.2232 12.1358 22.2329 12.3993 22.2329 14.4996C22.2329 16.5999 22.2232 16.8628 22.1861 17.6877C22.1475 18.5107 22.017 19.0728 21.8269 19.5647C21.6287 20.0731 21.3645 20.5046 20.9343 20.9345C20.5046 21.3646 20.0738 21.6295 19.5653 21.827C19.0733 22.0183 18.5107 22.1486 17.6874 22.1863C16.8625 22.2238 16.5997 22.233 14.4993 22.233C12.3992 22.233 12.1358 22.2238 11.3109 22.1863C10.4877 22.1486 9.92562 22.0183 9.43358 21.827C8.92527 21.6295 8.49381 21.3646 8.06412 20.9345C7.63411 20.5046 7.36988 20.0731 7.1722 19.5645C6.98112 19.0728 6.85078 18.5108 6.81292 17.6875C6.77554 16.8626 6.76619 16.5999 6.76619 14.4996C6.76619 12.3993 6.77586 12.1356 6.81276 11.3107C6.84981 10.4877 6.98031 9.92562 7.17204 9.43374C7.37021 8.92527 7.63443 8.49381 8.0646 8.06396C8.49445 7.63395 8.92591 7.36972 9.43454 7.1722C9.92626 6.98096 10.4882 6.85062 11.3115 6.81292Z" fill="#211600"/>
<path fill-rule="evenodd" clip-rule="evenodd" d="M13.8062 8.16014C13.9409 8.15993 14.0858 8.15999 14.2422 8.16006L14.4999 8.16014C16.5648 8.16014 16.8095 8.16755 17.6249 8.2046C18.3789 8.23908 18.7881 8.36507 19.0607 8.47092C19.4216 8.61109 19.6789 8.77865 19.9494 9.04932C20.2201 9.31999 20.3876 9.57777 20.5281 9.93866C20.634 10.2109 20.7601 10.6202 20.7945 11.3742C20.8315 12.1894 20.8396 12.4343 20.8396 14.4982C20.8396 16.562 20.8315 16.8069 20.7945 17.6221C20.76 18.3761 20.634 18.7854 20.5281 19.0576C20.388 19.4185 20.2201 19.6755 19.9494 19.946C19.6788 20.2167 19.4218 20.3842 19.0607 20.5244C18.7884 20.6308 18.3789 20.7564 17.6249 20.7909C16.8097 20.828 16.5648 20.836 14.4999 20.836C12.435 20.836 12.1902 20.828 11.375 20.7909C10.621 20.7561 10.2118 20.6301 9.939 20.5243C9.57811 20.3841 9.32033 20.2165 9.04966 19.9459C8.77899 19.6752 8.61143 19.4181 8.47094 19.057C8.36509 18.7847 8.23894 18.3755 8.20462 17.6215C8.16757 16.8063 8.16016 16.5614 8.16016 14.4962C8.16016 12.4311 8.16757 12.1875 8.20462 11.3722C8.2391 10.6182 8.36509 10.209 8.47094 9.93641C8.61111 9.57551 8.77899 9.31773 9.04966 9.04706C9.32033 8.77639 9.57811 8.60884 9.939 8.46835C10.2116 8.36201 10.621 8.23634 11.375 8.2017C12.0884 8.16948 12.3649 8.15981 13.8062 8.1582V8.16014ZM18.6282 9.44515C18.1159 9.44515 17.7002 9.86033 17.7002 10.3728C17.7002 10.8852 18.1159 11.3008 18.6282 11.3008C19.1405 11.3008 19.5562 10.8852 19.5562 10.3728C19.5562 9.8605 19.1405 9.44482 18.6282 9.44482V9.44515ZM10.5304 14.5007C10.5304 12.3075 12.3085 10.5293 14.5017 10.5293C16.6949 10.5293 18.4727 12.3075 18.4727 14.5007C18.4727 16.6939 16.6951 18.4713 14.5019 18.4713C12.3086 18.4713 10.5304 16.6939 10.5304 14.5007Z" fill="#211600"/>
<path d="M14.4997 11.9219C15.9233 11.9219 17.0775 13.0759 17.0775 14.4997C17.0775 15.9233 15.9233 17.0775 14.4997 17.0775C13.0759 17.0775 11.9219 15.9233 11.9219 14.4997C11.9219 13.0759 13.0759 11.9219 14.4997 11.9219Z" fill="#211600"/>
</svg>
