<svg width="30" height="29" viewBox="0 0 30 29" fill="none" xmlns="http://www.w3.org/2000/svg">
<path fill-rule="evenodd" clip-rule="evenodd" d="M15.0625 0C7.05437 0 0.5625 6.49187 0.5625 14.5C0.5625 22.5081 7.05437 29 15.0625 29C23.0706 29 29.5625 22.5081 29.5625 14.5C29.5625 6.49187 23.0706 0 15.0625 0ZM21.1044 9.51499C21.7699 9.69761 22.294 10.2357 22.4719 10.919C22.7951 12.1574 22.7951 14.7414 22.7951 14.7414C22.7951 14.7414 22.7951 17.3253 22.4719 18.5639C22.294 19.2472 21.7699 19.7853 21.1044 19.968C19.8983 20.2998 15.0618 20.2998 15.0618 20.2998C15.0618 20.2998 10.2252 20.2998 9.01904 19.968C8.35354 19.7853 7.82943 19.2472 7.65156 18.5639C7.32843 17.3253 7.32843 14.7414 7.32843 14.7414C7.32843 14.7414 7.32843 12.1574 7.65156 10.919C7.82943 10.2357 8.35354 9.69761 9.01904 9.51499C10.2252 9.18311 15.0618 9.18311 15.0618 9.18311C15.0618 9.18311 19.8983 9.18311 21.1044 9.51499Z" fill="#211600"/>
<path d="M13.6128 17.3997V12.5664L17.4795 14.9832L13.6128 17.3997Z" fill="#211600"/>
</svg>
