<svg width="38" height="26" viewBox="0 0 38 26" fill="none" xmlns="http://www.w3.org/2000/svg">
<rect x="15.416" y="11.0901" width="1.8137" height="14.5096" transform="rotate(90 15.416 11.0901)" fill="white"/>
<rect x="9.07227" y="19.2505" width="1.8137" height="14.5096" transform="rotate(-180 9.07227 19.2505)" fill="white"/>
<path fill-rule="evenodd" clip-rule="evenodd" d="M31.0183 13.013C32.1077 12.1265 32.9037 10.9091 33.2955 9.53042C33.6872 8.15172 33.6552 6.68041 33.2038 5.32151C32.7525 3.96262 31.9043 2.78385 30.7774 1.94946C29.6506 1.11507 28.3013 0.666626 26.9174 0.666626C25.5336 0.666626 24.1843 1.11507 23.0575 1.94946C21.9306 2.78385 21.0824 3.96262 20.6311 5.32151C20.1797 6.68041 20.1477 8.15172 20.5394 9.53042C20.9312 10.9091 21.7272 12.1265 22.8166 13.013C20.7578 13.8647 18.9921 15.338 17.7475 17.2426C16.5028 19.1471 15.8363 21.3956 15.834 23.6975V24.8489C15.834 25.1543 15.9508 25.4471 16.1586 25.663C16.3665 25.8789 16.6484 26.0002 16.9423 26.0002C17.2363 26.0002 17.5182 25.8789 17.726 25.663C17.9339 25.4471 18.0507 25.1543 18.0507 24.8489V23.6975C18.0507 21.2547 18.9849 18.9119 20.6477 17.1845C22.3105 15.4571 24.5658 14.4867 26.9174 14.4867C29.2691 14.4867 31.5244 15.4571 33.1872 17.1845C34.85 18.9119 35.7842 21.2547 35.7842 23.6975V24.8489C35.7842 25.1543 35.901 25.4471 36.1088 25.663C36.3167 25.8789 36.5986 26.0002 36.8926 26.0002C37.1865 26.0002 37.4684 25.8789 37.6763 25.663C37.8841 25.4471 38.0009 25.1543 38.0009 24.8489V23.6975C37.9986 21.3956 37.3321 19.1471 36.0874 17.2426C34.8428 15.338 33.0771 13.8647 31.0183 13.013ZM22.4841 7.5786C22.4841 6.66773 22.7441 5.77732 23.2312 5.01997C23.7184 4.26261 24.4108 3.67232 25.2209 3.32375C26.031 2.97518 26.9224 2.88398 27.7824 3.06168C28.6423 3.23938 29.4323 3.678 30.0523 4.32208C30.6723 4.96616 31.0946 5.78676 31.2656 6.68013C31.4367 7.57349 31.3489 8.49948 31.0134 9.34101C30.6778 10.1825 30.1096 10.9018 29.3805 11.4079C28.6514 11.9139 27.7943 12.184 26.9174 12.184C25.7416 12.184 24.614 11.6988 23.7826 10.8351C22.9511 9.97144 22.4841 8.80003 22.4841 7.5786Z" fill="white"/>
</svg>
