<svg width="328" height="357" viewBox="0 0 328 357" fill="none" xmlns="http://www.w3.org/2000/svg">
<g opacity="0.7">
<path d="M279.596 79.0536L307.542 127.457L279.596 175.861L223.705 175.861L195.759 127.457L223.705 79.0536L279.596 79.0536Z" fill="#FCE480"/>
<path opacity="0.4" d="M192.201 27.9454L220.147 76.3489L192.201 124.752L136.31 124.752L108.364 76.3489L136.31 27.9454L192.201 27.9454Z" fill="#FCE480"/>
<path opacity="0.8" d="M191.295 133.945L219.241 182.349L191.295 230.752L135.403 230.752L107.458 182.349L135.403 133.945L191.295 133.945Z" fill="#FCE480"/>
<path opacity="0.7" d="M191.69 231.357L219.636 279.76L191.69 328.164L135.799 328.164L107.853 279.76L135.799 231.357L191.69 231.357Z" fill="#FCE480"/>
<path opacity="0.5" d="M104.295 78.5424L132.241 126.946L104.295 175.349L48.4034 175.349L20.4576 126.946L48.4034 78.5424L104.295 78.5424Z" fill="#FCE480"/>
<path opacity="0.6" d="M104.295 180.248L132.241 228.652L104.295 277.055L48.4034 277.055L20.4576 228.652L48.4034 180.248L104.295 180.248Z" fill="#FCE480"/>
<path d="M279.596 180.759L307.542 229.163L279.596 277.566L223.705 277.566L195.759 229.163L223.705 180.759L279.596 180.759Z" fill="#FCE480"/>
</g>
</svg>
