<svg width="253" height="274" viewBox="0 0 253 274" fill="none" xmlns="http://www.w3.org/2000/svg">
<g opacity="0.7">
<path d="M37.2434 213.174L15.7412 175.931L37.2434 138.688L80.2478 138.688L101.75 175.931L80.2478 213.174L37.2434 213.174Z" fill="#FCE480"/>
<path opacity="0.4" d="M104.488 252.498L82.9853 215.255L104.488 178.012L147.492 178.012L168.994 215.255L147.492 252.498L104.488 252.498Z" fill="#FCE480"/>
<path opacity="0.8" d="M104.88 174.243L83.3779 137L104.88 99.7571L147.885 99.7571L169.387 137L147.885 174.243L104.88 174.243Z" fill="#FCE480"/>
<path opacity="0.7" d="M104.88 95.988L83.3779 58.7451L104.88 21.5022L147.885 21.5022L169.387 58.7451L147.885 95.988L104.88 95.988Z" fill="#FCE480"/>
<path opacity="0.5" d="M172.124 213.567L150.622 176.324L172.124 139.081L215.129 139.081L236.631 176.324L215.129 213.567L172.124 213.567Z" fill="#FCE480"/>
<path opacity="0.6" d="M172.124 135.312L150.622 98.0692L172.124 60.8263L215.129 60.8263L236.631 98.0692L215.129 135.312L172.124 135.312Z" fill="#FCE480"/>
<path d="M37.2434 134.919L15.7412 97.6759L37.2434 60.433L80.2478 60.433L101.75 97.6759L80.2478 134.919L37.2434 134.919Z" fill="#FCE480"/>
</g>
</svg>
