<svg width="24" height="24" viewBox="0 0 24 24" fill="none" xmlns="http://www.w3.org/2000/svg">
<path d="M12 0C18.6274 0 24 5.37258 24 12C24 18.6274 18.6274 24 12 24C5.37258 24 0 18.6274 0 12C0 5.37258 5.37258 0 12 0Z" fill="#7F4DA0"/>
<path d="M15.1984 10.4792C15.14 10.005 14.9943 9.63273 14.7355 9.30295C14.3994 8.87832 13.9699 8.62404 13.3341 8.4732C12.9197 8.37266 12.7523 8.3842 12.6024 8.5211C12.4629 8.64935 12.4356 8.90647 12.5423 9.07298C12.6173 9.19383 12.7038 9.23712 12.9446 9.28437C13.2651 9.34335 13.4866 9.41989 13.6882 9.53511C14.1159 9.78208 14.3151 10.1686 14.3364 10.7942C14.3464 11.088 14.3717 11.1783 14.4743 11.2825C14.6645 11.473 15.003 11.4359 15.1465 11.208C15.1992 11.1221 15.2073 11.0847 15.2128 10.8852C15.2165 10.7617 15.2112 10.5779 15.1984 10.4792Z" fill="white"/>
<path d="M16.8707 11.0139C16.7862 9.56118 16.218 8.39242 15.2011 7.57011C14.6282 7.10805 13.9356 6.79033 13.1765 6.63582C12.8984 6.58055 12.3864 6.53576 12.2986 6.56138C12.2157 6.58511 12.0985 6.67485 12.0462 6.75601C11.991 6.84402 11.9785 7.04053 12.0257 7.15419C12.1017 7.34421 12.2433 7.41133 12.6396 7.44601C13.2507 7.49947 13.881 7.71415 14.3572 8.03198C14.9008 8.39384 15.333 8.88879 15.6126 9.4704C15.8541 9.97012 16.0027 10.6903 15.9986 11.3352C15.9972 11.5684 16.0332 11.7001 16.127 11.7964C16.2686 11.9445 16.475 11.9769 16.6571 11.8785C16.859 11.7724 16.9062 11.586 16.8707 11.0139Z" fill="white"/>
<path d="M18.7251 16.6082C18.6967 16.5252 18.6304 16.3971 18.583 16.3235C18.2846 15.8729 16.6812 14.6181 15.8807 14.2078C15.4236 13.973 15.085 13.8947 14.8339 13.9682C14.5639 14.0441 14.4218 14.1698 13.9694 14.732C13.7871 14.9573 13.6 15.1684 13.5503 15.2016C13.4271 15.287 13.1855 15.3558 13.015 15.3558C12.6195 15.3534 11.9019 15.0973 11.3501 14.7604C10.9214 14.4996 10.372 14.0323 9.95038 13.5697C9.45301 13.0266 9.11438 12.5474 8.84672 12.0066C8.50097 11.3117 8.41334 10.8871 8.55778 10.5763C8.59332 10.4981 8.64069 10.4151 8.66198 10.389C8.68331 10.3653 8.90595 10.1826 9.15223 9.98337C9.63539 9.59914 9.71354 9.51138 9.80353 9.24809C9.91721 8.91362 9.88644 8.57207 9.71118 8.22816C9.57617 7.96723 9.22329 7.39798 8.96752 7.03033C8.62885 6.54648 7.78571 5.51232 7.61754 5.37233C7.31439 5.12568 6.92602 5.08296 6.49731 5.24903C6.045 5.42455 5.1971 6.10766 4.83474 6.58442C4.50791 7.01611 4.38242 7.32207 4.36346 7.7253C4.34689 8.05736 4.3753 8.19493 4.55056 8.61952C5.92183 11.9497 7.96805 14.6086 10.7793 16.7197C12.2477 17.8226 13.7705 18.6623 15.3502 19.2363C16.2715 19.5707 16.6717 19.5873 17.143 19.3122C17.342 19.1936 17.8346 18.6884 18.1093 18.3207C18.564 17.7088 18.7322 17.4265 18.7795 17.2012C18.8127 17.047 18.7867 16.779 18.7251 16.6082Z" fill="white"/>
<path d="M18.5773 11.3475C18.547 10.5258 18.4087 9.85177 18.1202 9.1003C17.8354 8.36111 17.5471 7.87875 17.0027 7.22634C16.488 6.61463 16.0883 6.26535 15.4543 5.87656C14.5697 5.33486 13.4932 4.97639 12.2868 4.82563C11.8754 4.77294 11.7823 4.7767 11.6561 4.86092C11.4115 5.02047 11.4148 5.4184 11.6601 5.57556C11.7413 5.62555 11.8134 5.64376 12.1425 5.68683C12.6477 5.75485 12.9725 5.81895 13.358 5.92411C14.8695 6.3373 16.0319 7.18188 16.809 8.43561C17.4593 9.4806 17.7292 10.5257 17.6909 11.8604C17.6776 12.3116 17.6872 12.3911 17.7562 12.4995C17.8883 12.7015 18.2367 12.7415 18.4154 12.5738C18.5265 12.4716 18.5475 12.3949 18.5694 12.0087C18.5799 11.8072 18.5822 11.5098 18.5773 11.3475Z" fill="white"/>
</svg>
