<svg width="24" height="24" viewBox="0 0 24 24" fill="none" xmlns="http://www.w3.org/2000/svg">
<path d="M12 24C18.6274 24 24 18.6274 24 12C24 5.37258 18.6274 0 12 0C5.37258 0 0 5.37258 0 12C0 18.6274 5.37258 24 12 24Z" fill="#25D366"/>
<path fill-rule="evenodd" clip-rule="evenodd" d="M12.3957 18.6767H12.3928C11.1985 18.6762 10.0251 18.3766 8.98287 17.8081L5.2002 18.8004L6.2125 15.1028C5.58806 14.0207 5.25948 12.7931 5.26002 11.5355C5.26159 7.60124 8.4626 4.40039 12.3957 4.40039C14.3045 4.40121 16.0961 5.14432 17.4433 6.4931C18.7905 7.8418 19.532 9.63456 19.5313 11.5411C19.5297 15.4745 16.3299 18.675 12.3957 18.6767ZM9.15804 16.5166L9.37461 16.6451C10.2852 17.1855 11.329 17.4714 12.3932 17.4718H12.3956C15.6645 17.4718 18.3251 14.8112 18.3264 11.541C18.327 9.95626 17.7107 8.4662 16.5909 7.34515C15.4712 6.22411 13.9821 5.60643 12.398 5.60588C9.12657 5.60588 6.46599 8.26621 6.46469 11.5362C6.46423 12.6568 6.77779 13.7482 7.37147 14.6925L7.51249 14.9169L6.91335 17.1054L9.15804 16.5166ZM15.7463 13.0775C15.8706 13.1376 15.9546 13.1782 15.9905 13.2381C16.035 13.3124 16.035 13.6694 15.8865 14.0859C15.7379 14.5024 15.0256 14.8825 14.683 14.9336C14.3759 14.9796 13.9871 14.9987 13.5601 14.863C13.3011 14.7808 12.969 14.6711 12.5436 14.4874C10.8722 13.7657 9.7426 12.1457 9.52911 11.8395C9.51415 11.8181 9.50369 11.8031 9.49786 11.7953L9.49642 11.7933C9.40207 11.6675 8.76984 10.8239 8.76984 9.95087C8.76984 9.12961 9.17326 8.69914 9.35895 8.501C9.37167 8.48742 9.38337 8.47494 9.39385 8.46349C9.55728 8.28499 9.75045 8.24037 9.8693 8.24037C9.98815 8.24037 10.1071 8.24146 10.211 8.24668C10.2238 8.24732 10.2372 8.24725 10.251 8.24717C10.3549 8.24656 10.4844 8.2458 10.6122 8.55274C10.6613 8.67087 10.7333 8.84599 10.8091 9.0307C10.9626 9.4042 11.1321 9.81687 11.1619 9.87659C11.2065 9.96584 11.2362 10.0699 11.1767 10.189C11.1678 10.2068 11.1596 10.2237 11.1517 10.2398C11.1071 10.3309 11.0742 10.3979 10.9985 10.4864C10.9687 10.5212 10.9379 10.5587 10.9071 10.5962C10.8457 10.6709 10.7844 10.7455 10.731 10.7987C10.6418 10.8877 10.5488 10.9841 10.6528 11.1626C10.7568 11.3411 11.1147 11.9249 11.6447 12.3977C12.2145 12.9059 12.7097 13.1207 12.9607 13.2296C13.0097 13.2509 13.0494 13.2681 13.0785 13.2827C13.2567 13.3719 13.3608 13.357 13.4648 13.2381C13.5688 13.1191 13.9105 12.7174 14.0293 12.5389C14.1481 12.3605 14.267 12.3902 14.4304 12.4497C14.5939 12.5093 15.4705 12.9405 15.6488 13.0298C15.6836 13.0472 15.7161 13.0629 15.7463 13.0775Z" fill="#FDFDFD"/>
</svg>
