<svg width="20" height="20" viewBox="0 0 20 20" fill="none" xmlns="http://www.w3.org/2000/svg">
<path d="M0.408306 19.3718C0.159298 19.1213 0.0195312 18.7824 0.0195312 18.4292C0.0195312 18.076 0.159298 17.7372 0.408306 17.4867L17.4277 0.467321C17.5475 0.327367 17.695 0.2137 17.8609 0.133452C18.0267 0.0532036 18.2074 0.00810815 18.3915 0.000996266C18.5756 -0.00611562 18.7592 0.0249095 18.9308 0.092124C19.1024 0.159338 19.2582 0.261291 19.3885 0.391583C19.5188 0.521875 19.6207 0.677693 19.6879 0.849257C19.7552 1.02082 19.7862 1.20443 19.7791 1.38855C19.772 1.57267 19.7269 1.75334 19.6466 1.91921C19.5664 2.08508 19.4527 2.23256 19.3127 2.35242L2.2934 19.3718C2.04291 19.6208 1.70406 19.7605 1.35085 19.7605C0.997652 19.7605 0.658799 19.6208 0.408306 19.3718Z" fill="white"/>
<path d="M0.408306 0.466899C0.658799 0.217892 0.997652 0.078125 1.35085 0.078125C1.70406 0.078125 2.04291 0.217892 2.2934 0.466899L19.3127 17.4862C19.4527 17.6061 19.5664 17.7536 19.6466 17.9195C19.7269 18.0853 19.772 18.266 19.7791 18.4501C19.7862 18.6342 19.7552 18.8178 19.6879 18.9894C19.6207 19.161 19.5188 19.3168 19.3885 19.4471C19.2582 19.5774 19.1024 19.6793 18.9308 19.7465C18.7592 19.8138 18.5756 19.8448 18.3915 19.8377C18.2074 19.8306 18.0267 19.7855 17.8609 19.7052C17.695 19.625 17.5475 19.5113 17.4277 19.3713L0.408306 2.352C0.159298 2.1015 0.0195313 1.76265 0.0195312 1.40945C0.0195312 1.05625 0.159298 0.717393 0.408306 0.466899Z" fill="white"/>
</svg>
