<svg width="24" height="24" viewBox="0 0 24 24" fill="none" xmlns="http://www.w3.org/2000/svg">
<path d="M12 24C18.6274 24 24 18.6274 24 12C24 5.37258 18.6274 0 12 0C5.37258 0 0 5.37258 0 12C0 18.6274 5.37258 24 12 24Z" fill="#2D8CFF"/>
<path fill-rule="evenodd" clip-rule="evenodd" d="M19.0434 7.96775L15.6521 10.4421V13.5676L19.0434 16.0419C19.2834 16.2253 19.5652 16.2819 19.5652 15.7815V8.22821C19.5652 7.78201 19.3391 7.72592 19.0434 7.96775ZM4.17383 13.8784V8.24372C4.17383 8.01323 4.36237 7.82618 4.59495 7.82618H12.8126C14.0922 7.82618 15.1304 8.85394 15.1304 10.1218V15.7565C15.1304 15.987 14.9418 16.174 14.7092 16.174H6.49156C5.212 16.174 4.17383 15.1462 4.17383 13.8784Z" fill="white"/>
</svg>
