<svg width="24" height="24" viewBox="0 0 24 24" fill="none" xmlns="http://www.w3.org/2000/svg">
<path d="M6.96 13.92C10.8039 13.92 13.92 10.8039 13.92 6.96C13.92 3.1161 10.8039 0 6.96 0C3.1161 0 0 3.1161 0 6.96C0 10.8039 3.1161 13.92 6.96 13.92Z" fill="#28A8EA"/>
<path d="M17.0401 24.0001C20.884 24.0001 24.0001 20.884 24.0001 17.0401C24.0001 13.1962 20.884 10.0801 17.0401 10.0801C13.1962 10.0801 10.0801 13.1962 10.0801 17.0401C10.0801 20.884 13.1962 24.0001 17.0401 24.0001Z" fill="#28A8EA"/>
<path d="M12.0005 23.5205C18.3628 23.5205 23.5205 18.3628 23.5205 12.0005C23.5205 5.63815 18.3628 0.480469 12.0005 0.480469C5.63815 0.480469 0.480469 5.63815 0.480469 12.0005C0.480469 18.3628 5.63815 23.5205 12.0005 23.5205Z" fill="#28A8EA"/>
<path fill-rule="evenodd" clip-rule="evenodd" d="M9.0124 11.7816C8.56204 11.4849 8.18632 11.0882 7.91453 10.6224C7.65194 10.1306 7.5223 9.57869 7.53845 9.02137C7.51846 8.31405 7.75979 7.62416 8.21634 7.08354C8.69069 6.54064 9.30041 6.13311 9.98344 5.90242C10.7265 5.64003 11.5093 5.50831 12.2973 5.5131C12.813 5.50821 13.3281 5.54773 13.837 5.6312C14.201 5.68748 14.5585 5.7798 14.9043 5.9068C15.2219 6.01437 15.5086 6.19751 15.7398 6.44045C15.9102 6.64027 16.0019 6.89532 15.9978 7.15788C16.004 7.29427 15.9832 7.43053 15.9367 7.55888C15.8901 7.68723 15.8188 7.80515 15.7266 7.90592C15.6394 7.99877 15.5335 8.07211 15.4159 8.12112C15.2983 8.17013 15.1716 8.1937 15.0443 8.19027C14.869 8.18898 14.696 8.15018 14.5369 8.07648C14.1453 7.9012 13.7419 7.75358 13.3296 7.63471C12.95 7.53471 12.5587 7.48616 12.1661 7.49037C11.6549 7.47141 11.1491 7.60051 10.7095 7.86216C10.5239 7.97493 10.3719 8.13552 10.2696 8.32714C10.1672 8.51876 10.1183 8.73436 10.1278 8.95138C10.1251 9.23607 10.2333 9.51064 10.4296 9.71688C10.663 9.95888 10.9387 10.1561 11.2432 10.2987C11.5844 10.4679 12.0933 10.6925 12.7697 10.9723C12.8447 10.996 12.9178 11.0253 12.9885 11.0599C13.6486 11.3209 14.2815 11.6462 14.878 12.031C15.3493 12.3382 15.7466 12.7461 16.0416 13.2251C16.3318 13.7284 16.4771 14.3022 16.4615 14.883C16.4859 15.5944 16.282 16.2949 15.8797 16.8821C15.47 17.438 14.9033 17.8585 14.2526 18.0895C13.4685 18.3695 12.6399 18.5044 11.8074 18.4876C10.6635 18.5278 9.52487 18.3126 8.47448 17.8576C8.20568 17.7381 7.97 17.5549 7.78775 17.324C7.63668 17.1125 7.55839 16.8576 7.56465 16.5978C7.55711 16.4607 7.57941 16.3236 7.62999 16.196C7.68058 16.0684 7.75825 15.9532 7.85765 15.8585C8.06631 15.6758 8.33723 15.5802 8.61436 15.5917C8.9228 15.596 9.22574 15.6739 9.49789 15.8191C9.83606 15.9884 10.1029 16.1153 10.2984 16.1998C10.5217 16.2933 10.753 16.3665 10.9895 16.4185C11.2811 16.4825 11.5789 16.5133 11.8774 16.5103C12.405 16.5478 12.9301 16.4077 13.369 16.1123C13.5333 15.9837 13.6646 15.8179 13.7521 15.6284C13.8396 15.439 13.8806 15.2315 13.872 15.0231C13.8726 14.7272 13.7599 14.4423 13.5571 14.2269C13.289 13.9507 12.9753 13.7228 12.6298 13.5533C12.2215 13.3375 11.647 13.075 10.9064 12.7659C10.2437 12.5019 9.60925 12.1721 9.01238 11.7816" fill="white"/>
<path opacity="0.1" fill-rule="evenodd" clip-rule="evenodd" d="M9.13435 0.350352C8.83001 0.248455 8.51883 0.168254 8.20315 0.110352C6.30789 0.718589 4.58503 1.77008 3.17755 3.17755C1.77008 4.58503 0.718589 6.30789 0.110352 8.20315C0.168264 8.51883 0.248465 8.83001 0.350352 9.13435C0.435445 9.4099 0.543006 9.678 0.671951 9.93595C1.08889 7.63209 2.19941 5.51049 3.85495 3.85495C5.51049 2.19941 7.63209 1.08889 9.93595 0.671951C9.67799 0.543021 9.40989 0.435461 9.13435 0.350352Z" fill="black"/>
<path opacity="0.1" fill-rule="evenodd" clip-rule="evenodd" d="M9.13459 0.350586C7.0088 0.874895 5.0668 1.97039 3.51859 3.51859C1.97039 5.0668 0.874895 7.0088 0.350586 9.13459C0.435679 9.41013 0.54324 9.67823 0.672186 9.93619C1.08913 7.63233 2.19965 5.51072 3.85519 3.85519C5.51072 2.19965 7.63233 1.08913 9.93619 0.672186C9.67823 0.543255 9.41013 0.435695 9.13459 0.350586Z" fill="black"/>
<path opacity="0.1" fill-rule="evenodd" clip-rule="evenodd" d="M23.6501 14.8661C23.565 14.5905 23.4574 14.3224 23.3285 14.0645C22.9115 16.3683 21.801 18.4899 20.1455 20.1455C18.4899 21.801 16.3683 22.9115 14.0645 23.3285C14.3224 23.4574 14.5905 23.565 14.8661 23.6501C15.1704 23.7519 15.4816 23.8322 15.7973 23.8901C17.6925 23.2818 19.4154 22.2303 20.8228 20.8228C22.2303 19.4154 23.2818 17.6925 23.8901 15.7973C23.8321 15.4816 23.7519 15.1704 23.6501 14.8661Z" fill="black"/>
<path opacity="0.1" fill-rule="evenodd" clip-rule="evenodd" d="M23.3285 14.0645C22.9115 16.3683 21.801 18.4899 20.1455 20.1455C18.4899 21.801 16.3683 22.9115 14.0645 23.3285C14.3224 23.4574 14.5905 23.565 14.8661 23.6501C16.9918 23.1257 18.9338 22.0303 20.4821 20.4821C22.0303 18.9338 23.1257 16.9918 23.6501 14.8661C23.565 14.5905 23.4574 14.3224 23.3285 14.0645Z" fill="black"/>
</svg>
