<svg width="12" height="14" viewBox="0 0 12 14" fill="none" xmlns="http://www.w3.org/2000/svg">
<path d="M10.052 7.833C10.4824 7.19027 10.7637 6.45942 10.8751 5.69394C10.9865 4.92847 10.9253 4.14777 10.696 3.409V0H9.296V2.975C7.00902 3.63273 4.58298 3.63273 2.296 2.975V0H0.896V3.409C0.667771 4.14675 0.607152 4.92615 0.718568 5.69032C0.829983 6.45448 1.11062 7.18413 1.54 7.826L0 14H11.592L10.052 7.833ZM1.792 12.6L3.052 7.567L2.709 7.049C2.18448 6.26544 1.96992 5.3149 2.107 4.382C4.52494 5.03821 7.07406 5.03821 9.492 4.382C9.62908 5.3149 9.41452 6.26544 8.89 7.049L8.547 7.567L9.8 12.6H1.792Z" fill="#444444"/>
</svg>
