<svg width="14" height="14" viewBox="0 0 14 14" fill="none" xmlns="http://www.w3.org/2000/svg">
<path d="M8.01176 1.50906C7.93307 1.75374 7.77876 1.96713 7.57106 2.11851C7.36335 2.26989 7.11297 2.35145 6.85595 2.35145C6.59894 2.35145 6.34855 2.26989 6.14085 2.11851C5.93314 1.96713 5.77884 1.75374 5.70015 1.50906L5.19941 0L0 2.59971V7.14062H2.05781V14H11.6609V7.14062H13.7188V2.59971L8.51935 0L8.01176 1.50906ZM9.31504 1.94121L12.3469 3.45027V5.76874H10.2891V12.6281H3.42969V5.76874H1.37188V3.45027L4.40372 1.93435C4.57426 2.45097 4.90338 2.90065 5.34427 3.2194C5.78515 3.53815 6.31534 3.70974 6.85938 3.70974C7.40342 3.70974 7.93361 3.53815 8.3745 3.2194C8.81538 2.90065 9.14451 2.45097 9.31504 1.93435V1.94121Z" fill="#444444"/>
<path d="M9.60078 5.76868H7.54297V7.14055H9.60078V5.76868Z" fill="#444444"/>
</svg>
